SplineFontDB: 3.0
FontName: Manjari-Thin
FullName: Manjari Thin
FamilyName: Manjari
Weight: Thin
Copyright: Digitized data copyright (c) 2014, Santhosh Thottingal, Kavya Manohar,\nSwathanthra Malayalam Computing(http://smc.org.in) with reserved font name "Manjari".
Version: 1.0.0-alpha.20141027
ItalicAngle: 0
UnderlinePosition: -600
UnderlineWidth: 100
Ascent: 1434
Descent: 614
InvalidEm: 0
sfntRevision: 0x00060000
LayerCount: 2
Layer: 0 1 "Back" 1
Layer: 1 1 "Fore" 0
XUID: [1021 348 -393509193 14261458]
FSType: 0
OS2Version: 1
OS2_WeightWidthSlopeOnly: 0
OS2_UseTypoMetrics: 1
CreationTime: 1201144287
ModificationTime: 1434191724
PfmFamily: 17
TTFWeight: 100
TTFWidth: 5
LineGap: 0
VLineGap: 0
Panose: 2 0 4 3 0 0 0 0 0 0
OS2TypoAscent: 1434
OS2TypoAOffset: 0
OS2TypoDescent: -614
OS2TypoDOffset: 0
OS2TypoLinegap: 0
OS2WinAscent: 1465
OS2WinAOffset: 0
OS2WinDescent: 1414
OS2WinDOffset: 0
HheadAscent: 1465
HheadAOffset: 0
HheadDescent: -1414
HheadDOffset: 0
OS2SubXSize: 1331
OS2SubYSize: 1433
OS2SubXOff: 274
OS2SubYOff: 286
OS2SupXSize: 1331
OS2SupYSize: 1433
OS2SupXOff: -944
OS2SupYOff: 983
OS2StrikeYSize: 102
OS2StrikeYPos: 530
OS2CapHeight: 0
OS2XHeight: 0
OS2Vendor: 'SMC '
OS2CodePages: 00000001.00000000
OS2UnicodeRanges: 80800003.00002000.00000000.00000000
Lookup: 4 0 0 "'akhn' Akhand in Malay+AQEA-lam lookup 0" { "'akhn' Akhand in Malay+AQEA-lam lookup 0 subtable"  } ['akhn' ('mlym' <'dflt' > ) ]
Lookup: 4 0 0 "'akhn' Akhand in Malay+AQEA-lam2 lookup 1" { "'akhn' Akhand in Malay+AQEA-lam2 lookup 1 subtable"  } ['akhn' ('mlm2' <'dflt' > ) ]
Lookup: 4 0 0 "'pref' Pre Base Forms in Malay+AQEA-lam2 lookup 2" { "'pref' Pre Base Forms in Malay+AQEA-lam2 lookup 2 subtable"  } ['pref' ('mlm2' <'dflt' > ) ]
Lookup: 4 0 0 "'half' Half Forms in Malay+AQEA-lam lookup 3" { "'half' Half Forms in Malay+AQEA-lam lookup 3 subtable"  } ['half' ('mlym' <'dflt' > ) ]

StartChar: .notdef
Encoding: 175 -1 0
Width: 692
GlyphClass: 2
Flags: W
LayerCount: 2
Back
Fore
SplineSet
45 1 m 1,0,-1
 45 1119 l 1,1,-1
 606 1119 l 1,2,-1
 606 1 l 1,3,-1
 45 1 l 1,0,-1
102 55 m 1,4,-1
 552 55 l 1,5,-1
 552 1063 l 1,6,-1
 102 1063 l 1,7,-1
 102 55 l 1,4,-1
EndSplineSet
EndChar

StartChar: exclam
Encoding: 1 33 4
Width: 445
GlyphClass: 2
Flags: W
LayerCount: 2
Back
Fore
SplineSet
179.284179688 1167.74511719 m 128,-1,1
 196.59765625 1185.96191406 196.59765625 1185.96191406 217.678710938 1185.96191406 c 128,-1,2
 238.758789062 1185.96191406 238.758789062 1185.96191406 255.50390625 1169.64550781 c 128,-1,3
 272.248046875 1153.33007812 272.248046875 1153.33007812 276.50390625 1131.875 c 0,4,5
 347.451171875 795.762695312 347.451171875 795.762695312 335.329101562 567.869140625 c 0,6,7
 322.270507812 322.353515625 322.270507812 322.353515625 219.318359375 320.61328125 c 0,8,9
 114.876953125 318.842773438 114.876953125 318.842773438 101.993164062 554.7421875 c 128,-1,10
 89.1103515625 790.641601562 89.1103515625 790.641601562 159.508789062 1123.7890625 c 1,11,0
 161.970703125 1149.52832031 161.970703125 1149.52832031 179.284179688 1167.74511719 c 128,-1,1
196.516601562 224.432617188 m 128,-1,13
 211.879882812 235.272460938 211.879882812 235.272460938 225.780273438 235.272460938 c 0,14,15
 256.58984375 235.272460938 256.58984375 235.272460938 274.416015625 206.87109375 c 0,16,17
 355.220703125 81.8662109375 355.220703125 81.8662109375 344.283203125 -14.775390625 c 0,18,19
 338.734375 -63.8017578125 338.734375 -63.8017578125 306.625976562 -98 c 128,-1,20
 274.517578125 -132.198242188 274.517578125 -132.198242188 236.048828125 -132.408203125 c 128,-1,21
 197.711914062 -132.619140625 197.711914062 -132.619140625 165.403320312 -101.483398438 c 128,-1,22
 133.09375 -70.34765625 133.09375 -70.34765625 123.530273438 -22.33203125 c 0,23,24
 104.448242188 73.4697265625 104.448242188 73.4697265625 174.1953125 198.279296875 c 0,25,12
 181.15234375 213.59375 181.15234375 213.59375 196.516601562 224.432617188 c 128,-1,13
EndSplineSet
EndChar

StartChar: quotedbl
Encoding: 2 34 5
Width: 782
GlyphClass: 2
Flags: W
LayerCount: 2
Back
Fore
SplineSet
663 952 m 2,0,-1
 639 832 l 1,1,-1
 585 832 l 1,2,-1
 560 952 l 2,3,4
 539 1053 539 1053 539 1067 c 2,5,-1
 539 1262 l 1,6,-1
 686 1262 l 1,7,-1
 686 1067 l 1,8,9
 681 1039 681 1039 663 952 c 2,0,-1
427 952 m 2,10,-1
 402 832 l 1,11,-1
 350 832 l 1,12,-1
 326 952 l 2,13,14
 303 1053 303 1053 301 1067 c 2,15,-1
 301 1262 l 1,16,-1
 451 1262 l 1,17,-1
 451 1067 l 1,18,19
 446 1039 446 1039 427 952 c 2,10,-1
EndSplineSet
EndChar

StartChar: numbersign
Encoding: 3 35 6
Width: 942
GlyphClass: 2
Flags: W
LayerCount: 2
Back
Fore
SplineSet
807 781 m 1,0,-1
 746 450 l 1,1,-1
 938 450 l 1,2,-1
 938 349 l 1,3,-1
 728 349 l 1,4,-1
 659 -28 l 1,5,-1
 544 -28 l 1,6,-1
 612 349 l 1,7,-1
 366 349 l 1,8,-1
 296 -28 l 1,9,-1
 183 -28 l 1,10,-1
 251 349 l 1,11,-1
 68 349 l 1,12,-1
 68 450 l 1,13,-1
 272 450 l 1,14,-1
 330 781 l 1,15,-1
 134 781 l 1,16,-1
 134 882 l 1,17,-1
 350 882 l 1,18,-1
 413 1231 l 1,19,-1
 530 1231 l 1,20,-1
 462 882 l 1,21,-1
 711 882 l 1,22,-1
 774 1231 l 1,23,-1
 891 1231 l 1,24,-1
 824 882 l 1,25,-1
 996 882 l 1,26,-1
 996 781 l 1,27,-1
 807 781 l 1,0,-1
446 781 m 1,28,-1
 384 450 l 1,29,-1
 633 450 l 1,30,-1
 692 781 l 1,31,-1
 446 781 l 1,28,-1
EndSplineSet
EndChar

StartChar: dollar
Encoding: 4 36 7
Width: 955
GlyphClass: 2
Flags: W
LayerCount: 2
Back
Fore
SplineSet
566 -31 m 1,0,-1
 566 -212 l 1,1,-1
 483 -212 l 1,2,-1
 483 -31 l 1,3,4
 293 -18 293 -18 198.5 76 c 128,-1,5
 104 170 104 170 104 360 c 1,6,-1
 225 360 l 1,7,8
 237 222 237 222 287.5 155 c 128,-1,9
 338 88 338 88 483 70 c 1,10,-1
 483 576 l 1,11,12
 301 630 301 630 214 699 c 128,-1,13
 127 768 127 768 127 921 c 0,14,15
 127 1223 127 1223 483 1267 c 1,16,-1
 483 1362 l 1,17,-1
 566 1362 l 1,18,-1
 566 1267 l 1,19,20
 727 1254 727 1254 820 1169.5 c 128,-1,21
 913 1085 913 1085 915 937 c 1,22,-1
 795 937 l 1,23,24
 791 1033 791 1033 732 1097.5 c 128,-1,25
 673 1162 673 1162 566 1164 c 1,26,-1
 566 699 l 1,27,28
 800 636 800 636 877.5 568.5 c 128,-1,29
 955 501 955 501 955 348 c 0,30,31
 955 -3 955 -3 566 -31 c 1,0,-1
483 1164 m 1,32,33
 249 1132 249 1132 249 937 c 0,34,35
 249 768 249 768 483 707 c 1,36,-1
 483 1164 l 1,32,33
566 567 m 1,37,-1
 566 70 l 1,38,39
 829 100 829 100 830 326 c 0,40,41
 830 510 830 510 566 567 c 1,37,-1
EndSplineSet
EndChar

StartChar: percent
Encoding: 5 37 8
Width: 1485
GlyphClass: 2
Flags: W
LayerCount: 2
Back
Fore
SplineSet
1397.5 56.5 m 128,-1,1
 1312 -30 1312 -30 1190 -30 c 128,-1,2
 1068 -30 1068 -30 984 56 c 128,-1,3
 900 142 900 142 899 264 c 0,4,5
 899 386 899 386 984.5 472 c 128,-1,6
 1070 558 1070 558 1193 558 c 128,-1,7
 1316 558 1316 558 1399 473 c 128,-1,8
 1482 388 1482 388 1482.5 265.5 c 128,-1,0
 1483 143 1483 143 1397.5 56.5 c 128,-1,1
505 -30 m 1,9,-1
 413 -30 l 1,10,-1
 1105 1251 l 1,11,-1
 1196 1251 l 1,12,-1
 505 -30 l 1,9,-1
623.5 705.5 m 128,-1,14
 538 620 538 620 416 620 c 128,-1,15
 294 620 294 620 209.5 704.5 c 128,-1,16
 125 789 125 789 125 913 c 128,-1,17
 125 1037 125 1037 209.5 1121.5 c 128,-1,18
 294 1206 294 1206 417 1206 c 128,-1,19
 540 1206 540 1206 624.5 1120.5 c 128,-1,20
 709 1035 709 1035 709 913 c 128,-1,13
 709 791 709 791 623.5 705.5 c 128,-1,14
1328 401.5 m 128,-1,22
 1272 458 1272 458 1191 458 c 128,-1,23
 1110 458 1110 458 1055 402.5 c 128,-1,24
 1000 347 1000 347 1000 266 c 128,-1,25
 1000 185 1000 185 1055 129.5 c 128,-1,26
 1110 74 1110 74 1190 74 c 128,-1,27
 1270 74 1270 74 1327 129.5 c 128,-1,28
 1384 185 1384 185 1384 265 c 128,-1,21
 1384 345 1384 345 1328 401.5 c 128,-1,22
553 1050 m 128,-1,30
 498 1107 498 1107 417 1107 c 128,-1,31
 336 1107 336 1107 281 1050 c 128,-1,32
 226 993 226 993 226 913 c 128,-1,33
 226 833 226 833 281 778 c 128,-1,34
 336 723 336 723 417 723 c 128,-1,35
 498 723 498 723 553 778 c 128,-1,36
 608 833 608 833 608 913 c 128,-1,29
 608 993 608 993 553 1050 c 128,-1,30
EndSplineSet
EndChar

StartChar: ampersand
Encoding: 6 38 9
Width: 1216
GlyphClass: 2
Flags: W
LayerCount: 2
Back
Fore
SplineSet
264 1150 m 4,0,1
 281 1221 281 1221 326 1273 c 4,2,3
 430 1394 430 1394 585 1379 c 4,4,5
 704 1368 704 1368 783 1279 c 132,-1,6
 862 1190 862 1190 858 1064 c 4,7,8
 852 871 852 871 616 728 c 5,9,10
 753 552 753 552 846 431 c 5,11,12
 882 532 882 532 886 643 c 4,13,14
 887 671 887 671 907.5 691.5 c 132,-1,15
 928 712 928 712 956.5 712 c 132,-1,16
 985 712 985 712 1005.5 691.5 c 132,-1,17
 1026 671 1026 671 1026 655 c 4,18,19
 1026 469 1026 469 945 304 c 5,20,21
 1100 103 1100 103 1108 92.5 c 132,-1,22
 1116 82 1116 82 1116 55 c 132,-1,23
 1116 28 1116 28 1095.5 7.5 c 132,-1,24
 1075 -13 1075 -13 1043 -13 c 132,-1,25
 1011 -13 1011 -13 988.5 17 c 4,26,27
 912 119 912 119 864 179 c 5,28,29
 787 86 787 86 691 41 c 132,-1,30
 595 -4 595 -4 501.5 -5.5 c 132,-1,31
 408 -7 408 -7 323 32 c 132,-1,32
 238 71 238 71 179.5 145 c 132,-1,33
 121 219 121 219 105 313.5 c 132,-1,34
 89 408 89 408 127 509 c 4,35,36
 180 650 180 650 406 772 c 5,37,38
 401 779 401 779 379 806 c 132,-1,39
 357 833 357 833 329 871 c 4,40,41
 230 1008 230 1008 264 1150 c 4,0,1
678 1186 m 132,-1,43
 636 1234 636 1234 584 1238 c 4,44,45
 462 1249 462 1249 414 1153 c 4,46,47
 386 1097 386 1097 399.051896208 1044.29041916 c 132,-1,48
 412.103792415 991.580838323 412.103792415 991.580838323 530 840 c 5,49,50
 714 949 714 949 718 1075 c 4,51,42
 720 1138 720 1138 678 1186 c 132,-1,43
493 659 m 5,52,53
 409 614 409 614 368 584 c 4,54,55
 220 475 220 475 242 344.5 c 132,-1,56
 264 214 264 214 381.5 160 c 132,-1,57
 499 106 499 106 624 165 c 4,58,59
 714 207 714 207 776 293 c 5,60,61
 640 470 640 470 493 659 c 5,52,53
EndSplineSet
EndChar

StartChar: quotesingle
Encoding: 7 39 10
Width: 577
GlyphClass: 2
Flags: W
LayerCount: 2
Back
Fore
SplineSet
425 952 m 2,0,-1
 401 832 l 1,1,-1
 347 832 l 1,2,-1
 322 952 l 2,3,4
 301 1053 301 1053 301 1067 c 2,5,-1
 301 1262 l 1,6,-1
 448 1262 l 1,7,-1
 448 1067 l 1,8,9
 443 1039 443 1039 425 952 c 2,0,-1
EndSplineSet
EndChar

StartChar: parenleft
Encoding: 8 40 11
Width: 705
GlyphClass: 2
Flags: W
LayerCount: 2
Back
Fore
SplineSet
478 1218 m 0,0,1
 498 1235 498 1235 527 1235 c 128,-1,2
 556 1235 556 1235 578 1213 c 128,-1,3
 600 1191 600 1191 600 1157 c 128,-1,4
 600 1123 600 1123 570 1100 c 0,5,6
 422 984 422 984 336 807 c 128,-1,7
 250 630 250 630 250 441 c 128,-1,8
 250 252 250 252 337.5 74 c 128,-1,9
 425 -104 425 -104 575 -220 c 0,10,11
 606 -242 606 -242 606 -276.5 c 128,-1,12
 606 -311 606 -311 584 -333 c 128,-1,13
 562 -355 562 -355 533 -355 c 128,-1,14
 504 -355 504 -355 484 -338 c 0,15,16
 305 -200 305 -200 202.5 7.5 c 128,-1,17
 100 215 100 215 100 440.5 c 128,-1,18
 100 666 100 666 200.5 873 c 128,-1,19
 301 1080 301 1080 478 1218 c 0,0,1
EndSplineSet
EndChar

StartChar: asterisk
Encoding: 10 42 13
Width: 955
GlyphClass: 2
Flags: W
LayerCount: 2
Back
Fore
SplineSet
411.327148438 1362.03710938 m 2,0,1
 411.299804688 1362.98217773 411.299804688 1362.98217773 411.299804688 1377.56713852 c 128,-1,2
 411.299804688 1392.15209931 411.299804688 1392.15209931 431.628664654 1413.07604966 c 128,-1,3
 451.957524621 1434 451.957524621 1434 481.123255793 1434 c 128,-1,4
 510.288986964 1434 510.288986964 1434 530.801231763 1413.48795281 c 128,-1,5
 551.313476562 1392.97590561 551.313476562 1392.97590561 551.313476562 1363.99316406 c 0,6,-1
 554.745117188 1115.1875 l 1,7,-1
 847.196289062 1301.97460938 l 2,8,9
 864.720306038 1313.52148438 864.720306038 1313.52148438 889.705001652 1313.52148438 c 128,-1,10
 914.689697266 1313.52148438 914.689697266 1313.52148438 935.201782227 1293.00939941 c 128,-1,11
 955.713867188 1272.49731445 955.713867188 1272.49731445 955.713867188 1252.7116657 c 0,12,13
 955.713867188 1204.51523883 955.713867188 1204.51523883 922.553710938 1183.98828125 c 2,14,-1
 618.711914062 989.92578125 l 1,15,-1
 921.543945312 805.125 l 2,16,17
 955.969726562 784.808145492 955.969726562 784.808145492 955.969726562 750.329731926 c 128,-1,18
 955.969726562 715.851318359 955.969726562 715.851318359 935.457641602 695.339233398 c 128,-1,19
 914.945556641 674.827148438 914.945556641 674.827148438 890.337664072 674.827148438 c 128,-1,20
 865.729771503 674.827148438 865.729771503 674.827148438 848.616210938 685.62109375 c 2,21,-1
 558.225585938 862.830078125 l 1,22,-1
 562.551757812 549.099609375 l 2,23,24
 562.579101562 548.086067708 562.579101562 548.086067708 562.579101562 533.117618815 c 128,-1,25
 562.579101562 518.149169922 562.579101562 518.149169922 542.067016602 497.637084961 c 128,-1,26
 521.554931641 477.125 521.554931641 477.125 492.572265625 477.125 c 128,-1,27
 463.588942723 477.125 463.588942723 477.125 443.076697924 497.637047194 c 128,-1,28
 422.564453125 518.149094387 422.564453125 518.149094387 422.564453125 547.131835938 c 0,29,-1
 418.225585938 861.876953125 l 1,30,-1
 108.571289062 664.1015625 l 2,31,32
 91.0266060686 652.522460938 91.0266060686 652.522460938 66.0253879952 652.522460938 c 128,-1,33
 41.0241699219 652.522460938 41.0241699219 652.522460938 20.5120849609 673.034545898 c 128,-1,34
 0 693.546630859 0 693.546630859 0 727.558007742 c 128,-1,35
 0 761.569384625 0 761.569384625 33.2138671875 782.087890625 c 2,36,-1
 354.387695312 987.220703125 l 1,37,-1
 35.6435546875 1181.73046875 l 2,38,39
 1.255859375 1202.05384789 1.255859375 1202.05384789 1.255859375 1235.97791297 c 128,-1,40
 1.255859375 1269.90197805 1.255859375 1269.90197805 21.5235808982 1290.95391871 c 128,-1,41
 41.7913024214 1312.00585938 41.7913024214 1312.00585938 66.6294493698 1312.00585938 c 128,-1,42
 91.4675963182 1312.00585938 91.4675963182 1312.00585938 108.569335938 1301.23632812 c 2,43,-1
 414.743164062 1114.39648438 l 1,44,-1
 411.327148438 1362.03710938 l 2,0,1
EndSplineSet
EndChar

StartChar: plus
Encoding: 11 43 14
Width: 955
GlyphClass: 2
Flags: W
LayerCount: 2
Back
Fore
SplineSet
592 373 m 1,0,-1
 592 0 l 1,1,-1
 488 0 l 1,2,-1
 488 373 l 1,3,-1
 115 373 l 1,4,-1
 115 477 l 1,5,-1
 488 477 l 1,6,-1
 488 850 l 1,7,-1
 592 850 l 1,8,-1
 592 477 l 1,9,-1
 965 477 l 1,10,-1
 965 373 l 1,11,-1
 592 373 l 1,0,-1
EndSplineSet
EndChar

StartChar: comma
Encoding: 12 44 15
Width: 506
GlyphClass: 2
Flags: W
LayerCount: 2
Back
Fore
SplineSet
142 241 m 132,-1,1
 184 283 184 283 231 283 c 132,-1,2
 278 283 278 283 309 267 c 4,3,4
 452 191 452 191 385 -28 c 4,5,6
 335 -192 335 -192 211 -274 c 4,7,8
 193 -286 193 -286 168 -286.5 c 132,-1,9
 143 -287 143 -287 122.5 -266.5 c 132,-1,10
 102 -246 102 -246 102 -212.5 c 132,-1,11
 102 -179 102 -179 137 -155 c 4,12,13
 217 -102 217 -102 246 -5 c 5,14,15
 245 -5 245 -5 244 -5 c 4,16,17
 184 -5 184 -5 142 37 c 132,-1,18
 100 79 100 79 100 139 c 132,-1,0
 100 199 100 199 142 241 c 132,-1,1
EndSplineSet
EndChar

StartChar: hyphen
Encoding: 13 45 16
Width: 555
GlyphClass: 2
Flags: W
LayerCount: 2
Back
Fore
SplineSet
109 368 m 1,0,-1
 109 494 l 1,1,-1
 527 494 l 1,2,-1
 527 368 l 1,3,-1
 109 368 l 1,0,-1
EndSplineSet
EndChar

StartChar: period
Encoding: 14 46 17
Width: 489
GlyphClass: 2
Flags: W
LayerCount: 2
Back
Fore
SplineSet
100 135.5 m 128,-1,1
 100 193.19921875 100 193.19921875 142.366210938 234.099609375 c 128,-1,2
 184.733398438 275 184.733398438 275 244.5 275 c 128,-1,3
 304.266601562 275 304.266601562 275 346.633789062 234.099609375 c 128,-1,4
 389 193.19921875 389 193.19921875 389 135.5 c 128,-1,5
 389 77.80078125 389 77.80078125 346.633789062 36.900390625 c 128,-1,6
 304.266601562 -4 304.266601562 -4 244.5 -4 c 128,-1,7
 184.733398438 -4 184.733398438 -4 142.366210938 36.900390625 c 128,-1,0
 100 77.80078125 100 77.80078125 100 135.5 c 128,-1,1
EndSplineSet
EndChar

StartChar: slash
Encoding: 15 47 18
Width: 572
GlyphClass: 2
Flags: W
LayerCount: 2
Back
Fore
SplineSet
211 -30 m 1,0,-1
 74 -30 l 1,1,-1
 501 1286 l 1,2,-1
 638 1286 l 1,3,-1
 211 -30 l 1,0,-1
EndSplineSet
EndChar

StartChar: zero
Encoding: 16 48 19
Width: 1112
GlyphClass: 2
Flags: W
LayerCount: 2
Back
Fore
SplineSet
350 1211 m 0,0,1
 450 1276 450 1276 568 1273 c 128,-1,2
 686 1270 686 1270 781 1202 c 0,3,4
 1020 1032 1020 1032 1013 630 c 128,-1,5
 1006 228 1006 228 773 72 c 0,6,7
 672 4 672 4 557 3.5 c 128,-1,8
 442 3 442 3 346 67 c 0,9,10
 103 229 103 229 99.5 637 c 128,-1,11
 96 1045 96 1045 350 1211 c 0,0,1
699 1077 m 0,12,13
 637 1121 637 1121 565 1123 c 128,-1,14
 493 1125 493 1125 428 1082 c 0,15,16
 247 964 247 964 250 636 c 128,-1,17
 253 308 253 308 423 196 c 0,18,19
 556 107 556 107 689 196 c 0,20,21
 857 309 857 309 863 632.5 c 128,-1,22
 869 956 869 956 699 1077 c 0,12,13
EndSplineSet
EndChar

StartChar: one
Encoding: 17 49 20
Width: 771
GlyphClass: 2
Flags: W
LayerCount: 2
Back
Fore
SplineSet
320 1033 m 1,0,1
 241 968 241 968 164 968 c 0,2,3
 145 968 145 968 122.5 990 c 128,-1,4
 100 1012 100 1012 100 1040.5 c 128,-1,5
 100 1069 100 1069 118.5 1091 c 128,-1,6
 137 1113 137 1113 158 1116.5 c 128,-1,7
 179 1120 179 1120 199 1133 c 0,8,9
 274 1179 274 1179 330 1285 c 0,10,11
 337 1298 337 1298 356 1310 c 128,-1,12
 375 1322 375 1322 400.5 1322 c 128,-1,13
 426 1322 426 1322 448 1300 c 128,-1,14
 470 1278 470 1278 470 1247 c 2,15,-1
 469 143 l 1,16,17
 541 143 541 143 613 143 c 0,18,19
 628 143 628 143 648.5 122.5 c 128,-1,20
 669 102 669 102 669 73 c 128,-1,21
 669 44 669 44 648.5 23.5 c 128,-1,22
 628 3 628 3 621 3 c 2,23,24
 153 3 l 2,25,26
 138 3 138 3 117.5 23.5 c 128,-1,27
 97 44 97 44 97 73 c 128,-1,28
 97 102 97 102 117.5 122.5 c 128,-1,29
 138 143 138 143 153 143 c 0,30,31
 236 143 236 143 319 143 c 1,32,-1
 320 1033 l 1,0,1
EndSplineSet
EndChar

StartChar: two
Encoding: 18 50 21
Width: 1071
GlyphClass: 2
Flags: W
LayerCount: 2
Back
Fore
SplineSet
175 0 m 2,0,1
 132 0 132 0 110 37 c 0,2,3
 100 54 100 54 100 82 c 128,-1,4
 100 110 100 110 127 132 c 0,5,6
 319 293 319 293 447.5 425.5 c 128,-1,7
 576 558 576 558 635 631 c 0,8,9
 882 939 882 939 710 1094 c 0,10,11
 613 1181 613 1181 471 1157 c 0,12,13
 409 1147 409 1147 360 1116 c 0,14,15
 280 1065 280 1065 245 976 c 0,16,17
 238 956 238 956 217.5 941.5 c 128,-1,18
 197 927 197 927 170.5 927 c 128,-1,19
 144 927 144 927 122 949 c 128,-1,20
 100 971 100 971 100 994 c 128,-1,21
 100 1017 100 1017 105 1030 c 0,22,23
 157 1165 157 1165 279 1242 c 0,24,25
 439 1344 439 1344 624 1300 c 0,26,27
 732 1275 732 1275 814.5 1201 c 128,-1,28
 897 1127 897 1127 917.5 1034.5 c 128,-1,29
 938 942 938 942 921 865 c 128,-1,30
 904 788 904 788 862 705 c 0,31,32
 756 496 756 496 375 150 c 1,33,34
 906 150 l 2,35,36
 917 150 917 150 934 140 c 0,37,38
 971 118 971 118 971 81 c 128,-1,39
 971 44 971 44 949 22 c 128,-1,40
 927 0 927 0 896 0 c 2,41,42
 175 0 l 2,0,1
EndSplineSet
EndChar

StartChar: three
Encoding: 19 51 22
Width: 1048
GlyphClass: 2
Flags: W
LayerCount: 2
Back
Fore
SplineSet
137 1102 m 0,0,1
 289 1295 289 1295 554 1305 c 0,2,3
 690 1310 690 1310 801 1229 c 0,4,5
 941 1126 941 1126 932 954 c 0,6,7
 927 864 927 864 857 781 c 0,8,9
 820 738 820 738 769 706 c 1,10,11
 857 647 857 647 910 547.5 c 128,-1,12
 963 448 963 448 944 333 c 128,-1,13
 925 218 925 218 845.5 137.5 c 128,-1,14
 766 57 766 57 639.5 16.5 c 128,-1,15
 513 -24 513 -24 367 16 c 128,-1,16
 221 56 221 56 120 169 c 0,17,18
 100 191 100 191 100 221 c 128,-1,19
 100 251 100 251 122 273 c 128,-1,20
 144 295 144 295 176.5 295 c 128,-1,21
 209 295 209 295 232 269 c 0,22,23
 303 189 303 189 406 161 c 128,-1,24
 509 133 509 133 597 161 c 0,25,26
 772 217 772 217 795 354 c 0,27,28
 806 422 806 422 772 486.5 c 128,-1,29
 738 551 738 551 676 587.5 c 128,-1,30
 614 624 614 624 547 632 c 1,31,32
 389 619 389 619 389 701 c 0,33,34
 389 734 389 734 408 756 c 0,35,36
 439 792 439 792 547 783 c 1,37,38
 675 799 675 799 743.5 879 c 128,-1,39
 812 959 812 959 766 1046 c 0,40,41
 747 1082 747 1082 712 1108 c 0,42,43
 643 1159 643 1159 551 1155 c 0,44,45
 364 1148 364 1148 255 1010 c 0,46,47
 232 980 232 980 198 980 c 128,-1,48
 164 980 164 980 142 1002 c 128,-1,49
 120 1024 120 1024 120 1052.5 c 128,-1,50
 120 1081 120 1081 137 1102 c 0,0,1
EndSplineSet
EndChar

StartChar: four
Encoding: 20 52 23
Width: 1266
GlyphClass: 2
Flags: W
LayerCount: 2
Back
Fore
SplineSet
793 1 m 128,-1,1
 762 1 762 1 740 23 c 128,-1,2
 718 45 718 45 718 76 c 2,3,4
 718 77 l 1,5,-1
 717 323 l 1,6,-1
 175 325 l 2,7,8
 144 325 144 325 122 347 c 128,-1,9
 100 369 100 369 100 397 c 128,-1,10
 100 425 100 425 115 445 c 2,11,-1
 730 1253 l 2,12,13
 753 1283 753 1283 786.5 1283 c 128,-1,14
 820 1283 820 1283 842 1261 c 128,-1,15
 864 1239 864 1239 864 1208 c 2,16,-1
 867 473 l 1,17,-1
 1091 472 l 1,18,19
 1092 472 l 2,20,21
 1123 472 1123 472 1145 450 c 128,-1,22
 1167 428 1167 428 1167 397 c 128,-1,23
 1167 366 1167 366 1145 344 c 128,-1,24
 1123 322 1123 322 1092 322 c 0,25,26
 1091 322 1091 322 1090 322 c 2,27,-1
 867 323 l 1,28,-1
 868 77 l 1,29,30
 868 76 l 2,31,32
 868 45 868 45 846 23 c 128,-1,0
 824 1 824 1 793 1 c 128,-1,1
717 473 m 1,33,-1
 715 986 l 1,34,-1
 326 475 l 1,35,-1
 717 473 l 1,33,-1
EndSplineSet
EndChar

StartChar: five
Encoding: 21 53 24
Width: 1087
GlyphClass: 2
Flags: W
LayerCount: 2
Back
Fore
SplineSet
319 1353 m 2,0,1
 896 1353 l 2,2,3
 927 1353 927 1353 949 1331 c 128,-1,4
 971 1309 971 1309 971 1278 c 128,-1,5
 971 1247 971 1247 949 1225 c 128,-1,6
 927 1203 927 1203 896 1203 c 2,7,8
 383 1203 l 1,9,-1
 329 879 l 1,10,11
 515 970 515 970 703 902 c 0,12,13
 832 855 832 855 910.5 743 c 128,-1,14
 989 631 989 631 987.5 491 c 128,-1,15
 986 351 986 351 920 245 c 0,16,17
 787 32 787 32 569 4 c 0,18,19
 416 -15 416 -15 285 66.5 c 128,-1,20
 154 148 154 148 104 294 c 0,21,22
 100 306 100 306 100 328 c 128,-1,23
 100 350 100 350 122 372 c 128,-1,24
 144 394 144 394 171 394 c 128,-1,25
 198 394 198 394 218.5 379 c 128,-1,26
 239 364 239 364 247 342 c 0,27,28
 278 248 278 248 364 194 c 0,29,30
 497 111 497 111 640 180 c 0,31,32
 730 224 730 224 783 309 c 128,-1,33
 836 394 836 394 837.5 489 c 128,-1,34
 839 584 839 584 787.5 657 c 128,-1,35
 736 730 736 730 652 760 c 0,36,37
 528 805 528 805 404 749 c 0,38,39
 331 715 331 715 281 655 c 0,40,41
 258 628 258 628 225 627.5 c 128,-1,42
 192 627 192 627 170 649 c 128,-1,43
 148 671 148 671 148 690 c 128,-1,44
 148 709 148 709 149 715 c 2,45,-1
 245 1291 l 2,46,47
 249 1317 249 1317 271 1335 c 128,-1,48
 293 1353 293 1353 319 1353 c 2,0,1
EndSplineSet
EndChar

StartChar: six
Encoding: 22 54 25
Width: 1131
GlyphClass: 2
Flags: W
LayerCount: 2
Back
Fore
SplineSet
835 57 m 1,0,1
 676 -50 676 -50 487 0 c 128,-1,2
 298 50 298 50 194 227 c 128,-1,3
 90 404 90 404 101 663 c 0,4,5
 114 1015 114 1015 309 1187 c 0,6,7
 412 1283 412 1283 551.5 1304.5 c 128,-1,8
 691 1326 691 1326 804.5 1266 c 128,-1,9
 918 1206 918 1206 979 1112 c 0,10,11
 992 1093 992 1093 992 1066 c 128,-1,12
 992 1039 992 1039 970 1017 c 128,-1,13
 948 995 948 995 927 995 c 0,14,15
 876 995 876 995 853 1031 c 0,16,17
 813 1093 813 1093 748 1127 c 1,18,19
 747 1127 l 1,20,21
 668 1169 668 1169 570 1154 c 128,-1,22
 472 1139 472 1139 409 1076 c 1,23,24
 271 953 271 953 253 688 c 1,25,26
 335 786 335 786 453 824 c 1,27,28
 603 880 603 880 769 811 c 0,29,30
 842 781 842 781 901.5 722.5 c 128,-1,31
 961 664 961 664 993 592 c 0,32,33
 1058 445 1058 445 1012.5 292.5 c 128,-1,34
 967 140 967 140 835 57 c 1,0,1
307 337 m 1,35,36
 399 143 399 143 592 138 c 0,37,38
 684 136 684 136 752 182 c 0,39,40
 753 183 753 183 755 183 c 0,41,42
 836 234 836 234 866.5 337 c 128,-1,43
 897 440 897 440 856 526 c 0,44,45
 855 527 855 527 855 529 c 0,46,47
 814 627 814 627 704.5 672 c 128,-1,48
 595 717 595 717 502 682 c 0,49,50
 501 681 501 681 499 681 c 0,51,52
 435 661 435 661 385.5 609 c 128,-1,53
 336 557 336 557 314 488.5 c 128,-1,54
 292 420 292 420 305 354 c 0,55,56
 307 346 307 346 307 342 c 2,57,-1
 307 337 l 1,35,36
EndSplineSet
EndChar

StartChar: seven
Encoding: 23 55 26
Width: 1137
GlyphClass: 2
Flags: W
LayerCount: 2
Back
Fore
SplineSet
459 57 m 1,0,1
 438 0 438 0 396.5 0 c 128,-1,2
 355 0 355 0 333 22 c 128,-1,3
 311 44 311 44 311 64.5 c 128,-1,4
 311 85 311 85 313 95 c 0,5,6
 464 673 464 673 812 1159 c 1,7,8
 175 1159 l 2,9,10
 144 1159 144 1159 122 1181 c 128,-1,11
 100 1203 100 1203 100 1234 c 128,-1,12
 100 1265 100 1265 122 1287 c 128,-1,13
 144 1309 144 1309 175 1309 c 2,14,15
 962 1309 l 2,16,17
 993 1309 993 1309 1015 1287 c 128,-1,18
 1037 1265 1037 1265 1037 1236.5 c 128,-1,19
 1037 1208 1037 1208 1021 1188 c 0,20,21
 621 682 621 682 459 57 c 1,0,1
EndSplineSet
EndChar

StartChar: eight
Encoding: 24 56 27
Width: 1050
GlyphClass: 2
Flags: W
LayerCount: 2
Back
Fore
SplineSet
265 1232 m 0,0,1
 379 1331 379 1331 533 1326.5 c 128,-1,2
 687 1322 687 1322 798.5 1219 c 128,-1,3
 910 1116 910 1116 907 954.5 c 128,-1,4
 904 793 904 793 760 689 c 1,5,6
 864 628 864 628 907.5 539 c 128,-1,7
 951 450 951 450 949.5 369 c 128,-1,8
 948 288 948 288 909.5 216 c 128,-1,9
 871 144 871 144 807 94 c 0,10,11
 689 1 689 1 524.5 1 c 128,-1,12
 360 1 360 1 231 102.5 c 128,-1,13
 102 204 102 204 99 372 c 0,14,15
 98 455 98 455 143 543.5 c 128,-1,16
 188 632 188 632 288 690 c 1,17,18
 215 743 215 743 179.5 817 c 128,-1,19
 144 891 144 891 142.5 966.5 c 128,-1,20
 141 1042 141 1042 174 1112 c 128,-1,21
 207 1182 207 1182 265 1232 c 0,0,1
525 1176.5 m 128,-1,23
 428 1175 428 1175 359.5 1116 c 128,-1,24
 291 1057 291 1057 292.5 969.5 c 128,-1,25
 294 882 294 882 362 823 c 128,-1,26
 430 764 430 764 525 764.5 c 128,-1,27
 620 765 620 765 688 823 c 128,-1,28
 756 881 756 881 757.5 966.5 c 128,-1,29
 759 1052 759 1052 690.5 1115 c 128,-1,22
 622 1178 622 1178 525 1176.5 c 128,-1,23
720 534 m 0,30,31
 639 602 639 602 524 600.5 c 128,-1,32
 409 599 409 599 328 535.5 c 128,-1,33
 247 472 247 472 249 374.5 c 0,34,35
 251 277 251 277 331.5 214 c 128,-1,36
 412 151 412 151 524.5 151 c 128,-1,37
 637 151 637 151 715 212 c 0,38,39
 753 241 753 241 776 285 c 0,40,41
 823 372 823 372 779 460 c 0,42,43
 758 502 758 502 720 534 c 0,30,31
EndSplineSet
EndChar

StartChar: semicolon
Encoding: 27 59 30
Width: 425
GlyphClass: 2
Flags: W
LayerCount: 2
Back
Fore
SplineSet
100 740.5 m 132,-1,1
 100 798.19921875 100 798.19921875 142.366210938 839.099609375 c 132,-1,2
 184.733398438 880 184.733398438 880 244.5 880 c 132,-1,3
 304.266601562 880 304.266601562 880 346.633789062 839.099609375 c 132,-1,4
 389 798.19921875 389 798.19921875 389 740.5 c 132,-1,5
 389 682.80078125 389 682.80078125 346.633789062 641.900390625 c 132,-1,6
 304.266601562 601 304.266601562 601 244.5 601 c 132,-1,7
 184.733398438 601 184.733398438 601 142.366210938 641.900390625 c 132,-1,0
 100 682.80078125 100 682.80078125 100 740.5 c 132,-1,1
132 241 m 128,-1,9
 174 283 174 283 221 283 c 128,-1,10
 268 283 268 283 299 267 c 0,11,12
 442 191 442 191 375 -28 c 0,13,14
 325 -192 325 -192 201 -274 c 0,15,16
 183 -286 183 -286 158 -286.5 c 128,-1,17
 133 -287 133 -287 112.5 -266.5 c 128,-1,18
 92 -246 92 -246 92 -212.5 c 128,-1,19
 92 -179 92 -179 127 -155 c 0,20,21
 207 -102 207 -102 236 -5 c 1,22,23
 235 -5 235 -5 234 -5 c 0,24,25
 174 -5 174 -5 132 37 c 128,-1,26
 90 79 90 79 90 139 c 128,-1,8
 90 199 90 199 132 241 c 128,-1,9
EndSplineSet
EndChar

StartChar: less
Encoding: 28 60 31
Width: 944
GlyphClass: 2
Flags: W
LayerCount: 2
Back
Fore
SplineSet
86 412 m 1,0,-1
 86 522 l 1,1,-1
 947 886 l 1,2,-1
 947 768 l 1,3,-1
 217 468 l 1,4,-1
 947 166 l 1,5,-1
 947 48 l 1,6,-1
 86 412 l 1,0,-1
EndSplineSet
EndChar

StartChar: equal
Encoding: 29 61 32
Width: 1109
GlyphClass: 2
Flags: W
LayerCount: 2
Back
Fore
SplineSet
171 450 m 5,0,-1
 939 450 l 5,1,2
 954 451 l 6,3,4
 969 451 969 451 989.5 430 c 132,-1,5
 1010 409 1010 409 1010 380.5 c 132,-1,6
 1010 352 1010 352 989.5 331 c 132,-1,7
 969 310 969 310 954 310 c 4,8,9
 555 310 555 310 156 310 c 4,10,11
 141 310 141 310 120.5 331 c 132,-1,12
 100 352 100 352 100 380.5 c 132,-1,13
 100 409 100 409 120 430 c 132,-1,14
 140 451 140 451 148 451 c 6,15,-1
 171 450 l 5,0,-1
171 771 m 5,16,-1
 939 771 l 5,17,18
 939 770 939 770 954 771 c 132,-1,19
 969 772 969 772 989.5 751 c 132,-1,20
 1010 730 1010 730 1010 701.5 c 132,-1,21
 1010 673 1010 673 989.5 652 c 132,-1,22
 969 631 969 631 954 631 c 4,23,24
 555 631 555 631 156 631 c 4,25,26
 141 631 141 631 120.5 652 c 132,-1,27
 100 673 100 673 100 701.5 c 132,-1,28
 100 730 100 730 120.5 751 c 132,-1,29
 141 772 141 772 156 772 c 132,-1,30
 171 772 171 772 171 771 c 5,16,-1
EndSplineSet
EndChar

StartChar: greater
Encoding: 30 62 33
Width: 969
GlyphClass: 2
Flags: W
LayerCount: 2
Back
Fore
SplineSet
115 48 m 1,0,-1
 115 166 l 1,1,-1
 842 463 l 1,2,-1
 115 768 l 1,3,-1
 115 886 l 1,4,-1
 971 522 l 1,5,-1
 971 412 l 1,6,-1
 115 48 l 1,0,-1
EndSplineSet
EndChar

StartChar: question
Encoding: 31 63 34
Width: 939
GlyphClass: 2
Flags: W
LayerCount: 2
Back
Fore
SplineSet
601 585 m 2,0,1
 547 533 547 533 547 454 c 2,2,-1
 547 374 l 1,3,-1
 407 374 l 1,4,-1
 407 460 l 2,5,6
 407 569 407 569 521 679 c 2,7,-1
 643 797 l 2,8,9
 732 884 732 884 732 988 c 128,-1,10
 732 1092 732 1092 663 1147 c 128,-1,11
 594 1202 594 1202 488 1202 c 0,12,13
 247 1202 247 1202 242 925 c 1,14,-1
 113 925 l 1,15,16
 118 1320 118 1320 498 1320 c 0,17,18
 662 1320 662 1320 766.5 1234 c 128,-1,19
 871 1148 871 1148 871 998 c 128,-1,20
 871 848 871 848 779 758 c 2,21,-1
 601 585 l 2,0,1
407 18 m 1,22,-1
 407 180 l 1,23,-1
 547 180 l 1,24,-1
 547 18 l 1,25,-1
 407 18 l 1,22,-1
EndSplineSet
EndChar

StartChar: at
Encoding: 32 64 35
Width: 1784
GlyphClass: 2
Flags: W
LayerCount: 2
Back
Fore
SplineSet
1102 800 m 1,0,-1
 1102 811 l 2,1,2
 1102 842 1102 842 1124 864 c 128,-1,3
 1146 886 1146 886 1177 886 c 128,-1,4
 1208 886 1208 886 1230 864 c 128,-1,5
 1252 842 1252 842 1252 811 c 2,6,-1
 1252 810 l 1,7,-1
 1255 494 l 2,8,9
 1255 487 1255 487 1255 480 c 2,10,11
 1252 321 l 1,12,13
 1264 262 1264 262 1325 235 c 128,-1,14
 1386 208 1386 208 1449 254 c 0,15,16
 1552 330 1552 330 1530 525 c 0,17,18
 1516 649 1516 649 1455 762 c 128,-1,19
 1394 875 1394 875 1298 954 c 0,20,21
 972 1223 972 1223 593.5 1029.5 c 0,22,23
 215 836 215 836 252.5 406 c 0,24,25
 279 105 279 105 539.5 -61 c 0,26,27
 800 -227 800 -227 1097 -120 c 0,28,29
 1209 -80 1209 -80 1209 -176 c 0,30,31
 1209 -239 1209 -239 1149 -261 c 0,32,33
 788 -396 788 -396 461 -189 c 0,34,35
 134 18 134 18 103 391 c 0,36,37
 59 925 59 925 545 1174 c 0,38,39
 990 1402 990 1402 1394 1069 c 0,40,41
 1513 971 1513 971 1587.5 833 c 128,-1,42
 1662 695 1662 695 1680 535 c 128,-1,43
 1698 375 1698 375 1639 256 c 0,44,45
 1602 181 1602 181 1534.5 131 c 128,-1,46
 1467 81 1467 81 1393 77 c 0,47,48
 1225 67 1225 67 1140 201 c 1,49,50
 1078 138 1078 138 997.5 108 c 128,-1,51
 917 78 917 78 838 84 c 0,52,53
 680 95 680 95 575 207.5 c 128,-1,54
 470 320 470 320 466 479.5 c 128,-1,55
 462 639 462 639 575.5 760.5 c 128,-1,56
 689 882 689 882 841 884 c 128,-1,57
 993 886 993 886 1102 800 c 1,0,-1
616 477 m 0,58,59
 619 334 619 334 741 265 c 0,60,61
 839 209 839 209 940.5 247 c 128,-1,62
 1042 285 1042 285 1084 383 c 0,63,64
 1104 431 1104 431 1105 480 c 1,65,66
 1104 589 1104 589 1031.5 662 c 128,-1,67
 959 735 959 735 857 734 c 128,-1,68
 755 733 755 733 684 657 c 128,-1,69
 613 581 613 581 616 477 c 0,58,59
EndSplineSet
EndChar

StartChar: braceleft
Encoding: 85 123 36
Width: 947
GlyphClass: 2
Flags: W
LayerCount: 2
Back
Fore
SplineSet
278 950 m 4,0,1
 209 1263 209 1263 414 1388 c 4,2,3
 508 1445 508 1445 625.5 1431 c 132,-1,4
 743 1417 743 1417 824 1320 c 4,5,6
 841 1300 841 1300 841 1272.5 c 132,-1,7
 841 1245 841 1245 820.5 1224.5 c 132,-1,8
 800 1204 800 1204 769 1204 c 132,-1,9
 738 1204 738 1204 717 1230 c 4,10,11
 671 1284 671 1284 605 1292 c 132,-1,12
 539 1300 539 1300 487 1268 c 4,13,14
 385 1206 385 1206 402 1052 c 4,15,16
 405 1022 405 1022 430.5 907.5 c 132,-1,17
 456 793 456 793 452 695 c 132,-1,18
 448 597 448 597 376 518 c 5,19,20
 516 404 516 404 471 159 c 4,21,22
 465 127 465 127 442 32 c 4,23,24
 384 -214 384 -214 534 -299 c 4,25,26
 582 -326 582 -326 637 -324.5 c 132,-1,27
 692 -323 692 -323 723.5 -301.5 c 132,-1,28
 755 -280 755 -280 780.5 -280 c 132,-1,29
 806 -280 806 -280 826.5 -300.5 c 132,-1,30
 847 -321 847 -321 847 -354.5 c 132,-1,31
 847 -388 847 -388 815 -409 c 4,32,33
 736 -461 736 -461 641.5 -464.5 c 132,-1,34
 547 -468 547 -468 467 -422 c 132,-1,35
 387 -376 387 -376 340.5 -299.5 c 132,-1,36
 294 -223 294 -223 287.5 -151 c 132,-1,37
 281 -79 281 -79 288 -25 c 132,-1,38
 295 29 295 29 312 96 c 132,-1,39
 329 163 329 163 338 211 c 132,-1,40
 347 259 347 259 338 315 c 132,-1,41
 329 371 329 371 297.5 400.5 c 132,-1,42
 266 430 266 430 224 434 c 5,43,44
 149 421 149 421 124.5 446.5 c 132,-1,45
 100 472 100 472 100 497.5 c 132,-1,46
 100 523 100 523 120.5 549 c 132,-1,47
 141 575 141 575 212 576 c 5,48,49
 353 618 353 618 296 870 c 4,50,51
 294 880 294 880 287.5 907 c 132,-1,52
 281 934 281 934 278 950 c 4,0,1
EndSplineSet
EndChar

StartChar: bar
Encoding: 86 124 37
Width: 350
GlyphClass: 2
Flags: W
LayerCount: 2
Back
Fore
SplineSet
186 -370 m 4,0,1
 100 -370 100 -370 100 -294 c 6,2,-1
 100 1211 l 6,3,4
 100 1242 100 1242 121.5 1264 c 132,-1,5
 143 1286 143 1286 174 1286 c 6,6,-1
 175 1286 l 6,7,8
 206 1286 206 1286 228 1264 c 132,-1,9
 250 1242 250 1242 250 1210 c 6,10,-1
 250 -295 l 6,11,12
 250 -326 250 -326 228 -348 c 132,-1,13
 206 -370 206 -370 186 -370 c 4,0,1
EndSplineSet
EndChar

StartChar: asciitilde
Encoding: 88 126 39
Width: 910
GlyphClass: 2
Flags: W
LayerCount: 2
Back
Fore
SplineSet
882 933 m 2,0,1
 882 704 882 704 707 704 c 0,2,3
 623 704 623 704 540 763 c 2,4,-1
 395 866 l 2,5,6
 348 899 348 899 304 899 c 0,7,8
 209 899 209 899 196 751 c 1,9,-1
 123 751 l 1,10,11
 139 1002 139 1002 306 1002 c 0,12,13
 355 1002 355 1002 397 975 c 2,14,-1
 609 839 l 2,15,16
 659 807 659 807 705 807 c 0,17,18
 805 807 805 807 808 950 c 1,19,-1
 882 950 l 1,20,-1
 882 933 l 2,0,1
EndSplineSet
EndChar

StartChar: anuswara
Encoding: 90 3330 41
Width: 793
GlyphClass: 2
Flags: W
LayerCount: 2
Back
Fore
SplineSet
724.5 323.5 m 128,-1,1
 744 217 744 217 675 123.5 c 128,-1,2
 606 30 606 30 457 9 c 0,3,4
 321 -10 321 -10 222 65 c 0,5,6
 129 138 129 138 106 250.5 c 128,-1,7
 83 363 83 363 151.5 457 c 128,-1,8
 220 551 220 551 371 568 c 128,-1,9
 522 585 522 585 613.5 507.5 c 128,-1,0
 705 430 705 430 724.5 323.5 c 128,-1,1
622.5 161.5 m 128,-1,11
 675 233 675 233 660 314.5 c 128,-1,12
 645 396 645 396 575.5 457 c 128,-1,13
 506 518 506 518 380.5 504 c 128,-1,14
 255 490 255 490 203.5 419 c 128,-1,15
 152 348 152 348 170 260 c 0,16,17
 188 174 188 174 259 118 c 0,18,19
 335 57 335 57 452.5 73.5 c 128,-1,10
 570 90 570 90 622.5 161.5 c 128,-1,11
EndSplineSet
EndChar

StartChar: ml_a
Encoding: 92 3333 43
Width: 2791
GlyphClass: 2
Flags: W
LayerCount: 2
Back
Fore
SplineSet
665 1037 m 0,0,1
 795 1046 795 1046 916 994 c 1,2,3
 1075 1055 1075 1055 1239 1023 c 0,4,5
 1453 982 1453 982 1561 812 c 0,6,7
 1588 769 1588 769 1607 719 c 1,8,9
 1637 804 1637 804 1704 879.5 c 128,-1,10
 1771 955 1771 955 1880.5 992.5 c 128,-1,11
 1990 1030 1990 1030 2108 1020 c 0,12,13
 2352 1000 2352 1000 2516 838 c 0,14,15
 2598 757 2598 757 2644.5 651 c 128,-1,16
 2691 545 2691 545 2691 446 c 0,17,18
 2692 251 2692 251 2587 123 c 0,19,20
 2532 56 2532 56 2454.5 17 c 128,-1,21
 2377 -22 2377 -22 2290 -21 c 128,-1,22
 2203 -20 2203 -20 2125 23 c 128,-1,23
 2047 66 2047 66 1998.5 140 c 128,-1,24
 1950 214 1950 214 1939.5 303.5 c 128,-1,25
 1929 393 1929 393 1962.5 489.5 c 128,-1,26
 1996 586 1996 586 2090 656.5 c 128,-1,27
 2184 727 2184 727 2282 730 c 0,28,29
 2471 736 2471 736 2586 608 c 1,30,31
 2519 776 2519 776 2362 870 c 0,32,33
 2244 940 2244 940 2122 949 c 0,34,35
 1877 969 1877 969 1746 821 c 0,36,37
 1682 748 1682 748 1663.5 667.5 c 128,-1,38
 1645 587 1645 587 1644 529 c 128,-1,39
 1643 471 1643 471 1644 440 c 2,40,-1
 1644 29 l 1,41,-1
 1644 29 l 2,42,43
 1644 15 1644 15 1633.5 4.5 c 128,-1,44
 1623 -6 1623 -6 1609 -6 c 128,-1,45
 1595 -6 1595 -6 1584.5 4 c 128,-1,46
 1574 14 1574 14 1574 28 c 2,47,-1
 1572 439 l 2,48,49
 1571 565 1571 565 1558.5 635.5 c 128,-1,50
 1546 706 1546 706 1501 776 c 0,51,52
 1410 918 1410 918 1226 954 c 0,53,54
 1115 975 1115 975 1001 947 c 1,55,56
 1069 900 1069 900 1122.5 822.5 c 128,-1,57
 1176 745 1176 745 1170 659 c 0,58,59
 1164 562 1164 562 1092 501 c 1,60,61
 1200 455 1200 455 1232 342 c 0,62,63
 1265 227 1265 227 1197 129 c 0,64,65
 1167 86 1167 86 1124 56 c 0,66,67
 1040 -1 1040 -1 941 3 c 0,68,69
 747 10 747 10 632 169 c 0,70,71
 530 309 530 309 545 498 c 0,72,73
 554 621 554 621 615 731 c 0,74,75
 692 871 692 871 827 951 c 1,76,77
 646 999 646 999 466 917 c 0,78,79
 275 830 275 830 201 639 c 0,80,81
 165 545 165 545 170.5 430.5 c 128,-1,82
 176 316 176 316 252 208 c 128,-1,83
 328 100 328 100 450 49 c 0,84,85
 472 40 472 40 472 21 c 128,-1,86
 472 2 472 2 462 -8 c 128,-1,87
 452 -18 452 -18 441 -18 c 128,-1,88
 430 -18 430 -18 423 -15 c 0,89,90
 282 44 282 44 194.5 168.5 c 128,-1,91
 107 293 107 293 101 425 c 0,92,93
 88 679 88 679 251.5 849 c 128,-1,94
 415 1019 415 1019 665 1037 c 0,0,1
914 917 m 1,95,96
 760 848 760 848 677 698 c 0,97,98
 566 497 566 497 643 296 c 0,99,100
 690 173 690 173 797 113 c 0,101,102
 862 76 862 76 940.5 73 c 128,-1,103
 1019 70 1019 70 1084 114 c 0,104,105
 1153 161 1153 161 1169 237 c 0,106,107
 1178 279 1178 279 1165 322.5 c 128,-1,108
 1152 366 1152 366 1124 395 c 0,109,110
 1066 455 1066 455 983 451 c 0,111,112
 967 449 967 449 955 448.5 c 128,-1,113
 943 448 943 448 933 458.5 c 128,-1,114
 923 469 923 469 923 482 c 0,115,116
 923 513 923 513 952 518 c 0,117,118
 962 520 962 520 992 524.5 c 128,-1,119
 1022 529 1022 529 1059.5 566 c 128,-1,120
 1097 603 1097 603 1100.5 664.5 c 128,-1,121
 1104 726 1104 726 1053.5 798.5 c 128,-1,122
 1003 871 1003 871 914 917 c 1,95,96
2305.5 661 m 128,-1,124
 2208 658 2208 658 2132 600.5 c 128,-1,125
 2056 543 2056 543 2028 464 c 0,126,127
 1973 306 1973 306 2056 180 c 0,128,129
 2096 120 2096 120 2158.5 85 c 128,-1,130
 2221 50 2221 50 2290.5 49.5 c 128,-1,131
 2360 49 2360 49 2424 81 c 0,132,133
 2540 138 2540 138 2591 265 c 0,134,135
 2591 266 2591 266 2591 267 c 0,136,137
 2615 334 2615 334 2604 408 c 0,138,139
 2586 531 2586 531 2494.5 597.5 c 128,-1,123
 2403 664 2403 664 2305.5 661 c 128,-1,124
EndSplineSet
EndChar

StartChar: ml_aa
Encoding: 93 3334 44
Width: 3023
GlyphClass: 2
Flags: W
LayerCount: 2
Back
Fore
SplineSet
663 1025 m 0,0,1
 792 1034 792 1034 913 982 c 1,2,3
 1071 1042 1071 1042 1235 1010 c 0,4,5
 1448 969 1448 969 1556 801 c 0,6,7
 1583 759 1583 759 1601 708 c 1,8,9
 1631 792 1631 792 1698 868 c 128,-1,10
 1765 944 1765 944 1874 981 c 128,-1,11
 1983 1018 1983 1018 2101 1008 c 0,12,13
 2344 988 2344 988 2508 828 c 0,14,15
 2590 748 2590 748 2635 642 c 1,16,17
 2731 590 2731 590 2811.5 491.5 c 128,-1,18
 2892 393 2892 393 2915.5 248.5 c 128,-1,19
 2939 104 2939 104 2888 -34 c 0,20,21
 2823 -210 2823 -210 2661 -312 c 0,22,23
 2583 -361 2583 -361 2471 -386.5 c 128,-1,24
 2359 -412 2359 -412 2222.5 -374.5 c 128,-1,25
 2086 -337 2086 -337 1986 -242 c 0,26,27
 1975 -232 1975 -232 1975 -217 c 128,-1,28
 1975 -202 1975 -202 1985.5 -192 c 128,-1,29
 1996 -182 1996 -182 2010 -182 c 128,-1,30
 2024 -182 2024 -182 2035 -192 c 0,31,32
 2153 -305 2153 -305 2320 -322 c 0,33,34
 2529 -344 2529 -344 2688 -204 c 0,35,36
 2782 -121 2782 -121 2824.5 -5.5 c 128,-1,37
 2867 110 2867 110 2846 237 c 0,38,39
 2816 421 2816 421 2669 536 c 1,40,41
 2700 393 2700 393 2655 258 c 0,42,43
 2598 88 2598 88 2445 11 c 0,44,45
 2281 -72 2281 -72 2120 11 c 0,46,47
 2042 51 2042 51 1992.5 121 c 128,-1,48
 1943 191 1943 191 1932 278.5 c 128,-1,49
 1921 366 1921 366 1956 458.5 c 128,-1,50
 1991 551 1991 551 2082 616.5 c 128,-1,51
 2173 682 2173 682 2292.5 701.5 c 128,-1,52
 2412 721 2412 721 2534 684 c 1,53,54
 2448 820 2448 820 2295 888 c 0,55,56
 2201 929 2201 929 2096 938 c 0,57,58
 1869 956 1869 956 1740 810 c 0,59,60
 1676 738 1676 738 1657.5 657.5 c 128,-1,61
 1639 577 1639 577 1638.5 519 c 128,-1,62
 1638 461 1638 461 1638 431 c 2,63,-1
 1638 21 l 1,64,-1
 1638 21 l 2,65,66
 1638 7 1638 7 1628 -3 c 128,-1,67
 1618 -13 1618 -13 1606 -13 c 128,-1,68
 1594 -13 1594 -13 1586 -9 c 0,69,70
 1569 1 1569 1 1568 21 c 2,71,-1
 1567 429 l 2,72,73
 1566 555 1566 555 1553.5 625 c 128,-1,74
 1541 695 1541 695 1496 765 c 0,75,76
 1405 906 1405 906 1221 942 c 0,77,78
 1111 963 1111 963 998 935 c 1,79,80
 1065 888 1065 888 1118.5 811.5 c 128,-1,81
 1172 735 1172 735 1166 648 c 0,82,83
 1160 552 1160 552 1089 491 c 1,84,85
 1196 445 1196 445 1228 333 c 0,86,87
 1261 219 1261 219 1193 121 c 0,88,89
 1163 78 1163 78 1120 48 c 0,90,91
 1037 -9 1037 -9 938 -5 c 0,92,93
 745 2 745 2 630 161 c 0,94,95
 529 301 529 301 544 489 c 0,96,97
 553 611 553 611 613 721 c 0,98,99
 690 860 690 860 824 939 c 1,100,101
 644 987 644 987 465 905 c 0,102,103
 275 818 275 818 201 629 c 0,104,105
 165 535 165 535 170.5 421 c 128,-1,106
 176 307 176 307 252 199.5 c 128,-1,107
 328 92 328 92 449 42 c 0,108,109
 471 33 471 33 471 14 c 128,-1,110
 471 -5 471 -5 461 -15.5 c 128,-1,111
 451 -26 451 -26 440 -26 c 128,-1,112
 429 -26 429 -26 422 -23 c 0,113,114
 282 35 282 35 194.5 159.5 c 128,-1,115
 107 284 107 284 101 415 c 0,116,117
 88 668 88 668 251 837.5 c 128,-1,118
 414 1007 414 1007 663 1025 c 0,0,1
911 905 m 1,119,120
 757 837 757 837 675 687 c 0,121,122
 580 515 580 515 626 334 c 0,123,124
 666 178 666 178 794 105 c 0,125,126
 859 68 859 68 937.5 65 c 128,-1,127
 1016 62 1016 62 1080 106 c 0,128,129
 1149 153 1149 153 1164 228 c 0,130,131
 1173 270 1173 270 1160.5 313.5 c 128,-1,132
 1148 357 1148 357 1120 386 c 0,133,134
 1062 445 1062 445 980 441 c 0,135,136
 964 438 964 438 952 438.5 c 128,-1,137
 940 439 940 439 930 449 c 128,-1,138
 920 459 920 459 920 469.5 c 128,-1,139
 920 480 920 480 922 485.5 c 128,-1,140
 924 491 924 491 928 496 c 0,141,142
 938 508 938 508 978.5 513.5 c 128,-1,143
 1019 519 1019 519 1056 555.5 c 128,-1,144
 1093 592 1093 592 1096.5 653.5 c 128,-1,145
 1100 715 1100 715 1049.5 787 c 128,-1,146
 999 859 999 859 911 905 c 1,119,120
2580 591 m 1,147,148
 2446 655 2446 655 2299 631 c 0,149,150
 2201 615 2201 615 2125 560.5 c 0,151,152
 2048 506 2048 506 2020 432 c 0,153,154
 1963 283 1963 283 2050 161 c 0,155,156
 2103 86 2103 86 2195 56 c 0,157,158
 2330 12 2330 12 2455 99 c 0,159,160
 2550 165 2550 165 2589 281 c 0,161,162
 2640 433 2640 433 2580 591 c 1,147,148
EndSplineSet
EndChar

StartChar: ml_i
Encoding: 94 3335 45
Width: 2030
GlyphClass: 2
Flags: W
LayerCount: 2
Back
Fore
SplineSet
1056 762 m 5,0,1
 1117 920 1117 920 1269 981 c 4,2,3
 1418 1040 1418 1040 1579 987 c 4,4,5
 1697 948 1697 948 1772 871 c 4,6,7
 1915 724 1915 724 1927 535 c 4,8,9
 1935 409 1935 409 1884.5 297 c 132,-1,10
 1834 185 1834 185 1737 114 c 132,-1,11
 1640 43 1640 43 1536 22 c 132,-1,12
 1432 1 1432 1 1282 1 c 6,13,-1
 566 -3 l 6,14,15
 547 -3 547 -3 529 -2.5 c 132,-1,16
 511 -2 511 -2 492 -2.5 c 132,-1,17
 473 -3 473 -3 455.5 -3.5 c 132,-1,18
 438 -4 438 -4 420 -5 c 132,-1,19
 402 -6 402 -6 385 -8 c 4,20,21
 272 -20 272 -20 222 -63 c 132,-1,22
 172 -106 172 -106 170 -150 c 4,23,24
 166 -237 166 -237 263 -279 c 4,25,26
 321 -304 321 -304 452 -305 c 6,27,-1
 1895 -306 l 5,28,-1
 1895 -306 l 6,29,30
 1909 -306 1909 -306 1919.5 -316 c 132,-1,31
 1930 -326 1930 -326 1930 -340.5 c 132,-1,32
 1930 -355 1930 -355 1920 -365.5 c 132,-1,33
 1910 -376 1910 -376 1895 -376 c 6,34,-1
 452 -375 l 6,35,36
 306 -375 306 -375 240.5 -346 c 132,-1,37
 175 -317 175 -317 136 -266.5 c 132,-1,38
 97 -216 97 -216 100 -144.5 c 132,-1,39
 103 -73 103 -73 162 -22 c 4,40,41
 253 57 253 57 411 65 c 4,42,43
 467 68 467 68 514 67.5 c 132,-1,44
 561 67 561 67 566 67 c 6,45,-1
 1282 71 l 6,46,47
 1425 72 1425 72 1518 90 c 132,-1,48
 1611 108 1611 108 1694.5 169.5 c 132,-1,49
 1778 231 1778 231 1821.5 326.5 c 132,-1,50
 1865 422 1865 422 1859 515 c 4,51,52
 1843 758 1843 758 1652 876 c 4,53,54
 1560 933 1560 933 1466 939 c 4,55,56
 1274 952 1274 952 1170 823 c 4,57,58
 1121 762 1121 762 1109 700 c 4,59,60
 1095 633 1095 633 1095 512 c 6,61,-1
 1095 213 l 6,62,63
 1095 178 1095 178 1060 179 c 4,64,65
 1046 179 1046 179 1035.5 189 c 132,-1,66
 1025 199 1025 199 1025 213 c 6,67,-1
 1023 509 l 6,68,69
 1022 625 1022 625 1010.5 681 c 132,-1,70
 999 737 999 737 959 794 c 4,71,72
 878 906 878 906 715 931 c 4,73,74
 535 958 535 958 387 867 c 4,75,76
 268 794 268 794 214 666 c 5,77,78
 267 717 267 717 334 736.5 c 132,-1,79
 401 756 401 756 460.5 747.5 c 132,-1,80
 520 739 520 739 569.5 711 c 132,-1,81
 619 683 619 683 654.5 639 c 132,-1,82
 690 595 690 595 706.5 540.5 c 132,-1,83
 723 486 723 486 719 430 c 4,84,85
 709 312 709 312 620 234 c 4,86,87
 530 156 530 156 413 164 c 4,88,89
 335 169 335 169 269 212.5 c 132,-1,90
 203 256 203 256 165 323 c 4,91,92
 86 459 86 459 125 616 c 4,93,94
 147 712 147 712 206.5 793.5 c 132,-1,95
 266 875 266 875 336 918 c 132,-1,96
 406 961 406 961 469 981 c 4,97,98
 592 1020 592 1020 704 1003 c 4,99,100
 969 963 969 963 1056 762 c 5,0,1
272.5 624.5 m 132,-1,102
 194 557 194 557 192 454 c 4,103,104
 192 417 192 417 224 361.5 c 132,-1,105
 256 306 256 306 307 272 c 132,-1,106
 358 238 358 238 408 235 c 4,107,108
 541 226 541 226 611 330 c 4,109,110
 644 379 644 379 650 452 c 132,-1,111
 656 525 656 525 600 595 c 4,112,113
 544 665 544 665 447.5 678.5 c 132,-1,101
 351 692 351 692 272.5 624.5 c 132,-1,102
EndSplineSet
EndChar

StartChar: ml_u
Encoding: 96 3337 47
Width: 1304
GlyphClass: 2
Flags: W
LayerCount: 2
Back
Fore
SplineSet
279 891 m 4,0,1
 445 1018 445 1018 672 990 c 4,2,3
 875 965 875 965 1016 825 c 4,4,5
 1163 679 1163 679 1175 477 c 4,6,7
 1182 364 1182 364 1139.5 263 c 132,-1,8
 1097 162 1097 162 1010.5 96.5 c 132,-1,9
 924 31 924 31 831 13 c 132,-1,10
 738 -5 738 -5 604 -2 c 6,11,-1
 499 0 l 5,12,13
 339 2 339 2 281.5 -21 c 132,-1,14
 224 -44 224 -44 194.5 -83.5 c 132,-1,15
 165 -123 165 -123 172 -164 c 4,16,17
 193 -284 193 -284 408 -288 c 4,18,19
 430 -288 430 -288 478 -289 c 6,20,-1
 1169 -290 l 5,21,-1
 1169 -290 l 6,22,23
 1183 -290 1183 -290 1193.5 -300.5 c 132,-1,24
 1204 -311 1204 -311 1204 -325.5 c 132,-1,25
 1204 -340 1204 -340 1194 -350 c 132,-1,26
 1184 -360 1184 -360 1176.5 -360 c 4,27,-1
 1169 -360 l 6,28,-1
 478 -359 l 6,29,30
 473 -359 473 -359 403 -359 c 4,31,32
 249 -359 249 -359 165 -285 c 4,33,34
 114 -240 114 -240 102.5 -173 c 132,-1,35
 91 -106 91 -106 135 -46.5 c 132,-1,36
 179 13 179 13 233.5 35 c 132,-1,37
 288 57 288 57 334 64 c 132,-1,38
 380 71 380 71 418.5 70.5 c 132,-1,39
 457 70 457 70 500 70 c 6,40,-1
 605 68 l 6,41,42
 732 65 732 65 813.5 81 c 132,-1,43
 895 97 895 97 967.5 151.5 c 132,-1,44
 1040 206 1040 206 1076 291 c 132,-1,45
 1112 376 1112 376 1107 452.5 c 132,-1,46
 1102 529 1102 529 1084 583 c 4,47,48
 1048 693 1048 693 977 764 c 4,49,50
 842 898 842 898 663 920 c 4,51,52
 465 945 465 945 322 835 c 4,53,54
 264 791 264 791 227 729 c 5,55,56
 315 788 315 788 420 768 c 4,57,58
 543 744 543 744 602 632 c 4,59,60
 660 525 660 525 619 411 c 4,61,62
 578 298 578 298 467 257 c 4,63,64
 360 218 360 218 260 274 c 4,65,66
 144 339 144 339 115 482 c 4,67,68
 112 489 112 489 112 493.5 c 132,-1,69
 112 498 112 498 111 504 c 4,70,71
 94 617 94 617 143 721 c 132,-1,72
 192 825 192 825 279 891 c 4,0,1
332.5 699.5 m 132,-1,74
 255 679 255 679 217 625 c 132,-1,75
 179 571 179 571 182 507 c 5,76,77
 194 435 194 435 241 378 c 132,-1,78
 288 321 288 321 364 313 c 4,79,80
 449 304 449 304 510 367 c 4,81,82
 570 428 570 428 565 516 c 4,83,84
 559 609 559 609 484.5 664.5 c 132,-1,73
 410 720 410 720 332.5 699.5 c 132,-1,74
EndSplineSet
EndChar

StartChar: ml_r
Encoding: 98 3339 49
Width: 1672
GlyphClass: 2
Flags: W
LayerCount: 2
Back
Fore
SplineSet
389 963 m 4,0,1
 391 963 391 963 393 963 c 4,2,3
 401 963 401 963 410 962 c 4,4,5
 494 955 494 955 556 897 c 4,6,7
 618 840 618 840 633 757 c 4,8,9
 648 674 648 674 609 599 c 4,10,11
 571 524 571 524 497 486 c 4,12,13
 430 452 430 452 355 459.5 c 132,-1,14
 280 467 280 467 221 514 c 4,15,16
 198 532 198 532 179 556 c 5,17,18
 196 479 196 479 243 412 c 4,19,20
 307 320 307 320 414 261 c 4,21,22
 553 184 553 184 751 174 c 4,23,24
 760 174 760 174 785.5 173.5 c 132,-1,25
 811 173 811 173 825 173 c 4,26,27
 849 173 849 173 873 174 c 4,28,29
 1154 188 1154 188 1320 309 c 4,30,31
 1419 382 1419 382 1466 483 c 4,32,33
 1473 498 1473 498 1479 514 c 5,34,35
 1428 469 1428 469 1363 455 c 4,36,37
 1279 436 1279 436 1200 471.5 c 132,-1,38
 1121 507 1121 507 1079 582 c 4,39,40
 1041 650 1041 650 1047 727 c 4,41,42
 1053 805 1053 805 1101 866 c 4,43,44
 1150 927 1150 927 1224 950 c 4,45,46
 1299 973 1299 973 1374 949 c 4,47,48
 1450 924 1450 924 1502 857 c 4,49,50
 1548 797 1548 797 1565 715 c 4,51,52
 1591 583 1591 583 1529 453 c 4,53,54
 1474 336 1474 336 1361 253 c 4,55,56
 1282 195 1282 195 1180 159 c 5,57,58
 1226 151 1226 151 1267 138 c 4,59,60
 1383 101 1383 101 1456 24 c 4,61,62
 1543 -67 1543 -67 1547 -182 c 4,63,64
 1551 -299 1551 -299 1467 -396 c 4,65,66
 1397 -478 1397 -478 1281 -520 c 4,67,68
 1247 -532 1247 -532 1208 -540.5 c 132,-1,69
 1169 -549 1169 -549 1142.5 -553.5 c 132,-1,70
 1116 -558 1116 -558 1066 -560 c 132,-1,71
 1016 -562 1016 -562 1000.5 -562.5 c 132,-1,72
 985 -563 985 -563 925 -562.5 c 132,-1,73
 865 -562 865 -562 858 -562 c 4,74,75
 851 -562 851 -562 789 -562.5 c 132,-1,76
 727 -563 727 -563 710.5 -562.5 c 132,-1,77
 694 -562 694 -562 642 -559.5 c 132,-1,78
 590 -557 590 -557 563 -552.5 c 132,-1,79
 536 -548 536 -548 495.5 -539 c 132,-1,80
 455 -530 455 -530 420 -517 c 4,81,82
 301 -472 301 -472 231 -385 c 4,83,84
 192 -337 192 -337 172 -279 c 132,-1,85
 152 -221 152 -221 157 -161 c 4,86,87
 166 -49 166 -49 254 37 c 4,88,89
 328 109 328 109 441 144 c 4,90,91
 460 150 460 150 481 154 c 5,92,93
 428 173 428 173 380 200 c 4,94,95
 258 267 258 267 185 372 c 4,96,97
 104 488 104 488 100 621 c 4,98,99
 96 761 96 761 177 859 c 4,100,101
 220 912 220 912 280 939 c 4,102,103
 332 963 332 963 389 963 c 4,0,1
386 893 m 4,104,105
 346 893 346 893 309 875 c 4,106,107
 264 855 264 855 231 815 c 4,108,109
 213 793 213 793 199 765 c 4,110,111
 199 762 199 762 198 760 c 4,112,113
 185 707 185 707 203 655 c 132,-1,114
 221 603 221 603 264 568.5 c 132,-1,115
 307 534 307 534 361.5 529 c 132,-1,116
 416 524 416 524 465 549 c 4,117,118
 519 577 519 577 546.5 631 c 132,-1,119
 574 685 574 685 563.5 745 c 132,-1,120
 553 805 553 805 508.5 846 c 132,-1,121
 464 887 464 887 404 892 c 4,122,123
 398 893 398 893 392 893 c 4,124,125
 389 893 389 893 386 893 c 4,104,105
1298.5 891 m 132,-1,127
 1271 891 1271 891 1245 883 c 4,128,129
 1191 867 1191 867 1156 822.5 c 132,-1,130
 1121 778 1121 778 1117 722 c 4,131,132
 1113 666 1113 666 1140 616 c 4,133,134
 1171 561 1171 561 1228.5 535 c 132,-1,135
 1286 509 1286 509 1348 523 c 132,-1,136
 1410 537 1410 537 1451 585 c 132,-1,137
 1492 633 1492 633 1497 696 c 4,138,139
 1497 697 1497 697 1497 697.5 c 132,-1,140
 1497 698 1497 698 1496.5 699.5 c 132,-1,141
 1496 701 1496 701 1496 702 c 4,142,143
 1483 767 1483 767 1447 814 c 4,144,145
 1408 865 1408 865 1352 882 c 4,146,126
 1326 891 1326 891 1298.5 891 c 132,-1,127
699 104 m 4,147,148
 552 104 552 104 462 77 c 4,149,150
 365 48 365 48 303 -13 c 4,151,152
 234 -81 234 -81 227 -167 c 4,153,154
 225 -197 225 -197 231 -228 c 132,-1,155
 237 -259 237 -259 251 -287.5 c 132,-1,156
 265 -316 265 -316 285 -341 c 4,157,158
 314 -377 314 -377 355.5 -405 c 132,-1,159
 397 -433 397 -433 445 -451 c 4,160,161
 471 -461 471 -461 497.5 -468 c 132,-1,162
 524 -475 524 -475 558 -479.5 c 132,-1,163
 592 -484 592 -484 612.5 -487 c 132,-1,164
 633 -490 633 -490 676 -491 c 132,-1,165
 719 -492 719 -492 732.5 -492.5 c 132,-1,166
 746 -493 746 -493 798 -492.5 c 132,-1,167
 850 -492 850 -492 858 -492 c 4,168,169
 866 -492 866 -492 916 -492.5 c 132,-1,170
 966 -493 966 -493 979 -492.5 c 132,-1,171
 992 -492 992 -492 1033.5 -491 c 132,-1,172
 1075 -490 1075 -490 1095 -487.5 c 132,-1,173
 1115 -485 1115 -485 1148 -481 c 132,-1,174
 1181 -477 1181 -477 1206.5 -470 c 132,-1,175
 1232 -463 1232 -463 1258 -454 c 4,176,177
 1357 -418 1357 -418 1414 -351 c 4,178,179
 1480 -274 1480 -274 1477 -184 c 4,180,181
 1474 -96 1474 -96 1405 -24 c 4,182,183
 1344 39 1344 39 1246 71 c 4,184,185
 1211 82 1211 82 1174.5 89 c 132,-1,186
 1138 96 1138 96 1091 98.5 c 132,-1,187
 1044 101 1044 101 1017 102 c 132,-1,188
 990 103 990 103 929.5 102.5 c 132,-1,189
 869 102 869 102 850 102 c 4,190,191
 839 102 839 102 824 103 c 4,192,193
 788 103 788 103 754 104 c 4,194,195
 722 104 722 104 699 104 c 4,147,148
EndSplineSet
EndChar

StartChar: ml_l
Encoding: 99 3340 50
Width: 2176
GlyphClass: 2
Flags: W
LayerCount: 2
Back
Fore
SplineSet
1256 925 m 0,0,1
 1459 1065 1459 1065 1694 990 c 0,2,3
 1814 952 1814 952 1898 871 c 0,4,5
 2065 709 2065 709 2076 477 c 0,6,7
 2086 270 2086 270 1967 131 c 0,8,9
 1903 56 1903 56 1812 20 c 128,-1,10
 1721 -16 1721 -16 1630.5 1.5 c 128,-1,11
 1540 19 1540 19 1474.5 76.5 c 128,-1,12
 1409 134 1409 134 1381 216 c 128,-1,13
 1353 298 1353 298 1369 383.5 c 128,-1,14
 1385 469 1385 469 1441 535 c 0,15,16
 1521 631 1521 631 1644 651.5 c 128,-1,17
 1767 672 1767 672 1865.5 612 c 128,-1,18
 1964 552 1964 552 2007 454 c 1,19,20
 2006 560 2006 560 1964 654.5 c 128,-1,21
 1922 749 1922 749 1854 815 c 128,-1,22
 1786 881 1786 881 1694.5 915.5 c 128,-1,23
 1603 950 1603 950 1514 944 c 0,24,25
 1329 931 1329 931 1211 791 c 0,26,27
 1112 673 1112 673 1112 528 c 2,28,-1
 1111 36 l 2,29,30
 1110 2 1110 2 1076 1 c 0,31,32
 1062 1 1062 1 1051.5 11.5 c 128,-1,33
 1041 22 1041 22 1041 36 c 0,34,-1
 1041 36 l 1,35,-1
 1042 525 l 1,36,37
 1040 598 1040 598 1025.5 668 c 128,-1,38
 1011 738 1011 738 959 805 c 0,39,40
 852 943 852 943 657 942 c 0,41,42
 464 940 464 940 323 804 c 0,43,44
 179 664 179 664 171 471 c 0,45,46
 171 468 171 468 171 467 c 1,47,48
 214 559 214 559 311 618 c 128,-1,49
 408 677 408 677 532.5 656 c 128,-1,50
 657 635 657 635 737 537 c 0,51,52
 792 470 792 470 807.5 385 c 128,-1,53
 823 300 823 300 795 218.5 c 128,-1,54
 767 137 767 137 702 79.5 c 128,-1,55
 637 22 637 22 547 3.5 c 128,-1,56
 457 -15 457 -15 365 20 c 0,57,58
 242 67 242 67 171 183 c 0,59,60
 170 185 170 185 168 186 c 0,61,62
 90 315 90 315 101 480 c 0,63,64
 116 702 116 702 274 854 c 0,65,66
 435 1009 435 1009 656 1012 c 0,67,68
 764 1013 764 1013 858 971 c 0,69,70
 1024 897 1024 897 1084 716 c 1,71,72
 1140 845 1140 845 1256 925 c 0,0,1
520.5 587 m 128,-1,74
 422 604 422 604 337 552 c 128,-1,75
 252 500 252 500 222 405.5 c 128,-1,76
 192 311 192 311 230 220 c 1,77,78
 289 124 289 124 376 91 c 128,-1,79
 463 58 463 58 534 72.5 c 128,-1,80
 605 87 605 87 655.5 132 c 128,-1,81
 706 177 706 177 728 241.5 c 128,-1,82
 750 306 750 306 738 373 c 128,-1,83
 726 440 726 440 683 493 c 0,84,73
 619 570 619 570 520.5 587 c 128,-1,74
1837.5 547.5 m 128,-1,86
 1753 599 1753 599 1655.5 583 c 128,-1,87
 1558 567 1558 567 1494 491 c 0,88,89
 1450 438 1450 438 1437.5 371 c 128,-1,90
 1425 304 1425 304 1447.5 239 c 128,-1,91
 1470 174 1470 174 1521 129 c 128,-1,92
 1572 84 1572 84 1643 70.5 c 128,-1,93
 1714 57 1714 57 1787 86 c 0,94,95
 1883 124 1883 124 1942 215 c 0,96,97
 1942 216 l 0,98,99
 1981 307 1981 307 1951.5 401.5 c 128,-1,85
 1922 496 1922 496 1837.5 547.5 c 128,-1,86
EndSplineSet
EndChar

StartChar: ml_e
Encoding: 100 3342 51
Width: 2469
GlyphClass: 2
Flags: W
LayerCount: 2
Back
Fore
SplineSet
1036 68 m 5,0,1
 1005 426 1005 426 1188 692 c 4,2,3
 1283 830 1283 830 1435 912 c 4,4,5
 1650 1027 1650 1027 1879 962 c 4,6,7
 2057 912 2057 912 2183 769 c 4,8,9
 2342 590 2342 590 2364.5 352.5 c 132,-1,10
 2387 115 2387 115 2300 -87 c 132,-1,11
 2213 -289 2213 -289 2040 -424 c 4,12,13
 2030 -432 2030 -432 2016.5 -431.5 c 132,-1,14
 2003 -431 2003 -431 1993 -421 c 132,-1,15
 1983 -411 1983 -411 1983 -395 c 132,-1,16
 1983 -379 1983 -379 1997 -368 c 4,17,18
 2156 -244 2156 -244 2236 -59 c 4,19,20
 2349 202 2349 202 2269 470 c 4,21,22
 2226 616 2226 616 2142 710 c 4,23,24
 1975 898 1975 898 1755 913 c 4,25,26
 1604 923 1604 923 1467 849.5 c 132,-1,27
 1330 776 1330 776 1244 650 c 4,28,29
 1075 404 1075 404 1106 68 c 5,30,-1
 1746 62 l 5,31,32
 1747 72 1747 72 1753 80 c 5,33,-1
 1758 631 l 5,34,-1
 1758 632 l 6,35,36
 1758 655 1758 655 1779 664 c 4,37,38
 1801 673 1801 673 1814.5 659.5 c 132,-1,39
 1828 646 1828 646 1828 638.5 c 4,40,-1
 1828 631 l 6,41,-1
 1823 26 l 6,42,43
 1823 16 1823 16 1818 8 c 5,44,45
 1817 -77 1817 -77 1788 -157 c 4,46,47
 1743 -285 1743 -285 1646 -361 c 4,48,49
 1535 -447 1535 -447 1404 -433 c 4,50,51
 1321 -425 1321 -425 1251 -377 c 4,52,53
 1084 -262 1084 -262 1044 -2 c 5,54,-1
 567 3 l 6,55,56
 553 3 553 3 542.5 13 c 132,-1,57
 532 23 532 23 532 35 c 4,58,59
 532 60 532 60 553 70 c 4,60,61
 644 110 644 110 688.5 198.5 c 132,-1,62
 733 287 733 287 710 384 c 132,-1,63
 687 481 687 481 607 540.5 c 132,-1,64
 527 600 527 600 428.5 594 c 132,-1,65
 330 588 330 588 258.5 522 c 132,-1,66
 187 456 187 456 173 359.5 c 132,-1,67
 159 263 159 263 209.5 179.5 c 132,-1,68
 260 96 260 96 352 63 c 4,69,70
 376 55 376 55 376 35 c 132,-1,71
 376 15 376 15 365.5 5 c 132,-1,72
 355 -5 355 -5 345 -5 c 132,-1,73
 335 -5 335 -5 329 -3 c 4,74,75
 214 38 214 38 150 143 c 132,-1,76
 86 248 86 248 103.5 369 c 132,-1,77
 121 490 121 490 211 573 c 132,-1,78
 301 656 301 656 424.5 663.5 c 132,-1,79
 548 671 548 671 648.5 596.5 c 132,-1,80
 749 522 749 522 778 400.5 c 132,-1,81
 807 279 807 279 751 167 c 4,82,83
 724 113 724 113 680 71 c 5,84,-1
 1036 68 l 5,0,1
1115 -3 m 5,85,86
 1152 -225 1152 -225 1287 -317 c 4,87,88
 1393 -390 1393 -390 1511 -353 c 4,89,90
 1561 -337 1561 -337 1603 -305 c 4,91,92
 1684 -242 1684 -242 1722 -134 c 4,93,94
 1743 -74 1743 -74 1747 -8 c 5,95,-1
 1115 -3 l 5,85,86
EndSplineSet
EndChar

StartChar: ml_ee
Encoding: 101 3343 52
Width: 2494
GlyphClass: 2
Flags: W
LayerCount: 2
Back
Fore
SplineSet
1032 70 m 5,0,1
 1005 429 1005 429 1202 698 c 4,2,3
 1302 834 1302 834 1455.5 915 c 132,-1,4
 1609 996 1609 996 1790 991 c 132,-1,5
 1971 986 1971 986 2107 877 c 4,6,7
 2178 820 2178 820 2222.5 740.5 c 132,-1,8
 2267 661 2267 661 2271.5 599 c 132,-1,9
 2276 537 2276 537 2271.5 502 c 132,-1,10
 2267 467 2267 467 2257 434 c 4,11,12
 2225 332 2225 332 2140 270 c 5,13,14
 2236 241 2236 241 2303 166 c 4,15,16
 2406 51 2406 51 2393 -103 c 4,17,18
 2379 -262 2379 -262 2251 -355 c 4,19,20
 2141 -435 2141 -435 2006 -419 c 4,21,22
 1940 -411 1940 -411 1907.5 -393.5 c 132,-1,23
 1875 -376 1875 -376 1869.5 -367 c 132,-1,24
 1864 -358 1864 -358 1864 -346 c 132,-1,25
 1864 -334 1864 -334 1874 -324 c 132,-1,26
 1884 -314 1884 -314 1896 -314 c 132,-1,27
 1908 -314 1908 -314 1934.5 -328.5 c 132,-1,28
 1961 -343 1961 -343 2014 -349.5 c 132,-1,29
 2067 -356 2067 -356 2117 -343 c 4,30,31
 2222 -316 2222 -316 2281 -224 c 4,32,33
 2317 -168 2317 -168 2323 -97 c 132,-1,34
 2329 -26 2329 -26 2307 28 c 4,35,36
 2264 132 2264 132 2181 176.5 c 132,-1,37
 2098 221 2098 221 2011 214 c 4,38,39
 1987 210 1987 210 1974.5 209.5 c 132,-1,40
 1962 209 1962 209 1951.5 219.5 c 132,-1,41
 1941 230 1941 230 1941 243 c 4,42,43
 1941 273 1941 273 1970 279 c 4,44,45
 1985 282 1985 282 2001 283 c 4,46,47
 2081 299 2081 299 2127 349 c 4,48,49
 2212 443 2212 443 2203 567 c 4,50,51
 2198 640 2198 640 2160.5 707.5 c 132,-1,52
 2123 775 2123 775 2063 823 c 4,53,54
 1945 917 1945 917 1785.5 921 c 132,-1,55
 1626 925 1626 925 1487.5 852 c 132,-1,56
 1349 779 1349 779 1257 655 c 4,57,58
 1075 407 1075 407 1102 70 c 5,59,-1
 1739 69 l 5,60,61
 1739 72 1739 72 1741 75 c 6,62,-1
 1745 637 l 6,63,64
 1745 652 1745 652 1755 662 c 132,-1,65
 1765 672 1765 672 1780 672 c 132,-1,66
 1795 672 1795 672 1805 662 c 132,-1,67
 1815 652 1815 652 1815 644.5 c 4,68,-1
 1815 637 l 6,69,-1
 1810 52 l 5,70,71
 1816 -51 1816 -51 1776.5 -164 c 132,-1,72
 1737 -277 1737 -277 1639 -352 c 4,73,74
 1528 -437 1528 -437 1398 -425 c 4,75,76
 1315 -417 1315 -417 1245 -370 c 4,77,78
 1077 -256 1077 -256 1040 0 c 5,79,-1
 557 1 l 6,80,81
 543 1 543 1 532.5 11.5 c 132,-1,82
 522 22 522 22 522 34 c 4,83,84
 522 60 522 60 545 69 c 4,85,86
 641 106 641 106 689 197 c 132,-1,87
 737 288 737 288 713.5 388.5 c 132,-1,88
 690 489 690 489 606 549 c 132,-1,89
 522 609 522 609 423.5 600 c 132,-1,90
 325 591 325 591 255.5 525 c 132,-1,91
 186 459 186 459 173 364.5 c 132,-1,92
 160 270 160 270 207.5 187.5 c 132,-1,93
 255 105 255 105 344 70 c 4,94,95
 367 61 367 61 367 41.5 c 132,-1,96
 367 22 367 22 356.5 12 c 132,-1,97
 346 2 346 2 335.5 2 c 132,-1,98
 325 2 325 2 319 5 c 4,99,100
 208 49 208 49 147.5 152.5 c 132,-1,101
 87 256 87 256 104 374.5 c 132,-1,102
 121 493 121 493 207.5 575.5 c 132,-1,103
 294 658 294 658 418 669.5 c 132,-1,104
 542 681 542 681 647 605.5 c 132,-1,105
 752 530 752 530 781.5 404.5 c 132,-1,106
 811 279 811 279 751 165 c 4,107,108
 723 112 723 112 678 71 c 5,109,-1
 1032 70 l 5,0,1
1111 0 m 5,110,111
 1146 -218 1146 -218 1281 -309 c 4,112,113
 1387 -381 1387 -381 1505 -344 c 4,114,115
 1555 -328 1555 -328 1596 -297 c 4,116,117
 1677 -234 1677 -234 1716 -126 c 4,118,119
 1737 -66 1737 -66 1741 -1 c 5,120,-1
 1111 0 l 5,110,111
EndSplineSet
EndChar

StartChar: ml_n
Encoding: 103 3346 54
Width: 1346
GlyphClass: 2
Flags: W
LayerCount: 2
Back
Fore
SplineSet
972 954 m 4,0,1
 1125 869 1125 869 1152 728 c 4,2,3
 1172 625 1172 625 1116 538 c 4,4,5
 1097 509 1097 509 1070 485 c 5,6,7
 1167 453 1167 453 1215 361 c 4,8,9
 1276 244 1276 244 1217 126 c 4,10,11
 1185 64 1185 64 1126 27 c 132,-1,12
 1067 -10 1067 -10 997.5 -12.5 c 132,-1,13
 928 -15 928 -15 867 19 c 4,14,15
 848 29 848 29 848.5 46.5 c 132,-1,16
 849 64 849 64 859 74 c 132,-1,17
 869 84 869 84 881 84 c 132,-1,18
 893 84 893 84 919 70 c 132,-1,19
 945 56 945 56 995.5 57.5 c 132,-1,20
 1046 59 1046 59 1088.5 86 c 132,-1,21
 1131 113 1131 113 1154 158 c 132,-1,22
 1177 203 1177 203 1175 241 c 132,-1,23
 1173 279 1173 279 1164 304 c 4,24,25
 1122 422 1122 422 995 428 c 4,26,27
 975 429 975 429 964 426.5 c 132,-1,28
 953 424 953 424 944 424 c 132,-1,29
 935 424 935 424 925 434.5 c 132,-1,30
 915 445 915 445 915 458 c 4,31,32
 915 487 915 487 946 494 c 4,33,34
 1016 511 1016 511 1057 575.5 c 132,-1,35
 1098 640 1098 640 1086 705 c 4,36,37
 1063 823 1063 823 938 893 c 4,38,39
 783 979 783 979 604 938 c 4,40,41
 433 900 433 900 311 762 c 4,42,43
 157 588 157 588 172 373 c 5,44,45
 212 452 212 452 295 492 c 132,-1,46
 378 532 378 532 470.5 509 c 132,-1,47
 563 486 563 486 615 415 c 132,-1,48
 667 344 667 344 669.5 264 c 132,-1,49
 672 184 672 184 629 116 c 132,-1,50
 586 48 586 48 511.5 17 c 132,-1,51
 437 -14 437 -14 356.5 4 c 132,-1,52
 276 22 276 22 218 84.5 c 132,-1,53
 160 147 160 147 131 231 c 4,54,55
 79 379 79 379 115 533 c 132,-1,56
 151 687 151 687 259 808 c 4,57,58
 397 963 397 963 596 1007.5 c 132,-1,59
 795 1052 795 1052 972 954 c 4,0,1
453.5 441 m 132,-1,61
 385 458 385 458 322 427.5 c 132,-1,62
 259 397 259 397 230.5 333 c 132,-1,63
 202 269 202 269 221 201 c 4,64,65
 228 177 228 177 270.5 131.5 c 132,-1,66
 313 86 313 86 372 72.5 c 132,-1,67
 431 59 431 59 485 81.5 c 132,-1,68
 539 104 539 104 570.5 153.5 c 132,-1,69
 602 203 602 203 599.5 261.5 c 132,-1,70
 597 320 597 320 559.5 372 c 132,-1,60
 522 424 522 424 453.5 441 c 132,-1,61
EndSplineSet
EndChar

StartChar: k1
Encoding: 106 3349 57
Width: 1859
GlyphClass: 2
Flags: W
LayerCount: 2
Back
Fore
SplineSet
968 995 m 4,0,1
 1055 996 1055 996 1136 952 c 4,2,3
 1211 912 1211 912 1265 841 c 4,4,5
 1337 747 1337 747 1362 614 c 5,6,7
 1431 614 1431 614 1478 605 c 4,8,9
 1559 591 1559 591 1620 551 c 4,10,11
 1688 506 1688 506 1725 436 c 4,12,13
 1763 364 1763 364 1759 284 c 4,14,15
 1756 223 1756 223 1729.5 167.5 c 132,-1,16
 1703 112 1703 112 1657 72 c 132,-1,17
 1611 32 1611 32 1552.5 12.5 c 132,-1,18
 1494 -7 1494 -7 1433 -1 c 4,19,20
 1420 0 1420 0 1410.5 10 c 132,-1,21
 1401 20 1401 20 1401 34 c 4,22,23
 1401 48 1401 48 1411 58.5 c 132,-1,24
 1421 69 1421 69 1436 69 c 4,25,26
 1438 69 1438 69 1439 68 c 4,27,28
 1485 64 1485 64 1530.5 79 c 132,-1,29
 1576 94 1576 94 1610.5 124.5 c 132,-1,30
 1645 155 1645 155 1666 198 c 132,-1,31
 1687 241 1687 241 1689 287 c 4,32,33
 1692 349 1692 349 1663 404 c 4,34,35
 1635 458 1635 458 1582 493 c 4,36,37
 1533 525 1533 525 1466 536 c 4,38,39
 1428 542 1428 542 1371 544 c 5,40,41
 1372 534 1372 534 1372 527 c 4,42,43
 1384 321 1384 321 1286 175 c 4,44,45
 1231 93 1231 93 1150 46 c 4,46,47
 1063 -5 1063 -5 967 -3 c 4,48,49
 872 -2 872 -2 788 49 c 4,50,51
 709 97 709 97 655 179 c 4,52,53
 655 180 655 180 649 189 c 5,54,55
 628 132 628 132 587 90 c 4,56,57
 543 44 543 44 482.5 21 c 132,-1,58
 422 -2 422 -2 358 3 c 4,59,60
 247 12 247 12 173 93 c 4,61,62
 137 132 137 132 118 182.5 c 132,-1,63
 99 233 99 233 100 286 c 4,64,65
 103 374 103 374 158 450 c 4,66,67
 208 518 208 518 289 558 c 4,68,69
 352 589 352 589 422.5 599.5 c 132,-1,70
 493 610 493 610 582 611 c 5,71,72
 606 743 606 743 676 837 c 4,73,74
 729 908 729 908 802 949 c 4,75,76
 882 994 882 994 968 995 c 4,0,1
968 925 m 4,77,78
 900 924 900 924 837 888 c 4,79,80
 777 854 777 854 732 795 c 4,81,82
 675 719 675 719 653 611 c 5,83,-1
 1290 614 l 5,84,85
 1267 722 1267 722 1210 798 c 4,86,87
 1164 858 1164 858 1103 891 c 4,88,89
 1037 926 1037 926 968 925 c 4,77,78
1301 544 m 5,90,-1
 643 541 l 5,91,92
 642 532 642 532 642 523 c 4,93,94
 636 423 636 423 661 335 c 4,95,96
 664 329 664 329 665 322 c 4,97,98
 665 322 l 4,99,100
 683 264 683 264 714 217 c 4,101,102
 759 149 759 149 824 109 c 4,103,104
 893 67 893 67 968 67 c 4,105,106
 1045 66 1045 66 1115 107 c 4,107,108
 1182 146 1182 146 1228 214 c 4,109,110
 1313 340 1313 340 1302 523 c 4,111,112
 1302 533 1302 533 1301 544 c 5,90,-1
573 541 m 5,113,114
 407 538 407 538 320 495 c 4,115,116
 254 462 254 462 214 409 c 4,117,118
 172 351 172 351 170 284 c 4,119,120
 168 202 168 202 224 141 c 4,121,122
 280 80 280 80 364 73 c 4,123,124
 411 69 411 69 457.5 87 c 132,-1,125
 504 105 504 105 537 139 c 4,126,127
 569 172 569 172 584.5 217 c 132,-1,128
 600 262 600 262 596 308 c 5,129,130
 565 410 565 410 572 527 c 4,131,132
 572 531 572 531 573 541 c 5,113,114
EndSplineSet
EndChar

StartChar: k2
Encoding: 107 3350 58
Width: 1740
GlyphClass: 2
Flags: W
LayerCount: 2
Back
Fore
SplineSet
1580.5 1018.5 m 128,-1,1
 1591 1029 1591 1029 1605.5 1029 c 128,-1,2
 1620 1029 1620 1029 1630 1018.5 c 128,-1,3
 1640 1008 1640 1008 1640 1000.5 c 0,4,-1
 1640 993 l 2,5,-1
 1637 29 l 2,6,7
 1637 -6 1637 -6 1602 -6 c 2,8,-1
 913 -5 l 2,9,10
 899 -5 899 -5 888.5 5 c 128,-1,11
 878 15 878 15 878 32 c 128,-1,12
 878 49 878 49 895 60 c 0,13,14
 1030 141 1030 141 1089.5 286 c 128,-1,15
 1149 431 1149 431 1109 583.5 c 128,-1,16
 1069 736 1069 736 946 833.5 c 128,-1,17
 823 931 823 931 684.5 935 c 128,-1,18
 546 939 546 939 438 884.5 c 128,-1,19
 330 830 330 830 267 740 c 0,20,21
 141 562 141 562 179 351 c 1,22,23
 219 475 219 475 336 529 c 0,24,25
 408 562 408 562 487 556 c 0,26,27
 602 546 602 546 680 460 c 128,-1,28
 758 374 758 374 756 258 c 128,-1,29
 754 142 754 142 672 60 c 0,30,31
 590 -23 590 -23 471.5 -24.5 c 128,-1,32
 353 -26 353 -26 263 55 c 128,-1,33
 173 136 173 136 130 259.5 c 128,-1,34
 87 383 87 383 106 521.5 c 128,-1,35
 125 660 125 660 204 772 c 128,-1,36
 283 884 283 884 406.5 946.5 c 128,-1,37
 530 1009 530 1009 668 1006 c 0,38,39
 849 1001 849 1001 990 888.5 c 128,-1,40
 1131 776 1131 776 1176.5 601.5 c 128,-1,41
 1222 427 1222 427 1154 259 c 0,42,43
 1108 147 1108 147 1018 65 c 1,44,-1
 1567 64 l 1,45,-1
 1570 993 l 2,46,0
 1570 1008 1570 1008 1580.5 1018.5 c 128,-1,1
628 413 m 128,-1,48
 569 478 569 478 495 484.5 c 128,-1,49
 421 491 421 491 366 465.5 c 128,-1,50
 311 440 311 440 276 391 c 128,-1,51
 241 342 241 342 235.5 282 c 128,-1,52
 230 222 230 222 254 168 c 1,53,54
 343 44 343 44 472 46 c 0,55,56
 560 47 560 47 622 109 c 128,-1,57
 684 171 684 171 685.5 259.5 c 128,-1,47
 687 348 687 348 628 413 c 128,-1,48
EndSplineSet
EndChar

StartChar: k3
Encoding: 108 3351 59
Width: 1949
GlyphClass: 2
Flags: W
LayerCount: 2
Back
Fore
SplineSet
1266 1009 m 4,0,1
 1477 1041 1477 1041 1647 913 c 4,2,3
 1728 852 1728 852 1780 763 c 132,-1,4
 1832 674 1832 674 1842 599 c 132,-1,5
 1852 524 1852 524 1848 473 c 132,-1,6
 1844 422 1844 422 1831 374 c 4,7,8
 1776 169 1776 169 1589 64 c 4,9,10
 1499 14 1499 14 1399 3 c 4,11,12
 1397 3 1397 3 1388.5 2.5 c 132,-1,13
 1380 2 1380 2 1369.5 12.5 c 132,-1,14
 1359 23 1359 23 1359 33.5 c 132,-1,15
 1359 44 1359 44 1361.5 50 c 132,-1,16
 1364 56 1364 56 1369 61 c 4,17,18
 1378 71 1378 71 1391 72 c 4,19,20
 1477 82 1477 82 1555 125.5 c 132,-1,21
 1633 169 1633 169 1686.5 237.5 c 132,-1,22
 1740 306 1740 306 1763.5 392.5 c 132,-1,23
 1787 479 1787 479 1777.5 550 c 132,-1,24
 1768 621 1768 621 1746 676 c 4,25,26
 1699 787 1699 787 1617 848 c 4,27,28
 1458 968 1458 968 1276 940 c 4,29,30
 1133 918 1133 918 1061 816 c 4,31,32
 1026 766 1026 766 1015 709.5 c 132,-1,33
 1004 653 1004 653 1004 564 c 6,34,-1
 1004 464 l 6,35,36
 1004 357 1004 357 987.5 282 c 132,-1,37
 971 207 971 207 916 138 c 4,38,39
 806 1 806 1 607 3 c 4,40,41
 413 4 413 4 268.5 134.5 c 132,-1,42
 124 265 124 265 103 458.5 c 132,-1,43
 82 652 82 652 195.5 810 c 132,-1,44
 309 968 309 968 499 1010 c 4,45,46
 503 1011 503 1011 512 1011 c 132,-1,47
 521 1011 521 1011 531.5 1001 c 132,-1,48
 542 991 542 991 542 978 c 4,49,50
 542 948 542 948 514 942 c 4,51,52
 350 905 350 905 252.5 769 c 132,-1,53
 155 633 155 633 173 466 c 132,-1,54
 191 299 191 299 315 186.5 c 132,-1,55
 439 74 439 74 607 73 c 4,56,57
 772 72 772 72 863 183 c 4,58,59
 907 237 907 237 920.5 300.5 c 132,-1,60
 934 364 934 364 934 464 c 6,61,-1
 934 564 l 6,62,63
 934 660 934 660 947 726.5 c 132,-1,64
 960 793 960 793 1005 857 c 4,65,66
 1093 983 1093 983 1266 1009 c 4,0,1
EndSplineSet
EndChar

StartChar: k4
Encoding: 109 3352 60
Width: 2423
GlyphClass: 2
Flags: W
LayerCount: 2
Back
Fore
SplineSet
1179 871 m 4,0,1
 1308 1019 1308 1019 1536 1010 c 4,2,3
 1751 1001 1751 1001 1864 857 c 4,4,5
 1921 785 1921 785 1937.5 704 c 132,-1,6
 1954 623 1954 623 1951 508 c 6,7,-1
 1948 363 l 6,8,9
 1948 349 1948 349 1937.5 339 c 132,-1,10
 1927 329 1927 329 1913 329 c 6,11,-1
 1144 324 l 5,12,-1
 1143 72 l 5,13,-1
 2253 72 l 5,14,-1
 2253 969 l 6,15,16
 2253 984 2253 984 2263.5 994 c 132,-1,17
 2274 1004 2274 1004 2288.5 1004 c 132,-1,18
 2303 1004 2303 1004 2313 994 c 132,-1,19
 2323 984 2323 984 2323 969 c 6,20,-1
 2322 37 l 6,21,22
 2322 23 2322 23 2312 12.5 c 132,-1,23
 2302 2 2302 2 2287 2 c 6,24,-1
 1108 2 l 6,25,26
 1094 2 1094 2 1083.5 12.5 c 132,-1,27
 1073 23 1073 23 1073 37 c 6,28,-1
 1074 323 l 5,29,-1
 555 319 l 6,30,31
 540 319 540 319 530 329.5 c 132,-1,32
 520 340 520 340 520 352 c 4,33,34
 520 379 520 379 544 387 c 4,35,36
 649 423 649 423 700.5 521 c 132,-1,37
 752 619 752 619 724 725.5 c 132,-1,38
 696 832 696 832 602.5 891.5 c 132,-1,39
 509 951 509 951 409 932.5 c 132,-1,40
 309 914 309 914 246 846 c 132,-1,41
 183 778 183 778 172 686 c 132,-1,42
 161 594 161 594 207.5 513.5 c 132,-1,43
 254 433 254 433 339 396 c 4,44,45
 360 387 360 387 360 368 c 132,-1,46
 360 349 360 349 350 339 c 132,-1,47
 340 329 340 329 328.5 329 c 132,-1,48
 317 329 317 329 311 332 c 4,49,50
 205 379 205 379 147 479 c 132,-1,51
 89 579 89 579 102.5 694 c 132,-1,52
 116 809 116 809 195 894 c 132,-1,53
 274 979 274 979 388 1000 c 4,54,55
 524 1025 524 1025 640.5 951 c 132,-1,56
 757 877 757 877 792 743.5 c 132,-1,57
 827 610 827 610 762 488 c 4,58,59
 732 433 732 433 684 390 c 5,60,-1
 1074 393 l 5,61,-1
 1074 505 l 6,62,63
 1074 627 1074 627 1094.5 712 c 132,-1,64
 1115 797 1115 797 1179 871 c 4,0,1
1809 813 m 4,65,66
 1715 932 1715 932 1530 940 c 4,67,68
 1338 948 1338 948 1231 825 c 4,69,70
 1178 764 1178 764 1161 691.5 c 132,-1,71
 1144 619 1144 619 1144 505 c 6,72,-1
 1144 394 l 5,73,-1
 1879 399 l 5,74,-1
 1881 509 l 6,75,76
 1883 616 1883 616 1869.5 685 c 132,-1,77
 1856 754 1856 754 1809 813 c 4,65,66
EndSplineSet
EndChar

StartChar: ng
Encoding: 110 3353 61
Width: 2108
GlyphClass: 2
Flags: W
LayerCount: 2
Back
Fore
SplineSet
1185.37988281 857.6953125 m 0,0,1
 1331.546875 1036.0625 1331.546875 1036.0625 1591.50097656 1027.32421875 c 0,2,3
 1822.5703125 1019.54882812 1822.5703125 1019.54882812 1936.46191406 866.30859375 c 0,4,5
 2024.61621094 747.696289062 2024.61621094 747.696289062 1985.30859375 617.1640625 c 0,6,7
 1954.92382812 516.2734375 1954.92382812 516.2734375 1858.046875 467.802734375 c 1,8,9
 1946.62890625 428.358398438 1946.62890625 428.358398438 1985.0703125 345.330078125 c 0,10,11
 2039.67285156 227.388671875 2039.67285156 227.388671875 1967.98046875 116.684570312 c 0,12,13
 1937.48242188 69.5908203125 1937.48242188 69.5908203125 1890.8203125 39.314453125 c 0,14,15
 1799.0234375 -20.244140625 1799.0234375 -20.244140625 1685.15136719 -1.744140625 c 0,16,17
 1613.80175781 9.84765625 1613.80175781 9.84765625 1554.4921875 51.1640625 c 0,18,19
 1539.08886719 61.5732421875 1539.08886719 61.5732421875 1539.08886719 78.115234375 c 128,-1,20
 1539.08886719 94.65625 1539.08886719 94.65625 1549.34472656 104.913085938 c 128,-1,21
 1559.60058594 115.168945312 1559.60058594 115.168945312 1572.4765625 115.168945312 c 128,-1,22
 1585.35351562 115.168945312 1585.35351562 115.168945312 1613.05078125 95.77734375 c 128,-1,23
 1640.74804688 76.38671875 1640.74804688 76.38671875 1712.16699219 64.78515625 c 128,-1,24
 1783.5859375 53.1826171875 1783.5859375 53.1826171875 1852.71777344 98.037109375 c 0,25,26
 1925.73730469 145.415039062 1925.73730469 145.415039062 1935.6171875 226.83203125 c 0,27,28
 1947.66796875 326.157226562 1947.66796875 326.157226562 1862.5546875 385.44140625 c 0,29,30
 1825.54589844 411.21875 1825.54589844 411.21875 1782.36816406 419.361328125 c 128,-1,31
 1739.19042969 427.502929688 1739.19042969 427.502929688 1670.05175781 427.958984375 c 2,32,-1
 1605.77636719 428.3828125 l 2,33,34
 1582.93945312 428.6171875 1582.93945312 428.6171875 1573.875 449.895507812 c 0,35,36
 1571.12988281 456.33984375 1571.12988281 456.33984375 1571.12988281 466.759765625 c 128,-1,37
 1571.12988281 477.180664062 1571.12988281 477.180664062 1580.88183594 487.423828125 c 128,-1,38
 1590.63378906 497.666992188 1590.63378906 497.666992188 1604.41308594 498.345703125 c 2,39,-1
 1679.28808594 501.76171875 l 2,40,41
 1749.02929688 504.942382812 1749.02929688 504.942382812 1791.703125 516.306640625 c 128,-1,42
 1834.37597656 527.669921875 1834.37597656 527.669921875 1869.35253906 559.34765625 c 128,-1,43
 1904.32910156 591.024414062 1904.32910156 591.024414062 1918.13085938 636.853515625 c 128,-1,44
 1931.93359375 682.68359375 1931.93359375 682.68359375 1921.89257812 732.2421875 c 0,45,46
 1901.04003906 835.151367188 1901.04003906 835.151367188 1807.15332031 894.16796875 c 128,-1,47
 1713.26757812 953.185546875 1713.26757812 953.185546875 1598.21679688 957.057617188 c 0,48,49
 1363.77148438 964.948242188 1363.77148438 964.948242188 1239.52539062 813.328125 c 0,50,51
 1179.40234375 739.9609375 1179.40234375 739.9609375 1160.71289062 654.068359375 c 128,-1,52
 1142.0234375 568.174804688 1142.0234375 568.174804688 1142.82128906 434.4453125 c 2,53,-1
 1145.25878906 26.625 l 2,54,55
 1145.18261719 12.2109375 1145.18261719 12.2109375 1134.92675781 2.0087890625 c 128,-1,56
 1124.67089844 -8.1923828125 1124.67089844 -8.1923828125 1110.35644531 -8.1923828125 c 128,-1,57
 1096.04199219 -8.1923828125 1096.04199219 -8.1923828125 1085.78808594 1.865234375 c 128,-1,58
 1075.53417969 11.923828125 1075.53417969 11.923828125 1075.25976562 26.20703125 c 2,59,-1
 1071.9765625 435.294921875 l 2,60,61
 1070.93164062 565.428710938 1070.93164062 565.428710938 1052.82421875 648.997070312 c 128,-1,62
 1034.71679688 732.565429688 1034.71679688 732.565429688 977.065429688 806.220703125 c 128,-1,63
 919.4140625 879.876953125 919.4140625 879.876953125 832.01953125 916.95703125 c 128,-1,64
 744.624023438 954.037109375 744.624023438 954.037109375 649.412109375 949.80859375 c 0,65,66
 455.185546875 941.181640625 455.185546875 941.181640625 319.478515625 806.173828125 c 0,67,68
 175.76953125 663.208984375 175.76953125 663.208984375 170.419921875 460.060546875 c 1,69,70
 212.23046875 556.694335938 212.23046875 556.694335938 309.3046875 617.16015625 c 128,-1,71
 406.37890625 677.625976562 406.37890625 677.625976562 529.2265625 658.607421875 c 128,-1,72
 652.072265625 639.587890625 652.072265625 639.587890625 732.7734375 545.03515625 c 0,73,74
 789.643554688 478.40234375 789.643554688 478.40234375 806.46484375 392.50390625 c 128,-1,75
 823.286132812 306.606445312 823.286132812 306.606445312 795.267578125 223.525390625 c 128,-1,76
 767.249023438 140.444335938 767.249023438 140.444335938 701.309570312 82.44921875 c 128,-1,77
 635.370117188 24.4541015625 635.370117188 24.4541015625 544.41796875 6.7978515625 c 128,-1,78
 453.466796875 -10.8583984375 453.466796875 -10.8583984375 362.029296875 25.201171875 c 128,-1,79
 270.590820312 61.2607421875 270.590820312 61.2607421875 208.8203125 134.5703125 c 0,80,81
 86.583984375 279.640625 86.583984375 279.640625 101.654296875 486.98828125 c 0,82,83
 117.419921875 703.8984375 117.419921875 703.8984375 270.109375 855.798828125 c 0,84,85
 425.018554688 1009.90917969 425.018554688 1009.90917969 641.283203125 1019.51757812 c 0,86,87
 757.361328125 1024.67382812 757.361328125 1024.67382812 860.37890625 980.96484375 c 0,88,89
 1038.18945312 905.521484375 1038.18945312 905.521484375 1105.94921875 713.49609375 c 1,90,91
 1134.28027344 795.336914062 1134.28027344 795.336914062 1185.37988281 857.6953125 c 0,0,1
518.517578125 589.431640625 m 0,92,93
 384.073242188 610.2421875 384.073242188 610.2421875 289.307617188 513.37109375 c 0,94,95
 243.930664062 466.984375 243.930664062 466.984375 219.82421875 389.888671875 c 128,-1,96
 195.717773438 312.791992188 195.717773438 312.791992188 234.69921875 222.517578125 c 0,97,98
 236.826171875 217.735351562 236.826171875 217.735351562 237.4609375 212.541015625 c 0,99,100
 294.645507812 127.020507812 294.645507812 127.020507812 377.404296875 94.3837890625 c 128,-1,101
 460.162109375 61.7470703125 460.162109375 61.7470703125 531.77734375 75.6494140625 c 128,-1,102
 603.391601562 89.5517578125 603.391601562 89.5517578125 655.234375 135.1484375 c 128,-1,103
 706.922851562 180.610351562 706.922851562 180.610351562 729.005859375 246.08984375 c 128,-1,104
 751.021484375 311.374023438 751.021484375 311.374023438 737.749023438 379.151367188 c 128,-1,105
 724.4765625 446.928710938 724.4765625 446.928710938 670.083984375 510.658203125 c 128,-1,106
 615.690429688 574.38671875 615.690429688 574.38671875 518.517578125 589.431640625 c 0,92,93
EndSplineSet
EndChar

StartChar: ch1
Encoding: 111 3354 62
Width: 1503
GlyphClass: 2
Flags: W
LayerCount: 2
Back
Fore
SplineSet
1343 992 m 132,-1,1
 1353 1002 1353 1002 1368 1002.5 c 132,-1,2
 1383 1003 1383 1003 1393 992.5 c 132,-1,3
 1403 982 1403 982 1403 968 c 6,4,-1
 1403 38 l 6,5,6
 1403 24 1403 24 1392.5 13.5 c 132,-1,7
 1382 3 1382 3 1368 3 c 6,8,-1
 36 -1 l 6,9,10
 28.5 -1 l 4,11,12
 21 -1 21 -1 10.5 9 c 132,-1,13
 0 19 0 19 0 33.5 c 132,-1,14
 0 48 0 48 10.5 58.5 c 132,-1,15
 21 69 21 69 35 69 c 4,16,-1
 638 71 l 5,17,18
 748 83 748 83 825 163 c 132,-1,19
 902 243 902 243 909 354 c 4,20,21
 917 483 917 483 831 572 c 4,22,23
 790 614 790 614 733 636 c 132,-1,24
 676 658 676 658 633 653 c 132,-1,25
 590 648 590 648 563 637.5 c 132,-1,26
 536 627 536 627 512 612 c 4,27,28
 409 544 409 544 403 420 c 4,29,30
 400 360 400 360 424 309 c 4,31,32
 427 302 427 302 427 291 c 132,-1,33
 427 280 427 280 417 269.5 c 132,-1,34
 407 259 407 259 395 259 c 4,35,36
 370 259 370 259 360 280 c 4,37,38
 329 348 329 348 332.5 423.5 c 132,-1,39
 336 499 336 499 366.5 553 c 132,-1,40
 397 607 397 607 434 640 c 4,41,42
 526 723 526 723 648 723 c 4,43,44
 785 722 785 722 882 621 c 4,45,46
 989 509 989 509 980 361 c 4,47,48
 968 174 968 174 826 71 c 5,49,-1
 1333 73 l 5,50,-1
 1333 967 l 6,51,0
 1333 982 1333 982 1343 992 c 132,-1,1
EndSplineSet
EndChar

StartChar: ch2
Encoding: 112 3355 63
Width: 2525
GlyphClass: 2
Flags: W
LayerCount: 2
Back
Fore
SplineSet
2400 589 m 4,0,1
 2433 485 2433 485 2423.5 378.5 c 132,-1,2
 2414 272 2414 272 2356.5 179.5 c 132,-1,3
 2299 87 2299 87 2201 36 c 4,4,5
 2031 -52 2031 -52 1864 43 c 4,6,7
 1805 77 1805 77 1760 131 c 4,8,9
 1674 235 1674 235 1665 357 c 4,10,11
 1648 593 1648 593 1799 749 c 4,12,13
 1903 856 1903 856 2052 885 c 5,14,15
 1840 980 1840 980 1627 890 c 4,16,17
 1450 815 1450 815 1368 644 c 4,18,19
 1272 446 1272 446 1358 243 c 4,20,21
 1405 132 1405 132 1494 57 c 4,22,23
 1507 47 1507 47 1506.5 31.5 c 132,-1,24
 1506 16 1506 16 1496 5.5 c 132,-1,25
 1486 -5 1486 -5 1471 -5 c 4,26,-1
 35 2 l 6,27,28
 20 2 20 2 10 12 c 132,-1,29
 0 22 0 22 0 36.5 c 132,-1,30
 0 51 0 51 10.5 61.5 c 132,-1,31
 21 72 21 72 28 72 c 132,-1,32
 35 72 35 72 36 72 c 6,33,-1
 636 69 l 6,34,35
 637 69 637 69 638 69 c 4,36,37
 749 81 749 81 826 162 c 132,-1,38
 903 243 903 243 910 354 c 4,39,40
 918 483 918 483 832 573 c 4,41,42
 791 616 791 616 733.5 637 c 132,-1,43
 676 658 676 658 619 651.5 c 132,-1,44
 562 645 562 645 512 612 c 132,-1,45
 462 579 462 579 434 529.5 c 132,-1,46
 406 480 406 480 403.5 420 c 132,-1,47
 401 360 401 360 424 309 c 4,48,49
 427 302 427 302 427.5 290.5 c 132,-1,50
 428 279 428 279 417.5 269 c 132,-1,51
 407 259 407 259 395 259 c 4,52,53
 370 259 370 259 360 280 c 4,54,55
 329 348 329 348 332.5 424 c 132,-1,56
 336 500 336 500 373 564.5 c 132,-1,57
 410 629 410 629 473 671 c 4,58,59
 594 751 594 751 735 710 c 4,60,61
 821 685 821 685 877 627 c 4,62,63
 990 510 990 510 981 361 c 4,64,65
 969 172 969 172 824 68 c 5,66,-1
 1386 66 l 5,67,68
 1313 150 1313 150 1277.5 257.5 c 132,-1,69
 1242 365 1242 365 1250 472 c 4,70,71
 1267 691 1267 691 1427 841 c 4,72,73
 1583 989 1583 989 1793.5 1000.5 c 132,-1,74
 2004 1012 2004 1012 2171.5 897.5 c 132,-1,75
 2339 783 2339 783 2400 589 c 4,0,1
2154 824 m 5,76,77
 2066 826 2066 826 1986 792 c 132,-1,78
 1906 758 1906 758 1847.5 698 c 132,-1,79
 1789 638 1789 638 1758 553.5 c 132,-1,80
 1727 469 1727 469 1734.5 365.5 c 132,-1,81
 1742 262 1742 262 1814 175 c 4,82,83
 1890 83 1890 83 1989.5 70 c 132,-1,84
 2089 57 2089 57 2169.5 98.5 c 132,-1,85
 2250 140 2250 140 2298 217 c 4,86,87
 2395 373 2395 373 2334 568 c 4,88,89
 2285 724 2285 724 2154 824 c 5,76,77
EndSplineSet
EndChar

StartChar: ch3
Encoding: 113 3356 64
Width: 1536
GlyphClass: 2
Flags: W
LayerCount: 2
Back
Fore
SplineSet
782.16796875 839.288085938 m 5,0,1
 807.047851562 908.306640625 807.047851562 908.306640625 862.37890625 965.404296875 c 132,-1,2
 917.708984375 1022.50097656 917.708984375 1022.50097656 1005.42773438 1041.54101562 c 132,-1,3
 1093.14648438 1060.58105469 1093.14648438 1060.58105469 1193.61035156 1028.81054688 c 132,-1,4
 1294.07519531 997.0390625 1294.07519531 997.0390625 1364.09960938 902.793945312 c 132,-1,5
 1434.125 808.548828125 1434.125 808.548828125 1430.39453125 710.109375 c 4,6,7
 1422.75292969 508.459960938 1422.75292969 508.459960938 1251.82226562 392.420898438 c 5,8,9
 1355.53417969 373.408203125 1355.53417969 373.408203125 1401.04785156 301.520507812 c 132,-1,10
 1446.56054688 229.631835938 1446.56054688 229.631835938 1433.96484375 155.084960938 c 132,-1,11
 1421.3984375 80.7138671875 1421.3984375 80.7138671875 1362.4375 33.5361328125 c 132,-1,12
 1303.61621094 -13.53125 1303.61621094 -13.53125 1228.29101562 -9.7236328125 c 132,-1,13
 1153.14355469 -5.9267578125 1153.14355469 -5.9267578125 1099.19921875 46.6572265625 c 4,14,15
 1023.45214844 120.493164062 1023.45214844 120.493164062 1042.43164062 227.211914062 c 4,16,17
 1049.85253906 266.017578125 1049.85253906 266.017578125 1072.24023438 299.749023438 c 5,18,19
 1001.1484375 271.791992188 1001.1484375 271.791992188 881.96875 199.270507812 c 132,-1,20
 762.788085938 126.748046875 762.788085938 126.748046875 737.087890625 112.079101562 c 4,21,22
 562.629882812 12.5048828125 562.629882812 12.5048828125 432.935546875 -4.1953125 c 4,23,24
 219.463867188 -31.681640625 219.463867188 -31.681640625 140.453125 101.637695312 c 4,25,26
 108.620117188 155.3515625 108.620117188 155.3515625 115.974609375 210.48828125 c 4,27,28
 130.141601562 316.709960938 130.141601562 316.709960938 240.30859375 364.879882812 c 4,29,30
 307.54296875 394.278320312 307.54296875 394.278320312 394.806640625 392.80078125 c 132,-1,31
 482.071289062 391.323242188 482.071289062 391.323242188 567.635742188 383.706054688 c 132,-1,32
 653.19921875 376.088867188 653.19921875 376.088867188 712.470703125 369.916992188 c 4,33,34
 890.669921875 351.361328125 890.669921875 351.361328125 992.845703125 369.999023438 c 4,35,36
 1143.92382812 392.094726562 1143.92382812 392.094726562 1240.77539062 471.362304688 c 4,37,38
 1354.83496094 564.711914062 1354.83496094 564.711914062 1359.74414062 694.313476562 c 4,39,40
 1363.24023438 786.583984375 1363.24023438 786.583984375 1307.3125 861.853515625 c 132,-1,41
 1251.38574219 937.122070312 1251.38574219 937.122070312 1170.58984375 962.672851562 c 4,42,43
 1007.26171875 1014.32324219 1007.26171875 1014.32324219 904.373046875 908.149414062 c 4,44,45
 857.51953125 859.80078125 857.51953125 859.80078125 843.095703125 802.612304688 c 132,-1,46
 828.672851562 745.423828125 828.672851562 745.423828125 828.2265625 702.65625 c 132,-1,47
 827.780273438 659.889648438 827.780273438 659.889648438 826.755859375 639.782226562 c 6,48,-1
 824.41796875 514.512695312 l 6,49,50
 824.008789062 500.442382812 824.008789062 500.442382812 813.7578125 490.483398438 c 132,-1,51
 803.505859375 480.525390625 803.505859375 480.525390625 789.23046875 480.525390625 c 132,-1,52
 774.955078125 480.525390625 774.955078125 480.525390625 764.69921875 490.76953125 c 132,-1,53
 754.442382812 501.014648438 754.442382812 501.014648438 754.42578125 515.489257812 c 6,54,-1
 754.42578125 515.819335938 l 5,55,-1
 755.5625 638.965820312 l 6,56,57
 755.798828125 664.55859375 755.798828125 664.55859375 756.326171875 681.784179688 c 4,58,59
 749.1875 775.73828125 749.1875 775.73828125 704.40234375 834.396484375 c 4,60,61
 622.981445312 941.038085938 622.981445312 941.038085938 512.1875 964.939453125 c 4,62,63
 373.298828125 994.901367188 373.298828125 994.901367188 269.669921875 912.454101562 c 5,64,65
 343.353515625 926.26953125 343.353515625 926.26953125 416.048828125 890.654296875 c 132,-1,66
 488.745117188 855.040039062 488.745117188 855.040039062 520.619140625 773.602539062 c 132,-1,67
 552.4921875 692.166015625 552.4921875 692.166015625 525.481445312 622.345703125 c 4,68,69
 471.029296875 481.590820312 471.029296875 481.590820312 337.626953125 473.565429688 c 4,70,71
 277.174804688 469.928710938 277.174804688 469.928710938 224.235351562 499.58984375 c 132,-1,72
 171.295898438 529.25 171.295898438 529.25 140.412109375 579.484375 c 4,73,74
 76.69140625 683.1328125 76.69140625 683.1328125 113.443359375 801.500976562 c 4,75,76
 151.12890625 932.19140625 151.12890625 932.19140625 270.931640625 997.470703125 c 132,-1,77
 390.734375 1062.74902344 390.734375 1062.74902344 524.92578125 1033.80175781 c 4,78,79
 698.951171875 996.259765625 698.951171875 996.259765625 782.16796875 839.288085938 c 5,0,1
379.416015625 830.653320312 m 132,-1,81
 325.344726562 857.143554688 325.344726562 857.143554688 267.5859375 840.120117188 c 132,-1,82
 209.830078125 823.096679688 209.830078125 823.096679688 178.76953125 771.512695312 c 4,83,84
 178.173828125 770.491210938 178.173828125 770.491210938 177.51171875 769.518554688 c 4,85,86
 158.215820312 684.182617188 158.215820312 684.182617188 198.96875 617.895507812 c 4,87,88
 247.904296875 538.295898438 247.904296875 538.295898438 333.423828125 543.440429688 c 4,89,90
 374.131835938 545.889648438 374.131835938 545.889648438 407.23046875 571.068359375 c 132,-1,91
 440.329101562 596.248046875 440.329101562 596.248046875 458.853515625 644.1328125 c 132,-1,92
 477.37890625 692.018554688 477.37890625 692.018554688 455.43359375 748.090820312 c 132,-1,80
 433.48828125 804.162109375 433.48828125 804.162109375 379.416015625 830.653320312 c 132,-1,81
1207.34375 327.051757812 m 5,93,94
 1201.49023438 314.596679688 1201.49023438 314.596679688 1180.62304688 305.99609375 c 132,-1,95
 1159.75585938 297.395507812 1159.75585938 297.395507812 1138.41699219 271.142578125 c 132,-1,96
 1117.07910156 244.889648438 1117.07910156 244.889648438 1111.18359375 214.063476562 c 4,97,98
 1098.07421875 145.506835938 1098.07421875 145.506835938 1140.57324219 104.079101562 c 132,-1,99
 1183.07128906 62.65234375 1183.07128906 62.65234375 1231.8203125 60.1884765625 c 132,-1,100
 1280.62011719 57.7216796875 1280.62011719 57.7216796875 1318.69921875 88.1923828125 c 132,-1,101
 1356.82128906 118.697265625 1356.82128906 118.697265625 1364.93945312 166.747070312 c 132,-1,102
 1373.06640625 214.848632812 1373.06640625 214.848632812 1349.02734375 252.8203125 c 4,103,104
 1304.33007812 323.420898438 1304.33007812 323.420898438 1207.34375 327.051757812 c 5,93,94
646.65625 305.151367188 m 132,-1,106
 483.188476562 321.293945312 483.188476562 321.293945312 445.75 321.9296875 c 132,-1,107
 408.311523438 322.564453125 408.311523438 322.564453125 362.59765625 322.263671875 c 132,-1,108
 316.8828125 321.961914062 316.8828125 321.961914062 275.509765625 303.872070312 c 4,109,110
 194.309570312 268.368164062 194.309570312 268.368164062 185.822265625 204.721679688 c 4,111,112
 181.212890625 170.158203125 181.212890625 170.158203125 200.224609375 138.078125 c 132,-1,113
 219.237304688 105.997070312 219.237304688 105.997070312 268.19921875 78.7353515625 c 132,-1,114
 317.16015625 51.4736328125 317.16015625 51.4736328125 428.5546875 65.8173828125 c 4,115,116
 555.088867188 82.1103515625 555.088867188 82.1103515625 765.263671875 210.108398438 c 4,117,118
 800.435546875 231.528320312 800.435546875 231.528320312 836.701171875 253.682617188 c 132,-1,119
 872.966796875 275.8359375 872.966796875 275.8359375 900.986328125 292.006835938 c 5,120,105
 810.125 289.008789062 810.125 289.008789062 646.65625 305.151367188 c 132,-1,106
EndSplineSet
EndChar

StartChar: ch4
Encoding: 114 3357 65
Width: 3144
GlyphClass: 2
Flags: W
LayerCount: 2
Back
Fore
SplineSet
179.6640625 782.115234375 m 128,-1,1
 259.500976562 914.118164062 259.500976562 914.118164062 395.197265625 985.07421875 c 128,-1,2
 530.89453125 1056.03027344 530.89453125 1056.03027344 662.208007812 1049.54199219 c 128,-1,3
 793.521484375 1043.05371094 793.521484375 1043.05371094 894.677734375 997.470703125 c 1,4,5
 1066.73730469 1065.953125 1066.73730469 1065.953125 1247.55566406 1022.99902344 c 128,-1,6
 1428.37304688 980.044921875 1428.37304688 980.044921875 1527.03515625 831.97265625 c 0,7,8
 1574.17871094 761.221679688 1574.17871094 761.221679688 1591.10839844 687.514648438 c 128,-1,9
 1608.03710938 613.80859375 1608.03710938 613.80859375 1614.22460938 510.751953125 c 2,10,-1
 1618.91796875 432.55859375 l 2,11,12
 1623.93847656 348.930664062 1623.93847656 348.930664062 1634.39257812 298.908203125 c 0,13,14
 1658.31738281 184.421875 1658.31738281 184.421875 1749.00488281 139.03125 c 128,-1,15
 1839.69238281 93.6396484375 1839.69238281 93.6396484375 1918.41503906 176.55078125 c 128,-1,16
 1997.13867188 259.461914062 1997.13867188 259.461914062 1998.84765625 461.267578125 c 0,17,18
 1999 501 1999 501 1997.89453125 541.119140625 c 2,19,-1
 1990.2421875 938.94140625 l 2,20,21
 1990.24121094 968.291992188 1990.24121094 968.291992188 2010.75292969 988.8046875 c 128,-1,22
 2031.265625 1009.31640625 2031.265625 1009.31640625 2059.76464844 1009.31640625 c 128,-1,23
 2088.26367188 1009.31640625 2088.26367188 1009.31640625 2108.76367188 989.500976562 c 128,-1,24
 2129.26464844 969.684570312 2129.26464844 969.684570312 2130.21484375 941.685546875 c 2,25,-1
 2138.11328125 546.3359375 l 2,26,27
 2139.21875 491.043945312 2139.21875 491.043945312 2139.21875 466.44921875 c 0,28,29
 2153.2421875 341.614257812 2153.2421875 341.614257812 2234.22070312 250.955078125 c 0,30,31
 2285.11425781 193.978515625 2285.11425781 193.978515625 2357.30078125 160.000976562 c 0,32,33
 2507.69921875 89.2109375 2507.69921875 89.2109375 2663.83984375 151.442382812 c 128,-1,34
 2819.98046875 213.673828125 2819.98046875 213.673828125 2879.31542969 372.852539062 c 128,-1,35
 2938.63183594 531.98046875 2938.63183594 531.98046875 2860.52441406 682.7734375 c 128,-1,36
 2782.41601562 833.568359375 2782.41601562 833.568359375 2618.22167969 876.920898438 c 0,37,38
 2537.89648438 898.129882812 2537.89648438 898.129882812 2459.59960938 885.556640625 c 0,39,40
 2453.62597656 884.515625 2453.62597656 884.515625 2436.10839844 884.515625 c 128,-1,41
 2418.58984375 884.515625 2418.58984375 884.515625 2398.07714844 905.028320312 c 128,-1,42
 2377.56542969 925.540039062 2377.56542969 925.540039062 2377.56542969 952.55078125 c 128,-1,43
 2377.56542969 979.561523438 2377.56542969 979.561523438 2395.09765625 999.85546875 c 128,-1,44
 2412.62988281 1020.15039062 2412.62988281 1020.15039062 2437.40234375 1023.78710938 c 0,45,46
 2546.10644531 1041.2421875 2546.10644531 1041.2421875 2654.08007812 1012.73339844 c 128,-1,47
 2762.0546875 984.225585938 2762.0546875 984.225585938 2847.97070312 915.3828125 c 128,-1,48
 2933.88867188 846.541015625 2933.88867188 846.541015625 2985.25195312 747.379882812 c 128,-1,49
 3036.61425781 648.21875 3036.61425781 648.21875 3043.27734375 538.32421875 c 128,-1,50
 3049.94140625 428.431640625 3049.94140625 428.431640625 3010.93457031 323.791015625 c 128,-1,51
 2971.92773438 219.151367188 2971.92773438 219.151367188 2894.95703125 140.431640625 c 128,-1,52
 2817.98632812 61.712890625 2817.98632812 61.712890625 2714.24902344 20.3671875 c 0,53,54
 2503.08398438 -63.794921875 2503.08398438 -63.794921875 2297.5078125 32.96484375 c 0,55,56
 2174.54980469 90.8388671875 2174.54980469 90.8388671875 2096.08789062 199.72265625 c 1,57,58
 2021.19673266 18.3951844001 2021.19673266 18.3951844001 1857.61816406 -9.96875 c 0,59,60
 1765.73730469 -25.900390625 1765.73730469 -25.900390625 1685.18457031 14.4169921875 c 0,61,62
 1535.12695312 89.5205078125 1535.12695312 89.5205078125 1495.375 279.736328125 c 0,63,64
 1484.80273438 330.326171875 1484.80273438 330.326171875 1479.16992188 424.16796875 c 2,65,-1
 1474.4765625 502.361328125 l 2,66,67
 1468.98730469 593.810546875 1468.98730469 593.810546875 1456.22851562 649.360351562 c 128,-1,68
 1443.46972656 704.909179688 1443.46972656 704.909179688 1410.65527344 754.15625 c 0,69,70
 1342.4140625 856.5703125 1342.4140625 856.5703125 1209.04101562 888.251953125 c 0,71,72
 1133.29492188 906.24609375 1133.29492188 906.24609375 1050.85546875 894.474609375 c 1,73,74
 1236.15039062 724.400390625 1236.15039062 724.400390625 1251.97460938 470.7578125 c 0,75,76
 1263.5 286.046875 1263.5 286.046875 1172.52734375 153.240234375 c 0,77,78
 1120.85546875 77.8076171875 1120.85546875 77.8076171875 1041.73046875 33.0849609375 c 128,-1,79
 962.60546875 -11.6376953125 962.60546875 -11.6376953125 871.487304688 -9.431640625 c 128,-1,80
 780.370117188 -7.2255859375 780.370117188 -7.2255859375 703.348632812 41.521484375 c 128,-1,81
 626.327148438 90.2685546875 626.327148438 90.2685546875 578.400390625 168.44921875 c 0,82,83
 494.106445312 305.95703125 494.106445312 305.95703125 515.01953125 490.3984375 c 0,84,85
 528.588867188 610.069335938 528.588867188 610.069335938 585.59765625 717.649414062 c 128,-1,86
 642.607421875 825.229492188 642.607421875 825.229492188 734.34765625 901.947265625 c 1,87,88
 589.43359375 928.65625 589.43359375 928.65625 474.241210938 868.422851562 c 128,-1,89
 359.047851562 808.189453125 359.047851562 808.189453125 299.458984375 709.6640625 c 128,-1,90
 239.872070312 611.139648438 239.872070312 611.139648438 240 495.998046875 c 128,-1,91
 240.127929688 380.858398438 240.127929688 380.858398438 299.93359375 282.466796875 c 128,-1,92
 359.740234375 184.076171875 359.740234375 184.076171875 461.892578125 130.94921875 c 0,93,94
 477.868164062 122.926757812 477.868164062 122.926757812 489.174804688 104.595703125 c 128,-1,95
 500.481445312 86.265625 500.481445312 86.265625 500.481445312 67.82421875 c 128,-1,96
 500.481445312 49.3818359375 500.481445312 49.3818359375 485.663085938 23.8818359375 c 128,-1,97
 470.844726562 -1.6181640625 470.844726562 -1.6181640625 441.838867188 -1.6181640625 c 128,-1,98
 412.83203125 -1.6181640625 412.83203125 -1.6181640625 397.296875 6.7421875 c 0,99,100
 260.431640625 77.923828125 260.431640625 77.923828125 180.30078125 209.748046875 c 128,-1,101
 100.171875 341.57421875 100.171875 341.57421875 100 495.841796875 c 128,-1,0
 99.8291015625 650.11328125 99.8291015625 650.11328125 179.6640625 782.115234375 c 128,-1,1
891.435546875 840.7890625 m 1,102,103
 780.375976562 778.741210938 780.375976562 778.741210938 714.825195312 661.4140625 c 0,104,105
 665.247070312 572.67578125 665.247070312 572.67578125 651.9453125 455.364257812 c 128,-1,106
 638.64453125 338.053710938 638.64453125 338.053710938 701.431640625 235.62890625 c 128,-1,107
 764.219726562 133.205078125 764.219726562 133.205078125 874.829101562 130.52734375 c 128,-1,108
 985.439453125 127.849609375 985.439453125 127.849609375 1053.10546875 226.630859375 c 128,-1,109
 1120.77148438 325.413085938 1120.77148438 325.413085938 1112.9609375 450.586914062 c 128,-1,110
 1105.15136719 575.760742188 1105.15136719 575.760742188 1045.4921875 678.650390625 c 128,-1,111
 985.833984375 781.540039062 985.833984375 781.540039062 891.435546875 840.7890625 c 1,102,103
EndSplineSet
EndChar

StartChar: nj
Encoding: 115 3358 66
Width: 2556
GlyphClass: 2
Flags: W
LayerCount: 2
Back
Fore
SplineSet
1050 734 m 5,0,1
 1113 914 1113 914 1281 982 c 4,2,3
 1377 1021 1377 1021 1486 1014.5 c 132,-1,4
 1595 1008 1595 1008 1698 957 c 5,5,6
 1904 1062 1904 1062 2111 983 c 4,7,8
 2240 934 2240 934 2315 843 c 4,9,10
 2459 670 2459 670 2456 457 c 4,11,12
 2454 321 2454 321 2391 196.5 c 132,-1,13
 2328 72 2328 72 2219 -10 c 4,14,15
 2210 -17 2210 -17 2196.5 -17.5 c 132,-1,16
 2183 -18 2183 -18 2173 -7.5 c 132,-1,17
 2163 3 2163 3 2163 19 c 132,-1,18
 2163 35 2163 35 2177 45 c 4,19,20
 2272 117 2272 117 2328.5 228 c 132,-1,21
 2385 339 2385 339 2387 443 c 4,22,23
 2390 645 2390 645 2274 784 c 4,24,25
 2154 928 2154 928 1974 944 c 4,26,27
 1873 953 1873 953 1771 914 c 5,28,29
 1932 803 1932 803 2001 609 c 4,30,31
 2024 544 2024 544 2034 475 c 4,32,33
 2061 287 2061 287 1982 150 c 4,34,35
 1937 71 1937 71 1861 23.5 c 132,-1,36
 1785 -24 1785 -24 1700 -21.5 c 132,-1,37
 1615 -19 1615 -19 1546 26.5 c 132,-1,38
 1477 72 1477 72 1434 144 c 4,39,40
 1360 268 1360 268 1373 443 c 4,41,42
 1392 691 1392 691 1557 855 c 4,43,44
 1589 886 1589 886 1626 913 c 5,45,46
 1458 978 1458 978 1310 919 c 4,47,48
 1142 851 1142 851 1101 662 c 4,49,50
 1088 600 1088 600 1088 481 c 6,51,-1
 1088 14 l 5,52,-1
 1088 14 l 6,53,54
 1088 0 1088 0 1078 -10 c 132,-1,55
 1068 -20 1068 -20 1054 -20 c 132,-1,56
 1040 -20 1040 -20 1029.5 -10 c 132,-1,57
 1019 0 1019 0 1019 14 c 6,58,-1
 1017 477 l 6,59,60
 1016 645 1016 645 975 732 c 4,61,62
 920 849 920 849 804 902.5 c 132,-1,63
 688 956 688 956 566.5 938 c 132,-1,64
 445 920 445 920 349.5 841.5 c 132,-1,65
 254 763 254 763 207 648 c 4,66,67
 158 526 158 526 171 393 c 5,68,69
 212 516 212 516 329 572 c 4,70,71
 442 627 442 627 561 588 c 4,72,73
 682 548 682 548 739 435 c 4,74,75
 797 321 797 321 757 200 c 4,76,77
 717 79 717 79 602 23 c 4,78,79
 507 -23 507 -23 402 -0 c 4,80,81
 397 -2 397 -2 392 -2 c 132,-1,82
 387 -2 387 -2 382 -1 c 4,83,84
 279 26 279 26 219 108 c 4,85,86
 218 109 218 109 214 113 c 4,87,88
 113 225 113 225 102 385 c 132,-1,89
 91 545 91 545 143.5 675 c 132,-1,90
 196 805 196 805 305.5 895 c 132,-1,91
 415 985 415 985 556.5 1006.5 c 132,-1,92
 698 1028 698 1028 827 968 c 4,93,94
 988 894 988 894 1050 734 c 5,0,1
1698 878 m 5,95,96
 1560 795 1560 795 1492 639 c 4,97,98
 1450 543 1450 543 1440 414 c 132,-1,99
 1430 285 1430 285 1493 180 c 4,100,101
 1528 122 1528 122 1582.5 86 c 132,-1,102
 1637 50 1637 50 1701.5 48 c 132,-1,103
 1766 46 1766 46 1825.5 83 c 132,-1,104
 1885 120 1885 120 1922 184 c 4,105,106
 1989 300 1989 300 1965 465 c 4,107,108
 1937 661 1937 661 1806 794 c 4,109,110
 1758 843 1758 843 1698 878 c 5,95,96
620 476 m 4,111,112
 516 565 516 565 388 521 c 4,113,114
 280 484 280 484 239 378 c 4,115,116
 193 256 193 256 272 153 c 5,117,118
 363 56 363 56 482 62 c 4,119,120
 580 67 580 67 646 141 c 4,121,122
 711 215 711 215 703 314 c 4,123,124
 695 412 695 412 620 476 c 4,111,112
EndSplineSet
EndChar

StartChar: t1
Encoding: 116 3359 67
Width: 1174
GlyphClass: 2
Flags: W
LayerCount: 2
Back
Fore
SplineSet
375 997 m 0,0,1
 590 1049 590 1049 765 1001.5 c 128,-1,2
 940 954 940 954 1062 850 c 0,3,4
 1075 839 1075 839 1074.5 824 c 128,-1,5
 1074 809 1074 809 1064 798.5 c 128,-1,6
 1054 788 1054 788 1040 788 c 128,-1,7
 1026 788 1026 788 1016 797 c 0,8,9
 906 890 906 890 748 933.5 c 128,-1,10
 590 977 590 977 392 929 c 0,11,12
 250 895 250 895 198 818 c 0,13,14
 157 758 157 758 178 691 c 0,15,16
 216 567 216 567 399 540 c 0,17,18
 455 532 455 532 542 539.5 c 128,-1,19
 629 547 629 547 661.5 551 c 128,-1,20
 694 555 694 555 768 551 c 0,21,22
 935 542 935 542 1018 442 c 0,23,24
 1070 380 1070 380 1071 299 c 128,-1,25
 1072 218 1072 218 1014.5 154.5 c 128,-1,26
 957 91 957 91 872 54 c 0,27,28
 592 -63 592 -63 300 65 c 0,29,30
 203 107 203 107 119 172 c 0,31,32
 105 183 105 183 105.5 199 c 128,-1,33
 106 215 106 215 116 225 c 128,-1,34
 126 235 126 235 139.5 235 c 128,-1,35
 153 235 153 235 163 227 c 0,36,37
 355 77 355 77 587 70 c 0,38,39
 721 66 721 66 818 108 c 0,40,41
 1003 187 1003 187 1001 304 c 0,42,43
 1000 354 1000 354 965.5 395.5 c 128,-1,44
 931 437 931 437 863 464 c 0,45,46
 792 492 792 492 597 473 c 0,47,48
 406 456 406 456 309 487 c 0,49,50
 152 537 152 537 110 671 c 0,51,52
 80 769 80 769 140 858 c 0,53,54
 207 956 207 956 375 997 c 0,0,1
EndSplineSet
EndChar

StartChar: t2
Encoding: 117 3360 68
Width: 1214
GlyphClass: 2
Flags: W
LayerCount: 2
Back
Fore
SplineSet
423.594726562 985 m 128,-1,1
 513.094726562 1020 513.094726562 1020 611.094726562 1020 c 128,-1,2
 709.094726562 1020 709.094726562 1020 802.594726562 981 c 128,-1,3
 896.094726562 942 896.094726562 942 966.094726562 872 c 0,4,5
 1114.09472656 724 1114.09472656 724 1114.59472656 514 c 128,-1,6
 1115.09472656 304 1115.09472656 304 966.594726562 156 c 128,-1,7
 818.094726562 8 818.094726562 8 609.094726562 7 c 0,8,9
 504.094726562 7 504.094726562 7 406.094726562 50 c 0,10,11
 239.094726562 122 239.094726562 122 157.094726562 283 c 0,12,13
 92.0947265625 411 92.0947265625 411 101.094726562 529.5 c 128,-1,14
 110.094726562 648 110.094726562 648 152.094726562 734.5 c 128,-1,15
 194.094726562 821 194.094726562 821 264.094726562 885.5 c 128,-1,0
 334.094726562 950 334.094726562 950 423.594726562 985 c 128,-1,1
748.594726562 851.5 m 128,-1,17
 680.094726562 880 680.094726562 880 610.094726562 880 c 0,18,19
 464.094726562 880 464.094726562 880 358.594726562 782.5 c 128,-1,20
 253.094726562 685 253.094726562 685 242.094726562 542 c 0,21,22
 236.094726562 467 236.094726562 467 262.094726562 393 c 128,-1,23
 288.094726562 319 288.094726562 319 339.094726562 264.5 c 128,-1,24
 390.094726562 210 390.094726562 210 462.094726562 178.5 c 128,-1,25
 534.094726562 147 534.094726562 147 607.094726562 147 c 0,26,27
 761.094726562 147 761.094726562 147 868.094726562 254.5 c 128,-1,28
 975.094726562 362 975.094726562 362 975.094726562 513.5 c 128,-1,29
 975.094726562 665 975.094726562 665 867.094726562 773 c 0,30,16
 817.094726562 823 817.094726562 823 748.594726562 851.5 c 128,-1,17
EndSplineSet
EndChar

StartChar: t4
Encoding: 119 3362 70
Width: 2777
GlyphClass: 2
Flags: W
LayerCount: 2
Back
Fore
SplineSet
2109 984 m 0,0,1
 2234 1042 2234 1042 2353 1009.5 c 128,-1,2
 2472 977 2472 977 2542 903 c 1,3,4
 2611 836 2611 836 2645.5 746 c 128,-1,5
 2680 656 2680 656 2677 564 c 0,6,7
 2672 367 2672 367 2548 222 c 1,8,9
 2402 42 2402 42 2167 -7.5 c 128,-1,10
 1932 -57 1932 -57 1723 37 c 0,11,12
 1601 93 1601 93 1530 213 c 1,13,14
 1464 97 1464 97 1347.5 34.5 c 128,-1,15
 1231 -28 1231 -28 1102 -6 c 1,16,17
 1000 6 1000 6 918.5 70 c 128,-1,18
 837 134 837 134 798 229 c 128,-1,19
 759 324 759 324 773 424 c 0,20,21
 774 437 774 437 783 509 c 128,-1,22
 792 581 792 581 793 615 c 0,23,24
 794 716 794 716 752 758 c 1,25,26
 710 817 710 817 634.5 839.5 c 128,-1,27
 559 862 559 862 482.5 844.5 c 128,-1,28
 406 827 406 827 350 771 c 0,29,30
 208 640 208 640 257 414 c 0,31,32
 286 278 286 278 389 197 c 0,33,34
 390 196 390 196 390 195 c 0,35,36
 451 144 451 144 525 119 c 0,37,38
 545 112 545 112 559 93 c 128,-1,39
 573 74 573 74 573 49 c 128,-1,40
 573 24 573 24 552.5 3.5 c 128,-1,41
 532 -17 532 -17 511.5 -17 c 128,-1,42
 491 -17 491 -17 480 -13 c 0,43,44
 263 61 263 61 159.5 266.5 c 128,-1,45
 56 472 56 472 132 687 c 0,46,47
 170 795 170 795 253 873 c 0,48,49
 314 935 314 935 398.5 966.5 c 128,-1,50
 483 998 483 998 567.5 995.5 c 128,-1,51
 652 993 652 993 732.5 953 c 128,-1,52
 813 913 813 913 865 840 c 0,53,54
 948 732 948 732 928 544 c 0,55,56
 924 508 924 508 919 468.5 c 128,-1,57
 914 429 914 429 913 418.5 c 128,-1,58
 912 408 912 408 908.5 384.5 c 128,-1,59
 905 361 905 361 919 313.5 c 128,-1,60
 933 266 933 266 961 229 c 0,61,62
 1025 144 1025 144 1119 133 c 0,63,64
 1121 133 1121 133 1123 132 c 0,65,66
 1197 119 1197 119 1269.5 154 c 128,-1,67
 1342 189 1342 189 1389.5 255 c 128,-1,68
 1437 321 1437 321 1447 404 c 128,-1,69
 1457 487 1457 487 1460 679 c 128,-1,70
 1463 871 1463 871 1464 908 c 0,71,72
 1467 999 1467 999 1536 1000 c 0,73,74
 1564 1000 1564 1000 1584.5 979.5 c 128,-1,75
 1605 959 1605 959 1605 930 c 2,76,-1
 1605 929 l 2,77,78
 1605 892 1605 892 1603 766 c 2,79,-1
 1599 491 l 1,80,81
 1596 388 1596 388 1645 296 c 128,-1,82
 1694 204 1694 204 1777 166 c 0,83,84
 1943 90 1943 90 2135.5 131 c 128,-1,85
 2328 172 2328 172 2440 311 c 0,86,87
 2441 312 2441 312 2441 313 c 0,88,89
 2491 371 2491 371 2515 449 c 1,90,91
 2448 372 2448 372 2349.5 343 c 128,-1,92
 2251 314 2251 314 2149 348 c 0,93,94
 2016 388 2016 388 1954 512 c 128,-1,95
 1892 636 1892 636 1923 759 c 0,96,97
 1940 824 1940 824 1981 876 c 0,98,99
 2032 948 2032 948 2109 984 c 0,0,1
2437 757 m 0,100,101
 2378 871 2378 871 2230 871 c 4,102,103
 2226 871 2226 871 2224 872 c 4,104,105
 2138 857 2138 857 2094 793 c 0,106,107
 2093 791 2093 791 2092 790 c 0,108,109
 2064 754 2064 754 2058.5 705 c 128,-1,110
 2053 656 2053 656 2067 611.5 c 128,-1,111
 2081 567 2081 567 2114 531 c 128,-1,112
 2147 495 2147 495 2191 482 c 1,113,114
 2265 445 2265 445 2354 500 c 128,-1,115
 2443 555 2443 555 2456 654 c 0,116,117
 2464 706 2464 706 2437 757 c 0,100,101
EndSplineSet
EndChar

StartChar: nh
Encoding: 120 3363 71
Width: 2864
GlyphClass: 2
Flags: W
LayerCount: 2
Back
Fore
SplineSet
660.255859375 1028.48046875 m 4,0,1
 770.330078125 1030.4296875 770.330078125 1030.4296875 871.517578125 983.22265625 c 4,2,3
 1036.33691406 906.329101562 1036.33691406 906.329101562 1103.22851562 727.243164062 c 5,4,5
 1152.71289062 886.237304688 1152.71289062 886.237304688 1276.69726562 967.692382812 c 4,6,7
 1368.44921875 1027.97363281 1368.44921875 1027.97363281 1473.40234375 1027.50390625 c 132,-1,8
 1578.35644531 1027.03515625 1578.35644531 1027.03515625 1665.52929688 969.625 c 4,9,10
 1790.91601562 887.047851562 1790.91601562 887.047851562 1841.2734375 730.735351562 c 5,11,12
 1871.71191406 816.912109375 1871.71191406 816.912109375 1927.1875 880.606445312 c 4,13,14
 2007.9375 973.321289062 2007.9375 973.321289062 2123.82617188 1007.93554688 c 132,-1,15
 2239.71386719 1042.54980469 2239.71386719 1042.54980469 2347.4921875 1018.67382812 c 132,-1,16
 2455.26953125 994.798828125 2455.26953125 994.798828125 2536.25097656 940.587890625 c 132,-1,17
 2617.23242188 886.375976562 2617.23242188 886.375976562 2672.05664062 807.762695312 c 132,-1,18
 2726.88085938 729.1484375 2726.88085938 729.1484375 2749.76660156 634.421875 c 132,-1,19
 2772.65332031 539.696289062 2772.65332031 539.696289062 2759.76757812 444.723632812 c 132,-1,20
 2746.88183594 349.750976562 2746.88183594 349.750976562 2699.58300781 264.546875 c 132,-1,21
 2652.28515625 179.342773438 2652.28515625 179.342773438 2578.49609375 118.178710938 c 4,22,23
 2424.17675781 -9.7392578125 2424.17675781 -9.7392578125 2223.99609375 0.6201171875 c 4,24,25
 2210.04492188 1.1396484375 2210.04492188 1.1396484375 2200.171875 11.388671875 c 132,-1,26
 2190.29785156 21.6376953125 2190.29785156 21.6376953125 2190.29785156 35.8642578125 c 132,-1,27
 2190.29785156 50.0908203125 2190.29785156 50.0908203125 2200.55371094 60.3466796875 c 132,-1,28
 2210.80957031 70.6025390625 2210.80957031 70.6025390625 2218.6328125 70.6025390625 c 132,-1,29
 2226.45605469 70.6025390625 2226.45605469 70.6025390625 2227.61328125 70.5263671875 c 4,30,31
 2400.5234375 61.5791015625 2400.5234375 61.5791015625 2533.82421875 172.071289062 c 132,-1,32
 2667.12402344 282.56640625 2667.12402344 282.56640625 2690.40234375 454.135742188 c 132,-1,33
 2713.67871094 625.705078125 2713.67871094 625.705078125 2614.63867188 767.721679688 c 132,-1,34
 2515.59765625 909.737304688 2515.59765625 909.737304688 2346.5546875 947.184570312 c 4,35,36
 2242.32324219 970.274414062 2242.32324219 970.274414062 2144.86328125 941.1640625 c 132,-1,37
 2047.40429688 912.053710938 2047.40429688 912.053710938 1981.57226562 836.466796875 c 132,-1,38
 1915.74023438 760.879882812 1915.74023438 760.879882812 1895.78808594 671.52734375 c 132,-1,39
 1875.8359375 582.174804688 1875.8359375 582.174804688 1876.546875 442.928710938 c 6,40,-1
 1878.66210938 28.4326171875 l 5,41,-1
 1878.66210938 28.154296875 l 6,42,43
 1878.546875 13.779296875 1878.546875 13.779296875 1868.29101562 3.6044921875 c 132,-1,44
 1858.03613281 -6.5693359375 1858.03613281 -6.5693359375 1846.1953125 -6.5693359375 c 132,-1,45
 1834.35449219 -6.5693359375 1834.35449219 -6.5693359375 1826.36230469 -1.982421875 c 4,46,47
 1809.08105469 7.9375 1809.08105469 7.9375 1808.6640625 27.6953125 c 6,48,-1
 1805.39453125 438.458984375 l 6,49,50
 1804.43945312 558.370117188 1804.43945312 558.370117188 1792.87109375 636.13671875 c 132,-1,51
 1781.30273438 713.904296875 1781.30273438 713.904296875 1740.46875 788.624023438 c 132,-1,52
 1699.63574219 863.34375 1699.63574219 863.34375 1628.43359375 910.236328125 c 132,-1,53
 1557.23046875 957.12890625 1557.23046875 957.12890625 1473.23730469 957.505859375 c 132,-1,54
 1389.24414062 957.881835938 1389.24414062 957.881835938 1317.05859375 910.45703125 c 4,55,56
 1177.79394531 818.9609375 1177.79394531 818.9609375 1150.16601562 615.470703125 c 4,57,58
 1142.3125 557.63671875 1142.3125 557.63671875 1143.09765625 433.36328125 c 6,59,-1
 1145.63671875 28.5625 l 5,60,-1
 1145.63671875 28.3134765625 l 6,61,62
 1145.52734375 13.9326171875 1145.52734375 13.9326171875 1135.27050781 3.7548828125 c 132,-1,63
 1125.01464844 -6.4228515625 1125.01464844 -6.4228515625 1110.63378906 -6.4228515625 c 132,-1,64
 1096.44921875 -6.4228515625 1096.44921875 -6.4228515625 1086.1953125 3.6142578125 c 132,-1,65
 1075.94238281 13.650390625 1075.94238281 13.650390625 1075.63867188 27.873046875 c 6,66,-1
 1072.640625 431.491210938 l 6,67,68
 1071.62890625 565.974609375 1071.62890625 565.974609375 1054.8203125 647.998046875 c 132,-1,69
 1038.01171875 730.020507812 1038.01171875 730.020507812 982.50390625 805.05859375 c 132,-1,70
 926.997070312 880.095703125 926.997070312 880.095703125 841.1953125 920.125 c 132,-1,71
 755.393554688 960.155273438 755.393554688 960.155273438 660.52734375 958.474609375 c 4,72,73
 466.256835938 955.033203125 466.256835938 955.033203125 326.73828125 816.916015625 c 4,74,75
 192.141601562 683.673828125 192.141601562 683.673828125 172.84765625 488.462890625 c 4,76,77
 168.0234375 439.672851562 168.0234375 439.672851562 172.244140625 392.005859375 c 5,78,79
 218.625976562 523.366210938 218.625976562 523.366210938 346.662109375 576.919921875 c 4,80,81
 426.643554688 610.375976562 426.643554688 610.375976562 519.1953125 596.99609375 c 132,-1,82
 611.748046875 583.6171875 611.748046875 583.6171875 683.9609375 514.10546875 c 132,-1,83
 756.173828125 444.592773438 756.173828125 444.592773438 773.241210938 345.491210938 c 132,-1,84
 790.30859375 246.389648438 790.30859375 246.389648438 744.213867188 156.650390625 c 132,-1,85
 698.119140625 66.91015625 698.119140625 66.91015625 602.978515625 22.107421875 c 132,-1,86
 507.837890625 -22.6953125 507.837890625 -22.6953125 400.932617188 3.916015625 c 4,87,88
 276.375976562 34.921875 276.375976562 34.921875 195.263671875 139.75390625 c 4,89,90
 187.982421875 145.291015625 187.982421875 145.291015625 183.607421875 155.388671875 c 5,91,92
 83.6767578125 297.969726562 83.6767578125 297.969726562 103.1875 495.34765625 c 4,93,94
 124.96484375 715.670898438 124.96484375 715.670898438 280.959960938 870.09765625 c 132,-1,95
 436.955078125 1024.52441406 436.955078125 1024.52441406 660.255859375 1028.48046875 c 4,0,1
244.671875 190.400390625 m 5,96,97
 311.750976562 98.2509765625 311.750976562 98.2509765625 406.155273438 74.7509765625 c 132,-1,98
 500.559570312 51.25 500.559570312 51.25 573.6484375 85.66796875 c 132,-1,99
 646.73828125 120.0859375 646.73828125 120.0859375 682.046875 188.826171875 c 132,-1,100
 717.354492188 257.56640625 717.354492188 257.56640625 704.220703125 333.826171875 c 132,-1,101
 691.087890625 410.084960938 691.087890625 410.084960938 635.26171875 463.822265625 c 132,-1,102
 579.435546875 517.560546875 579.435546875 517.560546875 507.615234375 527.944335938 c 132,-1,103
 435.795898438 538.327148438 435.795898438 538.327148438 373.673828125 512.341796875 c 132,-1,104
 311.557617188 486.360351562 311.557617188 486.360351562 271.62109375 432.145507812 c 132,-1,105
 231.685546875 377.930664062 231.685546875 377.930664062 225.51171875 313.2421875 c 132,-1,106
 219.337890625 248.5546875 219.337890625 248.5546875 244.671875 190.400390625 c 5,96,97
EndSplineSet
EndChar

StartChar: th1
Encoding: 121 3364 72
Width: 1816
GlyphClass: 2
Flags: W
LayerCount: 2
Back
Fore
SplineSet
905 952 m 5,0,1
 1068 1034 1068 1034 1240.5 1009 c 132,-1,2
 1413 984 1413 984 1526.5 882.5 c 132,-1,3
 1640 781 1640 781 1686 650 c 132,-1,4
 1732 519 1732 519 1708.5 382 c 132,-1,5
 1685 245 1685 245 1598.5 136 c 132,-1,6
 1512 27 1512 27 1384 -26 c 4,7,8
 1377 -29 1377 -29 1366.5 -29 c 132,-1,9
 1356 -29 1356 -29 1345.5 -18.5 c 132,-1,10
 1335 -8 1335 -8 1335 4 c 4,11,12
 1335 30 1335 30 1357 39 c 4,13,14
 1469 86 1469 86 1544 180 c 132,-1,15
 1619 274 1619 274 1639.5 393.5 c 132,-1,16
 1660 513 1660 513 1620 627 c 132,-1,17
 1580 741 1580 741 1481 829.5 c 132,-1,18
 1382 918 1382 918 1243.5 938 c 132,-1,19
 1105 958 1105 958 979 909 c 5,20,21
 1066 849 1066 849 1129 763 c 4,22,23
 1223 635 1223 635 1247.5 462 c 132,-1,24
 1272 289 1272 289 1192 152 c 4,25,26
 1147 74 1147 74 1072 26.5 c 132,-1,27
 997 -21 997 -21 909.5 -21.5 c 132,-1,28
 822 -22 822 -22 747 24 c 132,-1,29
 672 70 672 70 626 147 c 4,30,31
 543 283 543 283 566 457 c 4,32,33
 603 750 603 750 831 908 c 5,34,35
 711 954 711 954 577 937.5 c 132,-1,36
 443 921 443 921 342 835.5 c 132,-1,37
 241 750 241 750 198.5 634 c 132,-1,38
 156 518 156 518 176.5 396 c 132,-1,39
 197 274 197 274 275.5 178 c 132,-1,40
 354 82 354 82 469 38 c 4,41,42
 492 30 492 30 492 10.5 c 132,-1,43
 492 -9 492 -9 482 -19.5 c 132,-1,44
 472 -30 472 -30 461 -30 c 132,-1,45
 450 -30 450 -30 444 -27 c 4,46,47
 311 24 311 24 221 134 c 132,-1,48
 131 244 131 244 107.5 384.5 c 132,-1,49
 84 525 84 525 133 658.5 c 132,-1,50
 182 792 182 792 298 890 c 132,-1,51
 414 988 414 988 576 1008 c 4,52,53
 748 1029 748 1029 905 952 c 5,0,1
905 873 m 5,54,55
 807 815 807 815 731 710 c 132,-1,56
 655 605 655 605 635.5 451.5 c 132,-1,57
 616 298 616 298 686 183 c 4,58,59
 724 121 724 121 783 84.5 c 132,-1,60
 842 48 842 48 909.5 48.5 c 132,-1,61
 977 49 977 49 1035.5 86.5 c 132,-1,62
 1094 124 1094 124 1131 187 c 4,63,64
 1199 303 1199 303 1177 455.5 c 132,-1,65
 1155 608 1155 608 1079.5 712 c 132,-1,66
 1004 816 1004 816 905 873 c 5,54,55
EndSplineSet
EndChar

StartChar: th2
Encoding: 122 3365 73
Width: 1549
GlyphClass: 2
Flags: W
LayerCount: 2
Back
Fore
SplineSet
1384 1 m 2,0,-1
 201 2 l 1,1,2
 168 -3 168 -3 139 14 c 0,3,4
 108 32 108 32 107 64 c 0,5,6
 104 230 104 230 104 536.5 c 0,7,8
 103 843 103 843 102 921 c 1,9,10
 93 969 93 969 130 999 c 0,11,12
 147 1013 147 1013 172 1013.5 c 128,-1,13
 197 1014 197 1014 218 995 c 0,14,15
 241 975 241 975 241 950 c 0,16,17
 242 794 242 794 244 504.5 c 128,-1,18
 246 215 246 215 246 142 c 1,19,-1
 521 141 l 1,20,21
 519 381 519 381 518 419 c 0,22,23
 509 702 509 702 634 850 c 0,24,25
 702 931 702 931 794 971 c 0,26,27
 890 1013 890 1013 994 1011 c 0,28,29
 1196 1008 1196 1008 1317 874 c 0,30,31
 1434 744 1434 744 1446 563 c 0,32,33
 1450 505 1450 505 1448.5 329 c 0,34,35
 1447 106 1447 106 1449 89.5 c 0,36,37
 1451 76 1451 76 1444 53 c 0,38,39
 1429 1 1429 1 1384 1 c 2,0,-1
990 871 m 0,40,41
 820 874 820 874 728 743 c 0,42,43
 670 660 670 660 664.5 579 c 128,-1,44
 659 498 659 498 658.5 428.5 c 128,-1,45
 658 359 658 359 659.5 273 c 128,-1,46
 661 187 661 187 661 141 c 1,47,-1
 1307 141 l 1,48,-1
 1307 292 l 2,49,50
 1307 333 1307 333 1309.5 453.5 c 128,-1,51
 1312 574 1312 574 1284.5 664 c 128,-1,52
 1257 754 1257 754 1173 813 c 0,53,54
 1093 869 1093 869 990 871 c 0,40,41
EndSplineSet
EndChar

StartChar: th3
Encoding: 123 3366 74
Width: 1206
GlyphClass: 2
Flags: W
LayerCount: 2
Back
Fore
SplineSet
123 284 m 132,-1,1
 75 449 75 449 128 616.5 c 132,-1,2
 181 784 181 784 324 893 c 132,-1,3
 467 1002 467 1002 628 1012 c 4,4,5
 878 1027 878 1027 1004 876 c 4,6,7
 1098 763 1098 763 1067 631 c 4,8,9
 1042 527 1042 527 946 475 c 5,10,11
 1027 443 1027 443 1064 383 c 4,12,13
 1151 241 1151 241 1061 110 c 4,14,15
 1015 42 1015 42 944 13 c 4,16,17
 798 -46 798 -46 671 36 c 4,18,19
 655 46 655 46 655 60.5 c 132,-1,20
 655 75 655 75 659 83 c 4,21,22
 669 100 669 100 684.5 100.5 c 132,-1,23
 700 101 700 101 726.5 83.5 c 132,-1,24
 753 66 753 66 807.5 61 c 132,-1,25
 862 56 862 56 915.5 77.5 c 132,-1,26
 969 99 969 99 1004 150 c 132,-1,27
 1039 201 1039 201 1035 251 c 4,28,29
 1029 347 1029 347 953 394 c 4,30,31
 899 428 899 428 782 429 c 6,32,-1
 746 430 l 6,33,34
 732 430 732 430 722 440.5 c 132,-1,35
 712 451 712 451 712 464.5 c 132,-1,36
 712 478 712 478 721 488 c 132,-1,37
 730 498 730 498 743 500 c 6,38,-1
 773 502 l 6,39,40
 841 508 841 508 882 521.5 c 132,-1,41
 923 535 923 535 955 568 c 4,42,43
 1023 637 1023 637 996.5 740 c 132,-1,44
 970 843 970 843 872 897 c 132,-1,45
 774 951 774 951 633 942 c 132,-1,46
 492 933 492 933 366.5 837.5 c 132,-1,47
 241 742 241 742 194.5 595.5 c 132,-1,48
 148 449 148 449 190 304 c 132,-1,49
 232 159 232 159 348 62 c 4,50,51
 361 51 361 51 361 36 c 132,-1,52
 361 21 361 21 351 10.5 c 132,-1,53
 341 0 341 0 327 0 c 132,-1,54
 313 0 313 0 303 9 c 4,55,0
 171 119 171 119 123 284 c 132,-1,1
EndSplineSet
EndChar

StartChar: n1
Encoding: 125 3368 76
Width: 2042
GlyphClass: 2
Flags: W
LayerCount: 2
Back
Fore
SplineSet
976 19 m 2,0,-1
 976 19 l 1,1,-1
 973 483 l 2,2,3
 973 485 973 485 973.5 487.5 c 128,-1,4
 974 490 974 490 974 505.5 c 128,-1,5
 974 521 974 521 973 565.5 c 128,-1,6
 972 610 972 610 945.5 676 c 128,-1,7
 919 742 919 742 868 798.5 c 128,-1,8
 817 855 817 855 738.5 889.5 c 128,-1,9
 660 924 660 924 576 924 c 128,-1,10
 492 924 492 924 411 886.5 c 128,-1,11
 330 849 330 849 273.5 784 c 128,-1,12
 217 719 217 719 190 634 c 128,-1,13
 163 549 163 549 171 461 c 128,-1,14
 179 373 179 373 225 291.5 c 128,-1,15
 271 210 271 210 343 155.5 c 128,-1,16
 415 101 415 101 506.5 80 c 128,-1,17
 598 59 598 59 687 76 c 0,18,19
 690 77 690 77 699 77 c 128,-1,20
 708 77 708 77 718.5 66.5 c 128,-1,21
 729 56 729 56 729 43 c 0,22,23
 729 12 729 12 700 7 c 0,24,25
 596 -13 596 -13 491 11.5 c 128,-1,26
 386 36 386 36 315.5 89 c 128,-1,27
 245 142 245 142 202 198 c 0,28,29
 114 314 114 314 103 436 c 0,30,31
 81 671 81 671 220 830 c 0,32,33
 287 907 287 907 381 950 c 128,-1,34
 475 993 475 993 575 993.5 c 128,-1,35
 675 994 675 994 767 954 c 0,36,37
 941 877 941 877 1011 701 c 1,38,39
 1087 885 1087 885 1272 960 c 0,40,41
 1436 1027 1436 1027 1603 973 c 0,42,43
 1739 928 1739 928 1829 818 c 0,44,45
 1895 738 1895 738 1924 635.5 c 128,-1,46
 1953 533 1953 533 1938 429.5 c 128,-1,47
 1923 326 1923 326 1867 235.5 c 128,-1,48
 1811 145 1811 145 1725.5 85 c 128,-1,49
 1640 25 1640 25 1535.5 4 c 128,-1,50
 1431 -17 1431 -17 1329 5 c 0,51,52
 1301 11 1301 11 1301 40 c 0,53,54
 1301 54 1301 54 1311.5 64.5 c 128,-1,55
 1322 75 1322 75 1331 75 c 128,-1,56
 1340 75 1340 75 1344 74 c 0,57,58
 1431 55 1431 55 1521.5 73.5 c 128,-1,59
 1612 92 1612 92 1685.5 143 c 128,-1,60
 1759 194 1759 194 1807.5 272.5 c 128,-1,61
 1856 351 1856 351 1866 425 c 128,-1,62
 1876 499 1876 499 1869 558 c 0,63,64
 1853 681 1853 681 1785 762 c 0,65,66
 1654 922 1654 922 1465 926 c 0,67,68
 1380 928 1380 928 1298.5 894.5 c 128,-1,69
 1217 861 1217 861 1163 805 c 0,70,71
 1055 692 1055 692 1045 539 c 0,72,73
 1046 518 1046 518 1045.5 503.5 c 128,-1,74
 1045 489 1045 489 1045 488 c 128,-1,75
 1045 487 1045 487 1045 486 c 2,76,-1
 1046 19 l 1,77,-1
 1046 19 l 2,78,79
 1046 5 1046 5 1035.5 -5 c 128,-1,80
 1025 -15 1025 -15 1010.5 -15 c 128,-1,81
 996 -15 996 -15 986 -5 c 128,-1,82
 976 5 976 5 976 19 c 2,0,-1
EndSplineSet
EndChar

StartChar: p1
Encoding: 127 3370 77
Width: 1698
GlyphClass: 2
Flags: W
LayerCount: 2
Back
Fore
SplineSet
1527.08398438 971.505859375 m 6,0,1
 1527.07910156 971.76171875 1527.07910156 971.76171875 1527.07910156 979.036132812 c 132,-1,2
 1527.07910156 986.311523438 1527.07910156 986.311523438 1537.28320312 996.688476562 c 132,-1,3
 1547.48632812 1007.06542969 1547.48632812 1007.06542969 1562.08300781 1007.06542969 c 132,-1,4
 1576.57421875 1007.06542969 1576.57421875 1007.06542969 1586.83105469 996.809570312 c 132,-1,5
 1597.08691406 986.552734375 1597.08691406 986.552734375 1597.08691406 972.061523438 c 4,6,-1
 1598.71875 31.71875 l 6,7,8
 1598.71875 17.169921875 1598.71875 17.169921875 1588.46289062 6.9130859375 c 132,-1,9
 1578.20703125 -3.3427734375 1578.20703125 -3.3427734375 1563.71484375 -3.3427734375 c 4,10,-1
 568.091796875 1.6953125 l 6,11,12
 553.6796875 1.775390625 553.6796875 1.775390625 543.48046875 12.03125 c 132,-1,13
 533.28125 22.2861328125 533.28125 22.2861328125 533.28125 34.2099609375 c 4,14,15
 533.28125 59.48828125 533.28125 59.48828125 554.123046875 68.708984375 c 4,16,17
 642.96875 107.969726562 642.96875 107.969726562 687.107421875 194.498046875 c 132,-1,18
 731.245117188 281.024414062 731.245117188 281.024414062 710.873046875 376 c 132,-1,19
 690.500976562 470.975585938 690.500976562 470.975585938 614.759765625 531.787109375 c 132,-1,20
 539.015625 592.6015625 539.015625 592.6015625 440.829101562 591.963867188 c 132,-1,21
 342.643554688 591.326171875 342.643554688 591.326171875 266.939453125 527.15234375 c 132,-1,22
 191.237304688 462.978515625 191.237304688 462.978515625 174.3515625 365.18359375 c 132,-1,23
 157.46484375 267.38671875 157.46484375 267.38671875 207.265625 181.54296875 c 132,-1,24
 257.065429688 95.7001953125 257.065429688 95.7001953125 350.34375 61.814453125 c 4,25,26
 373.875976562 53.65234375 373.875976562 53.65234375 373.875976562 33.9521484375 c 132,-1,27
 373.875976562 14.251953125 373.875976562 14.251953125 363.620117188 3.99609375 c 132,-1,28
 353.36328125 -6.259765625 353.36328125 -6.259765625 342.907226562 -6.259765625 c 132,-1,29
 332.450195312 -6.259765625 332.450195312 -6.259765625 301.23828125 5.1279296875 c 132,-1,30
 270.026367188 16.515625 270.026367188 16.515625 223.431640625 55.5068359375 c 132,-1,31
 176.836914062 94.498046875 176.836914062 94.498046875 146.716796875 146.41796875 c 4,32,33
 84.16015625 254.25 84.16015625 254.25 105.37109375 377.09375 c 132,-1,34
 126.58203125 499.936523438 126.58203125 499.936523438 221.67578125 580.548828125 c 132,-1,35
 316.76953125 661.159179688 316.76953125 661.159179688 440.104492188 661.9609375 c 132,-1,36
 563.440429688 662.76171875 563.440429688 662.76171875 658.583984375 586.37109375 c 132,-1,37
 753.727539062 509.98046875 753.727539062 509.98046875 779.31640625 390.681640625 c 132,-1,38
 804.90625 271.37890625 804.90625 271.37890625 749.462890625 162.689453125 c 4,39,40
 723.3671875 111.534179688 723.3671875 111.534179688 681.2578125 71.125 c 5,41,-1
 1528.65820312 66.833984375 l 5,42,-1
 1527.08398438 971.505859375 l 6,0,1
EndSplineSet
EndChar

StartChar: p2
Encoding: 128 3371 78
Width: 2181
GlyphClass: 2
Flags: W
LayerCount: 2
Back
Fore
SplineSet
2024.2265625 1.8486328125 m 2,0,-1
 1998.54296875 1.6552734375 l 1,1,-1
 576.276367188 0.826171875 l 2,2,3
 536.122070312 1.041015625 536.122070312 1.041015625 515.965820312 35.8349609375 c 0,4,5
 506.643554688 51.9267578125 506.643554688 51.9267578125 506.643554688 70.83203125 c 128,-1,6
 506.643554688 89.7763671875 506.643554688 89.7763671875 518.923828125 108.564453125 c 128,-1,7
 531.205078125 127.352539062 531.205078125 127.352539062 548.557617188 134.955078125 c 0,8,9
 620.904296875 166.610351562 620.904296875 166.610351562 656.608398438 237.048828125 c 128,-1,10
 692.311523438 307.487304688 692.311523438 307.487304688 675.073242188 384.55078125 c 128,-1,11
 657.833984375 461.616210938 657.833984375 461.616210938 595.526367188 510.12890625 c 128,-1,12
 533.216796875 558.642578125 533.216796875 558.642578125 454.086914062 556.454101562 c 128,-1,13
 374.95703125 554.264648438 374.95703125 554.264648438 315.297851562 501.94921875 c 128,-1,14
 255.63671875 449.631835938 255.63671875 449.631835938 243.102539062 371.28125 c 128,-1,15
 230.568359375 292.930664062 230.568359375 292.930664062 270.928710938 224.611328125 c 128,-1,16
 311.2890625 156.29296875 311.2890625 156.29296875 385.963867188 129.462890625 c 0,17,18
 405.525390625 122.739257812 405.525390625 122.739257812 419.369140625 103.340820312 c 128,-1,19
 433.213867188 83.943359375 433.213867188 83.943359375 433.213867188 59.109375 c 128,-1,20
 433.213867188 34.275390625 433.213867188 34.275390625 412.702148438 13.7626953125 c 128,-1,21
 392.189453125 -6.7490234375 392.189453125 -6.7490234375 371.349609375 -6.7490234375 c 128,-1,22
 350.510742188 -6.7490234375 350.510742188 -6.7490234375 338.624023438 -2.291015625 c 0,23,24
 216.434570312 41.611328125 216.434570312 41.611328125 150.391601562 153.400390625 c 128,-1,25
 84.349609375 265.189453125 84.349609375 265.189453125 104.860351562 393.3984375 c 128,-1,26
 125.37109375 521.606445312 125.37109375 521.606445312 222.993164062 607.2109375 c 128,-1,27
 320.615234375 692.817382812 320.615234375 692.817382812 450.094726562 696.3984375 c 128,-1,28
 579.573242188 699.979492188 579.573242188 699.979492188 681.532226562 620.595703125 c 128,-1,29
 783.4921875 541.2109375 783.4921875 541.2109375 814.159179688 404.108398438 c 128,-1,30
 844.827148438 267.005859375 844.827148438 267.005859375 761.840820312 139.923828125 c 1,31,-1
 1054.24707031 138.498046875 l 1,32,-1
 1050.48730469 208.87890625 l 2,33,34
 1041.59277344 375.33203125 1041.59277344 375.33203125 1050.78417969 465.23828125 c 0,35,36
 1083.85839844 788.759765625 1083.85839844 788.759765625 1321.91015625 933.526367188 c 0,37,38
 1447.03222656 1009.61621094 1447.03222656 1009.61621094 1587.7421875 998.498046875 c 128,-1,39
 1728.453125 987.379882812 1728.453125 987.379882812 1835.84179688 905.708007812 c 0,40,41
 2050.92773438 742.130859375 2050.92773438 742.130859375 2075.93457031 410.494140625 c 0,42,43
 2081.89453125 331.458007812 2081.89453125 331.458007812 2081.52246094 221.087890625 c 2,44,-1
 2081.02246094 72.5390625 l 2,45,46
 2081.02539062 72.2568359375 2081.02539062 72.2568359375 2081.02539062 71.8564453125 c 0,47,48
 2081.02539062 42.873046875 2081.02539062 42.873046875 2060.51367188 22.3603515625 c 128,-1,49
 2040.00195312 1.8486328125 2040.00195312 1.8486328125 2024.2265625 1.8486328125 c 2,0,-1
1929.57519531 457.719726562 m 128,-1,51
 1917.16699219 557.333007812 1917.16699219 557.333007812 1874.53613281 645.07421875 c 128,-1,52
 1831.90527344 732.815429688 1831.90527344 732.815429688 1754.16894531 791.935546875 c 128,-1,53
 1676.43359375 851.0546875 1676.43359375 851.0546875 1578.77539062 858.772460938 c 128,-1,54
 1481.11621094 866.490234375 1481.11621094 866.490234375 1391.67382812 812.095703125 c 0,55,56
 1216.05566406 705.295898438 1216.05566406 705.295898438 1190.05761719 451 c 0,57,58
 1181.97265625 371.92578125 1181.97265625 371.92578125 1190.28613281 216.349609375 c 2,59,-1
 1194.27832031 141.658203125 l 1,60,-1
 1941.25292969 141.658203125 l 1,61,-1
 1941.52246094 221.560546875 l 2,62,50
 1941.98242188 358.106445312 1941.98242188 358.106445312 1929.57519531 457.719726562 c 128,-1,51
EndSplineSet
EndChar

StartChar: p3
Encoding: 129 3372 79
Width: 2550
GlyphClass: 2
Flags: W
LayerCount: 2
Back
Fore
SplineSet
712 1038 m 4,0,1
 825 1032 825 1032 934 975 c 132,-1,2
 1043 918 1043 918 1111 796 c 5,3,4
 1169 902 1169 902 1263.5 961 c 132,-1,5
 1358 1020 1358 1020 1439 1028 c 4,6,7
 1695 1054 1695 1054 1859 887 c 4,8,9
 1935 809 1935 809 1973 706 c 132,-1,10
 2011 603 2011 603 2005 503 c 4,11,12
 1992 284 1992 284 1838 140 c 5,13,-1
 2310 139 l 5,14,-1
 2311 936 l 6,15,16
 2311 965 2311 965 2331 986 c 4,17,18
 2369 1025 2369 1025 2410 1000.5 c 132,-1,19
 2451 976 2451 976 2451 936 c 6,20,-1
 2450 68 l 6,21,22
 2450 39 2450 39 2429.5 18.5 c 132,-1,23
 2409 -2 2409 -2 2380 -2 c 6,24,-1
 1536 1 l 6,25,26
 1508 1 1508 1 1488.5 20 c 132,-1,27
 1469 39 1469 39 1467 60 c 4,28,29
 1462 132 1462 132 1547 143 c 4,30,31
 1594 149 1594 149 1655 181 c 132,-1,32
 1716 213 1716 213 1761 262 c 4,33,34
 1856 364 1856 364 1865 503 c 4,35,36
 1870 581 1870 581 1842 657.5 c 132,-1,37
 1814 734 1814 734 1760 789 c 132,-1,38
 1706 844 1706 844 1630 871.5 c 132,-1,39
 1554 899 1554 899 1480 892 c 4,40,41
 1324 876 1324 876 1242 744 c 4,42,43
 1205 684 1205 684 1193.5 616 c 132,-1,44
 1182 548 1182 548 1182 439 c 6,45,-1
 1182 69 l 5,46,-1
 1182 68 l 6,47,48
 1182 39 1182 39 1161.5 19 c 132,-1,49
 1141 -1 1141 -1 1112 -1 c 132,-1,50
 1083 -1 1083 -1 1063 19.5 c 132,-1,51
 1043 40 1043 40 1042 68 c 6,52,-1
 1041 440 l 6,53,54
 1041 555 1041 555 1027 625.5 c 132,-1,55
 1013 696 1013 696 969 759 c 4,56,57
 878 889 878 889 713 898 c 132,-1,58
 548 907 548 907 419 806 c 4,59,60
 318 728 318 728 271 597 c 4,61,62
 260 567 260 567 255 533 c 5,63,64
 274 567 274 567 319 602.5 c 132,-1,65
 364 638 364 638 430 654 c 132,-1,66
 496 670 496 670 554 654 c 5,67,68
 673 631 673 631 755.5 512 c 132,-1,69
 838 393 838 393 797 245 c 4,70,71
 777 174 777 174 729 118.5 c 132,-1,72
 681 63 681 63 613 34 c 4,73,74
 499 -14 499 -14 382.5 24 c 132,-1,75
 266 62 266 62 195 156 c 4,76,77
 57 337 57 337 119 583 c 4,78,79
 170 789 170 789 336 919 c 132,-1,80
 502 1049 502 1049 712 1038 c 4,0,1
522 518 m 4,81,82
 423 542 423 542 347 474 c 4,83,84
 311 441 311 441 290.5 384 c 132,-1,85
 270 327 270 327 297 258 c 4,86,87
 299 254 299 254 299.5 251.5 c 132,-1,88
 300 249 300 249 303 245 c 4,89,90
 351 182 351 182 422 159 c 4,91,92
 526 125 526 125 605 193 c 132,-1,93
 684 261 684 261 666 364 c 4,94,95
 659 407 659 407 635 440 c 4,96,97
 594 501 594 501 522 518 c 4,81,82
EndSplineSet
EndChar

StartChar: p4
Encoding: 130 3373 80
Width: 1332
GlyphClass: 2
Flags: W
LayerCount: 2
Back
Fore
SplineSet
631 983 m 1,0,1
 863 1012 863 1012 1054 934 c 0,2,3
 1137 900 1137 900 1191.5 820.5 c 128,-1,4
 1246 741 1246 741 1223.5 649.5 c 128,-1,5
 1201 558 1201 558 1108.5 514 c 128,-1,6
 1016 470 1016 470 844 520 c 0,7,8
 732 552 732 552 682 535 c 0,9,10
 680 534 680 534 663.5 530 c 128,-1,11
 647 526 647 526 631 496.5 c 128,-1,12
 615 467 615 467 626 444 c 0,13,14
 626 443 626 443 627 443 c 0,15,16
 662 372 662 372 796 383 c 0,17,18
 801 383 801 383 851.5 388 c 128,-1,19
 902 393 902 393 962.5 393.5 c 128,-1,20
 1023 394 1023 394 1068 376.5 c 128,-1,21
 1113 359 1113 359 1153 331.5 c 128,-1,22
 1193 304 1193 304 1216.5 251 c 128,-1,23
 1240 198 1240 198 1230 140.5 c 128,-1,24
 1220 83 1220 83 1177 42 c 0,25,26
 1097 -38 1097 -38 958 -35 c 0,27,28
 914 -34 914 -34 882.5 -31 c 128,-1,29
 851 -28 851 -28 781 -22.5 c 128,-1,30
 711 -17 711 -17 581 -3 c 0,31,32
 555 -1 555 -1 536 19.5 c 128,-1,33
 517 40 517 40 517 67.5 c 128,-1,34
 517 95 517 95 537.5 115.5 c 128,-1,35
 558 136 558 136 574.5 136 c 128,-1,36
 591 136 591 136 757 118.5 c 128,-1,37
 923 101 923 101 986 106 c 128,-1,38
 1049 111 1049 111 1078 141 c 0,39,40
 1079 142 1079 142 1086.5 149 c 128,-1,41
 1094 156 1094 156 1089.5 182 c 128,-1,42
 1085 208 1085 208 1075.5 214 c 128,-1,43
 1066 220 1066 220 1058.5 226 c 128,-1,44
 1051 232 1051 232 1032 238.5 c 128,-1,45
 1013 245 1013 245 997.5 248 c 128,-1,46
 982 251 982 251 954 251 c 0,47,48
 920 252 920 252 818 244 c 0,49,50
 579 226 579 226 501 381 c 0,51,52
 459 473 459 473 505 558 c 0,53,54
 596 726 596 726 832 668 c 0,55,56
 851 663 851 663 900 649.5 c 128,-1,57
 949 636 949 636 964 634.5 c 128,-1,58
 979 633 979 633 999 630 c 128,-1,59
 1019 627 1019 627 1050 641.5 c 128,-1,60
 1081 656 1081 656 1086 680 c 1,61,-1
 1086 681 l 1,62,63
 1094 714 1094 714 1069.5 750.5 c 128,-1,64
 1045 787 1045 787 1001 805 c 0,65,66
 843 869 843 869 648 844 c 0,67,68
 515 827 515 827 404.5 744 c 128,-1,69
 294 661 294 661 259 542 c 0,70,71
 259 541 259 541 259 540 c 0,72,73
 222 427 222 427 262.5 304 c 128,-1,74
 303 181 303 181 399 111 c 0,75,76
 429 90 429 90 429 62.5 c 128,-1,77
 429 35 429 35 414 9.5 c 128,-1,78
 399 -16 399 -16 367 -16 c 128,-1,79
 335 -16 335 -16 317 -2 c 0,80,81
 182 96 182 96 128 259.5 c 128,-1,82
 74 423 74 423 125 582 c 0,83,84
 157 693 157 693 236 780 c 0,85,86
 391 953 391 953 630 983 c 1,87,-1
 631 983 l 1,0,1
EndSplineSet
EndChar

StartChar: m1
Encoding: 131 3374 81
Width: 1390
GlyphClass: 2
Flags: W
LayerCount: 2
Back
Fore
SplineSet
327 872 m 4,0,1
 534 1034 534 1034 793 991 c 4,2,3
 1007 955 1007 955 1148 790 c 132,-1,4
 1289 625 1289 625 1291 408 c 4,5,6
 1291 402 1291 402 1289 397 c 5,7,-1
 1289 37 l 6,8,9
 1289 23 1289 23 1279 12.5 c 132,-1,10
 1269 2 1269 2 1254 2 c 6,11,-1
 238 2 l 6,12,13
 237 2 237 2 236 2 c 4,14,-1
 235 2 l 6,15,-1
 135 2 l 6,16,17
 121 2 121 2 110.5 12.5 c 132,-1,18
 100 23 100 23 100 37 c 6,19,-1
 100 443 l 6,20,21
 100 444 100 444 100 445 c 132,-1,22
 100 446 100 446 100 447 c 4,23,24
 109 571 109 571 169 683 c 132,-1,25
 229 795 229 795 327 872 c 4,0,1
794 860 m 4,26,27
 714 944 714 944 586 917 c 4,28,29
 580 915 580 915 577 915 c 4,30,31
 344 861 344 861 231 651 c 4,32,33
 178 552 178 552 170 443 c 5,34,-1
 170 72 l 5,35,-1
 235 72 l 5,36,37
 416 94 416 94 570.5 204.5 c 132,-1,38
 725 315 725 315 806 478 c 4,39,40
 900 669 900 669 831 808 c 4,41,42
 816 837 816 837 794 860 c 4,26,27
847 906 m 5,43,44
 930 816 930 816 929.5 692.5 c 132,-1,45
 929 569 929 569 868.5 447 c 132,-1,46
 808 325 808 325 707.5 228 c 132,-1,47
 607 131 607 131 482 72 c 5,48,-1
 1219 72 l 5,49,-1
 1219 444 l 5,50,51
 1205 615 1205 615 1100 737.5 c 132,-1,52
 995 860 995 860 847 906 c 5,43,44
EndSplineSet
EndChar

StartChar: y1
Encoding: 132 3375 82
Width: 1958
GlyphClass: 2
Flags: W
LayerCount: 2
Back
Fore
SplineSet
702 834 m 5,0,1
 760 938 760 938 848 984 c 4,2,3
 976 1051 976 1051 1099 1018 c 4,4,5
 1173 999 1173 999 1232 947 c 132,-1,6
 1291 895 1291 895 1325 824 c 4,7,8
 1387 695 1387 695 1365 555 c 4,9,10
 1318 250 1318 250 1074 98 c 5,11,12
 1223 37 1223 37 1378.5 65.5 c 132,-1,13
 1534 94 1534 94 1646 206 c 4,14,15
 1760 320 1760 320 1781.5 465.5 c 132,-1,16
 1803 611 1803 611 1748 735.5 c 132,-1,17
 1693 860 1693 860 1579 936 c 4,18,19
 1563 946 1563 946 1563 963 c 132,-1,20
 1563 980 1563 980 1573.5 990 c 132,-1,21
 1584 1000 1584 1000 1596.5 1000 c 132,-1,22
 1609 1000 1609 1000 1618 994 c 4,23,24
 1748 907 1748 907 1812 763.5 c 132,-1,25
 1876 620 1876 620 1852 465 c 4,26,27
 1825 286 1825 286 1696.5 157.5 c 132,-1,28
 1568 29 1568 29 1389 -4 c 4,29,30
 1184 -41 1184 -41 996 57 c 5,31,32
 740 -56 740 -56 484 54 c 4,33,34
 264 149 264 149 161 366 c 4,35,36
 133 425 133 425 117 489 c 4,37,38
 72 673 72 673 144 818 c 4,39,40
 184 899 184 899 256.5 952 c 132,-1,41
 329 1005 329 1005 406 1010 c 4,42,43
 559 1020 559 1020 652 913 c 4,44,45
 683 878 683 878 702 834 c 5,0,1
1081 951 m 4,46,47
 985 976 985 976 894 929 c 4,48,49
 753 856 753 856 723 685 c 4,50,51
 721 671 721 671 718 649 c 4,52,53
 701 533 701 533 768 390 c 4,54,55
 846 227 846 227 998 136 c 5,56,57
 1190 235 1190 235 1266 442 c 4,58,59
 1337 637 1337 637 1261 794 c 4,60,61
 1234 851 1234 851 1186 893.5 c 132,-1,62
 1138 936 1138 936 1081 951 c 4,46,47
653 694 m 5,63,64
 665 793 665 793 600 867 c 4,65,66
 570 902 570 902 522 923 c 132,-1,67
 474 944 474 944 413.5 940.5 c 132,-1,68
 353 937 353 937 296.5 895 c 132,-1,69
 240 853 240 853 207 787 c 4,70,71
 146 664 146 664 185 505 c 4,72,73
 228 329 228 329 364.5 211 c 132,-1,74
 501 93 501 93 681 75 c 4,75,76
 802 63 802 63 920 103 c 5,77,78
 779 203 779 203 705 360 c 4,79,80
 624 529 624 529 653 694 c 5,63,64
EndSplineSet
EndChar

StartChar: r3
Encoding: 133 3376 83
Width: 1497
GlyphClass: 2
Flags: W
LayerCount: 2
Back
Fore
SplineSet
347.571289062 879.578125 m 4,0,1
 521.212890625 992.677734375 521.212890625 992.677734375 744.467773438 990.263671875 c 4,2,3
 1049.72167969 986.962890625 1049.72167969 986.962890625 1234.79199219 811.205078125 c 4,4,5
 1336.078125 715.015625 1336.078125 715.015625 1373.38769531 596.720703125 c 132,-1,6
 1410.69824219 478.424804688 1410.69824219 478.424804688 1391.19042969 364.852539062 c 132,-1,7
 1371.68261719 251.280273438 1371.68261719 251.280273438 1299.29492188 160.610351562 c 132,-1,8
 1226.90820312 69.939453125 1226.90820312 69.939453125 1117.79882812 28.193359375 c 132,-1,9
 1008.68945312 -13.5517578125 1008.68945312 -13.5517578125 915.803710938 4.7197265625 c 4,10,11
 745.663085938 38.1875 745.663085938 38.1875 652.616210938 159.369140625 c 4,12,13
 560.647460938 279.146484375 560.647460938 279.146484375 568.139648438 431.095703125 c 4,14,15
 575.9609375 589.690429688 575.9609375 589.690429688 687.211914062 702.990234375 c 132,-1,16
 798.461914062 816.2890625 798.461914062 816.2890625 956.887695312 827.001953125 c 4,17,18
 1053.70214844 833.548828125 1053.70214844 833.548828125 1144.83300781 795.912109375 c 5,19,20
 987.200195312 917.63671875 987.200195312 917.63671875 764.426757812 920.044921875 c 132,-1,21
 541.653320312 922.453125 541.653320312 922.453125 385.776367188 820.923828125 c 4,22,23
 304.178710938 767.774414062 304.178710938 767.774414062 248.086914062 687.717773438 c 132,-1,24
 191.99609375 607.66015625 191.99609375 607.66015625 177.935546875 526.135742188 c 132,-1,25
 163.874023438 444.610351562 163.874023438 444.610351562 178.813476562 370.39453125 c 132,-1,26
 193.751953125 296.178710938 193.751953125 296.178710938 233.305664062 234.203125 c 4,27,28
 316.533203125 103.797851562 316.533203125 103.797851562 465.877929688 63.443359375 c 4,29,30
 492.2421875 56.7275390625 492.2421875 56.7275390625 492.2421875 35.8798828125 c 4,31,32
 492.2421875 -5.48046875 492.2421875 -5.48046875 457.23828125 -5.48046875 c 4,33,34
 431.88671875 -5.48046875 431.88671875 -5.48046875 379.483398438 19.9404296875 c 132,-1,35
 327.080078125 45.3603515625 327.080078125 45.3603515625 292.349609375 70.8603515625 c 4,36,37
 145.907226562 178.379882812 145.907226562 178.379882812 110.045898438 356.549804688 c 4,38,39
 69.9521484375 555.743164062 69.9521484375 555.743164062 189.881835938 727.041992188 c 4,40,41
 254.005859375 818.633789062 254.005859375 818.633789062 347.571289062 879.578125 c 4,0,1
1197.91503906 685.103515625 m 132,-1,43
 1093.47167969 766.077148438 1093.47167969 766.077148438 961.610351562 757.162109375 c 132,-1,44
 829.750976562 748.245117188 829.750976562 748.245117188 737.16015625 653.947265625 c 132,-1,45
 644.56640625 559.649414062 644.56640625 559.649414062 638.055664062 427.6484375 c 4,46,47
 631.829101562 301.381835938 631.829101562 301.381835938 708.137695312 202 c 4,48,49
 785.095703125 101.7734375 785.095703125 101.7734375 893.778320312 80.3935546875 c 132,-1,50
 1002.45996094 59.0146484375 1002.45996094 59.0146484375 1093.27832031 93.76171875 c 132,-1,51
 1184.09765625 128.509765625 1184.09765625 128.509765625 1244.91894531 204.692382812 c 4,52,53
 1337.24804688 320.33984375 1337.24804688 320.33984375 1327.10839844 471.84765625 c 4,54,55
 1326.80273438 473.022460938 1326.80273438 473.022460938 1326.58105469 474.20703125 c 4,56,42
 1302.36035156 604.129882812 1302.36035156 604.129882812 1197.91503906 685.103515625 c 132,-1,43
EndSplineSet
EndChar

StartChar: rh
Encoding: 134 3377 84
Width: 1344
GlyphClass: 2
Flags: W
LayerCount: 2
Back
Fore
SplineSet
1049 885 m 4,0,1
 1130 817 1130 817 1181 722.5 c 132,-1,2
 1232 628 1232 628 1242 530 c 4,3,4
 1267 280 1267 280 1095 108 c 4,5,6
 996 8 996 8 861 -28 c 4,7,8
 856 -29 856 -29 849 -29 c 132,-1,9
 842 -29 842 -29 834 -25 c 4,10,11
 817 -15 817 -15 817 -1 c 132,-1,12
 817 13 817 13 820 20 c 4,13,14
 828 36 828 36 843 40 c 4,15,16
 1002 83 1002 83 1095.5 218 c 132,-1,17
 1189 353 1189 353 1173 517 c 4,18,19
 1154 706 1154 706 1004 831 c 4,20,21
 859 952 859 952 663 948 c 4,22,23
 476 945 476 945 339 828 c 4,24,25
 196 707 196 707 174 527 c 4,26,27
 154 362 154 362 245 224 c 132,-1,28
 336 86 336 86 496 40 c 4,29,30
 522 33 522 33 522 12 c 4,31,32
 522 -29 522 -29 487 -29 c 4,33,34
 482 -29 482 -29 476 -28 c 4,35,36
 292 25 292 25 186.5 185.5 c 132,-1,37
 81 346 81 346 104 536 c 4,38,39
 130 743 130 743 290.5 878.5 c 132,-1,40
 451 1014 451 1014 667.5 1018.5 c 132,-1,41
 884 1023 884 1023 1049 885 c 4,0,1
EndSplineSet
EndChar

StartChar: l3
Encoding: 135 3378 85
Width: 1780
GlyphClass: 2
Flags: W
LayerCount: 2
Back
Fore
SplineSet
1618.5 1015 m 132,-1,1
 1629 1025 1629 1025 1643.5 1025 c 132,-1,2
 1658 1025 1658 1025 1668 1015 c 132,-1,3
 1678 1005 1678 1005 1678 990 c 4,4,-1
 1680 39 l 6,5,6
 1680 24 1680 24 1670 14 c 132,-1,7
 1660 4 1660 4 1645 4 c 6,8,-1
 135 0 l 6,9,10
 120 0 120 0 110 10.5 c 132,-1,11
 100 21 100 21 100 35 c 4,12,-1
 102 387 l 6,13,14
 103 538 103 538 125 642 c 132,-1,15
 147 746 147 746 223 841.5 c 132,-1,16
 299 937 299 937 415.5 980.5 c 132,-1,17
 532 1024 532 1024 644.5 1005.5 c 132,-1,18
 757 987 757 987 843.5 931.5 c 132,-1,19
 930 876 930 876 987 793 c 132,-1,20
 1044 710 1044 710 1064 609.5 c 132,-1,21
 1084 509 1084 509 1063 410 c 4,22,23
 1057 382 1057 382 1029 382 c 4,24,25
 1028 382 l 6,26,-1
 172 398 l 5,27,28
 172 396 172 396 172 392 c 132,-1,29
 172 388 172 388 172 386 c 6,30,-1
 170 70 l 5,31,-1
 1610 74 l 5,32,-1
 1608 990 l 6,33,34
 1608 997.5 l 4,35,0
 1608 1005 1608 1005 1618.5 1015 c 132,-1,1
635 936 m 4,36,37
 539 952 539 952 440.5 915 c 132,-1,38
 342 878 342 878 277 797 c 4,39,40
 182 677 182 677 174 468 c 5,41,-1
 999 453 l 5,42,43
 1021 620 1021 620 923.5 762 c 132,-1,44
 826 904 826 904 635 936 c 4,36,37
EndSplineSet
EndChar

StartChar: lh
Encoding: 136 3379 86
Width: 1262
GlyphClass: 2
Flags: WO
LayerCount: 2
Back
Fore
SplineSet
672 1004 m 4,0,1
 945 1007 945 1007 1068 844 c 4,2,3
 1117 779 1117 779 1126 711 c 4,4,5
 1147 552 1147 552 1026 479 c 5,6,7
 1145 420 1145 420 1161 295 c 4,8,9
 1170 222 1170 222 1136 158 c 4,10,11
 1070 35 1070 35 909 9 c 4,12,13
 864 2 864 2 781 2 c 6,14,-1
 376 2 l 6,15,16
 269 2 269 2 231 -26 c 4,17,18
 157 -79 157 -79 173 -155 c 4,19,20
 191 -242 191 -242 295 -257 c 4,21,22
 317 -260 317 -260 361 -260 c 6,23,-1
 1112 -260 l 5,24,-1
 1113 -260 l 6,25,26
 1148 -260 1148 -260 1148 -295 c 4,27,28
 1148 -309 1148 -309 1137.5 -319.5 c 132,-1,29
 1127 -330 1127 -330 1113 -330 c 6,30,-1
 1112 -330 l 5,31,-1
 361 -330 l 6,32,33
 261 -330 261 -330 214 -306 c 4,34,35
 122 -259 122 -259 104 -169 c 4,36,37
 92 -113 92 -113 114 -61 c 4,38,39
 156 42 156 42 279 65 c 4,40,41
 313 71 313 71 376 72 c 6,42,-1
 781 72 l 6,43,44
 859 72 859 72 908 79 c 4,45,46
 1024 97 1024 97 1073 188 c 4,47,48
 1120 277 1120 277 1064 358 c 4,49,50
 1010 437 1010 437 864 445 c 4,51,52
 854 445 854 445 841 446 c 6,53,-1
 810 448 l 6,54,55
 796 449 796 449 786.5 459 c 132,-1,56
 777 469 777 469 777 480.5 c 132,-1,57
 777 492 777 492 782 500 c 4,58,59
 792 517 792 517 802.5 517 c 4,60,-1
 813 517 l 4,61,-1
 846 516 l 6,62,63
 906 513 906 513 941 519.5 c 132,-1,64
 976 526 976 526 1006 551 c 4,65,66
 1069 602 1069 602 1057 693 c 4,67,68
 1042 812 1042 812 920 881 c 4,69,70
 822 936 822 936 673 934 c 4,71,72
 462 932 462 932 324 827 c 4,73,74
 239 762 239 762 200 672 c 5,75,76
 260 716 260 716 325 721 c 4,77,78
 482 732 482 732 566 616 c 4,79,80
 614 549 614 549 612.5 466 c 132,-1,81
 611 383 611 383 559 317.5 c 132,-1,82
 507 252 507 252 436 237 c 4,83,84
 299 208 299 208 206 296 c 4,85,86
 109 387 109 387 102 515 c 4,87,88
 102 516 102 516 101.5 518 c 132,-1,89
 101 520 101 520 101 523 c 132,-1,90
 101 526 101 526 102 528 c 4,91,92
 99 628 99 628 146 722 c 132,-1,93
 193 816 193 816 282 883 c 4,94,95
 438 1001 438 1001 672 1004 c 4,0,1
172 520 m 4,96,97
 174 422 174 422 247 353 c 132,-1,98
 320 284 320 284 418 305 c 4,99,100
 468 316 468 316 505 362 c 132,-1,101
 542 408 542 408 543 467 c 132,-1,102
 544 526 544 526 509 574.5 c 132,-1,103
 474 623 474 623 407 646 c 132,-1,104
 340 669 340 669 266 632 c 4,105,106
 197 596 197 596 172 521 c 4,107,108
 172 520 l 4,96,97
EndSplineSet
EndChar

StartChar: zh
Encoding: 137 3380 87
Width: 1128
GlyphClass: 2
Flags: W
LayerCount: 2
Back
Fore
SplineSet
208 1003 m 4,0,1
 233 1027 233 1027 257 1003 c 4,2,3
 267 993 267 993 267 978 c 132,-1,4
 267 963 267 963 255 952 c 4,5,6
 195 896 195 896 177.5 816 c 132,-1,7
 160 736 160 736 185 673 c 4,8,9
 231 557 231 557 334 502 c 4,10,11
 469 430 469 430 640 446 c 5,12,13
 638 447 638 447 636 450 c 4,14,15
 630 455 630 455 589 493 c 4,16,17
 402 663 402 663 461 830 c 4,18,19
 496 928 496 928 592 976 c 4,20,21
 664 1013 664 1013 759.5 1007.5 c 132,-1,22
 855 1002 855 1002 935 930 c 132,-1,23
 1015 858 1015 858 1026 761 c 132,-1,24
 1037 664 1037 664 995 586 c 4,25,26
 926 455 926 455 773 403 c 5,27,28
 773 402 773 402 775 400 c 4,29,30
 829 324 829 324 825.5 235.5 c 132,-1,31
 822 147 822 147 754 83.5 c 132,-1,32
 686 20 686 20 594 2 c 132,-1,33
 502 -16 502 -16 413 9 c 132,-1,34
 324 34 324 34 256 95 c 4,35,36
 244 105 244 105 244.5 118 c 132,-1,37
 245 131 245 131 249 139 c 4,38,39
 259 156 259 156 276 156 c 132,-1,40
 293 156 293 156 304 147 c 4,41,42
 358 98 358 98 432 77 c 132,-1,43
 506 56 506 56 579.5 70.5 c 132,-1,44
 653 85 653 85 703 132 c 132,-1,45
 753 179 753 179 756 239 c 4,46,47
 759 312 759 312 700 384 c 5,48,49
 636 372 636 372 565 374 c 4,50,51
 331 381 331 381 198 520 c 4,52,53
 150 571 150 571 118.5 650.5 c 132,-1,54
 87 730 87 730 109.5 831 c 132,-1,55
 132 932 132 932 208 1003 c 4,0,1
725 461 m 5,56,57
 872 501 872 501 932 616 c 4,58,59
 964 677 964 677 956.5 750.5 c 132,-1,60
 949 824 949 824 887.5 878.5 c 132,-1,61
 826 933 826 933 734.5 938.5 c 132,-1,62
 643 944 643 944 576 880 c 4,63,64
 505 812 505 812 519 720 c 4,65,66
 528 665 528 665 563 622 c 132,-1,67
 598 579 598 579 651.5 530 c 132,-1,68
 705 481 705 481 725 461 c 5,56,57
EndSplineSet
EndChar

StartChar: v1
Encoding: 138 3381 88
Width: 1748
GlyphClass: 2
Flags: W
LayerCount: 2
Back
Fore
SplineSet
1588 1007.5 m 128,-1,1
 1598 1018 1598 1018 1612.5 1018 c 128,-1,2
 1627 1018 1627 1018 1637.5 1007.5 c 128,-1,3
 1648 997 1648 997 1648 990 c 128,-1,4
 1648 983 1648 983 1648 982 c 2,5,-1
 1646 39 l 2,6,7
 1646 25 1646 25 1635.5 14.5 c 128,-1,8
 1625 4 1625 4 1611 4 c 0,9,-1
 839 6 l 2,10,11
 825 6 825 6 814.5 16.5 c 128,-1,12
 804 27 804 27 804 40 c 0,13,14
 804 68 804 68 830 75 c 0,15,16
 974 116 974 116 1059 240.5 c 128,-1,17
 1144 365 1144 365 1130 514 c 0,18,19
 1114 687 1114 687 978 806 c 0,20,21
 848 920 848 920 667 927 c 0,22,23
 494 934 494 934 359 839 c 0,24,25
 218 740 218 740 181 577 c 0,26,27
 161 490 161 490 180 399.5 c 128,-1,28
 199 309 199 309 252 237.5 c 128,-1,29
 305 166 305 166 386 121.5 c 128,-1,30
 467 77 467 77 556 71 c 0,31,32
 570 70 570 70 579.5 59.5 c 128,-1,33
 589 49 589 49 589 35 c 128,-1,34
 589 21 589 21 579 11 c 128,-1,35
 569 1 569 1 561 1 c 0,36,37
 460 1 460 1 359 56 c 128,-1,38
 258 111 258 111 195.5 195.5 c 128,-1,39
 133 280 133 280 111 385 c 128,-1,40
 89 490 89 490 111 587 c 0,41,42
 155 781 155 781 319 896 c 0,43,44
 474 1005 474 1005 670 997 c 0,45,46
 875 989 875 989 1024 859 c 0,47,48
 1181 722 1181 722 1200 520 c 0,49,50
 1216 345 1216 345 1117 201 c 0,51,52
 1067 128 1067 128 992 76 c 1,53,-1
 1576 74 l 1,54,-1
 1578 983 l 2,55,0
 1578 997 1578 997 1588 1007.5 c 128,-1,1
EndSplineSet
EndChar

StartChar: z1
Encoding: 139 3382 89
Width: 1905
GlyphClass: 2
Flags: W
LayerCount: 2
Back
Fore
SplineSet
747 540 m 0,0,1
 763 728 763 728 874.5 847 c 128,-1,2
 986 966 986 966 1125.5 1004 c 128,-1,3
 1265 1042 1265 1042 1402.5 1006 c 128,-1,4
 1540 970 1540 970 1641.5 871 c 128,-1,5
 1743 772 1743 772 1783.5 636.5 c 128,-1,6
 1824 501 1824 501 1790.5 346.5 c 128,-1,7
 1757 192 1757 192 1622.5 82 c 128,-1,8
 1488 -28 1488 -28 1311 9 c 0,9,10
 1222 28 1222 28 1150.5 93 c 128,-1,11
 1079 158 1079 158 1047 248 c 0,12,13
 983 427 983 427 1065 589 c 0,14,15
 1177 808 1177 808 1403 860 c 1,16,17
 1285 903 1285 903 1173 872 c 128,-1,18
 1061 841 1061 841 979.5 754 c 128,-1,19
 898 667 898 667 887 529 c 0,20,21
 885 503 885 503 884 456 c 0,22,23
 879 264 879 264 836 187 c 0,24,25
 754 35 754 35 595.5 5.5 c 128,-1,26
 437 -24 437 -24 308.5 60.5 c 128,-1,27
 180 145 180 145 131 283.5 c 128,-1,28
 82 422 82 422 110 569 c 128,-1,29
 138 716 138 716 235.5 835 c 128,-1,30
 333 954 333 954 472 1010 c 0,31,32
 485 1015 485 1015 506.5 1015.5 c 128,-1,33
 528 1016 528 1016 548.5 995.5 c 128,-1,34
 569 975 569 975 569 950.5 c 128,-1,35
 569 926 569 926 556 907 c 128,-1,36
 543 888 543 888 524 880 c 0,37,38
 420 838 420 838 344 745.5 c 128,-1,39
 268 653 268 653 247.5 543 c 128,-1,40
 227 433 227 433 262 334.5 c 128,-1,41
 297 236 297 236 382 180 c 128,-1,42
 467 124 467 124 564.5 142 c 128,-1,43
 662 160 662 160 712 252 c 0,44,45
 740 303 740 303 743 460 c 0,46,47
 744 507 744 507 747 540 c 0,0,1
1583 725 m 0,48,49
 1466 749 1466 749 1358.5 697 c 128,-1,50
 1251 645 1251 645 1193 531 c 128,-1,51
 1135 417 1135 417 1177 297 c 0,52,53
 1198 238 1198 238 1243 197.5 c 128,-1,54
 1288 157 1288 157 1341 146 c 0,55,56
 1451 123 1451 123 1541 196 c 128,-1,57
 1631 269 1631 269 1655 382 c 0,58,59
 1696 575 1696 575 1585 724 c 0,60,61
 1584 725 1584 725 1583 725 c 0,48,49
EndSplineSet
EndChar

StartChar: sh
Encoding: 140 3383 90
Width: 2000
GlyphClass: 2
Flags: W
LayerCount: 2
Back
Fore
SplineSet
1397 891 m 0,0,1
 1430 844 1430 844 1439 795 c 128,-1,2
 1448 746 1448 746 1447 681 c 2,3,-1
 1446 540 l 1,4,5
 1616 619 1616 619 1705 784 c 0,6,7
 1747 863 1747 863 1762 949 c 0,8,9
 1766 973 1766 973 1786 990 c 128,-1,10
 1806 1007 1806 1007 1828 1007 c 128,-1,11
 1850 1007 1850 1007 1866 997 c 0,12,13
 1901 977 1901 977 1901 937 c 2,14,-1
 1901 71 l 2,15,16
 1901 42 1901 42 1880.5 21.5 c 128,-1,17
 1860 1 1860 1 1831 1 c 2,18,-1
 535 1 l 2,19,20
 506 1 506 1 485.5 21.5 c 128,-1,21
 465 42 465 42 465 63 c 0,22,23
 465 117 465 117 507 135 c 0,24,25
 570 162 570 162 601 223.5 c 128,-1,26
 632 285 632 285 617 352 c 128,-1,27
 602 419 602 419 548 461 c 128,-1,28
 494 503 494 503 426 501 c 128,-1,29
 358 499 358 499 307 455.5 c 128,-1,30
 256 412 256 412 243.5 346 c 128,-1,31
 231 280 231 280 262.5 220.5 c 128,-1,32
 294 161 294 161 346.5 139 c 128,-1,33
 399 117 399 117 399 79 c 128,-1,34
 399 41 399 41 378.5 20.5 c 128,-1,35
 358 0 358 0 336 0 c 128,-1,36
 314 0 314 0 300 6 c 0,37,38
 193 52 193 52 138.5 155 c 128,-1,39
 84 258 84 258 106 372 c 128,-1,40
 128 486 128 486 216.5 561.5 c 128,-1,41
 305 637 305 637 422.5 640.5 c 128,-1,42
 540 644 540 644 634 571 c 128,-1,43
 728 498 728 498 755 376 c 128,-1,44
 782 254 782 254 715 141 c 1,45,-1
 1303 141 l 1,46,-1
 1305 355 l 1,47,48
 1147 336 1147 336 1039 394 c 128,-1,49
 931 452 931 452 877 542.5 c 128,-1,50
 823 633 823 633 838 751.5 c 128,-1,51
 853 870 853 870 961 947 c 128,-1,52
 1069 1024 1069 1024 1199 1006.5 c 128,-1,53
 1329 989 1329 989 1397 891 c 0,0,1
976 727.5 m 128,-1,55
 968 663 968 663 999.5 610 c 128,-1,56
 1031 557 1031 557 1090 526 c 0,57,58
 1180 478 1180 478 1306 497 c 1,59,-1
 1307 682 l 2,60,61
 1308 773 1308 773 1287 804 c 0,62,63
 1249 859 1249 859 1177 868.5 c 128,-1,64
 1105 878 1105 878 1044.5 835 c 128,-1,54
 984 792 984 792 976 727.5 c 128,-1,55
1761 615 m 1,65,66
 1636 456 1636 456 1445 389 c 1,67,-1
 1443 141 l 1,68,-1
 1761 141 l 1,69,-1
 1761 615 l 1,65,66
EndSplineSet
EndChar

StartChar: s1
Encoding: 141 3384 91
Width: 2757
GlyphClass: 2
Flags: W
LayerCount: 2
Back
Fore
SplineSet
417 992 m 0,0,1
 515 1034 515 1034 602 1034 c 0,2,3
 840.815533981 1034 840.815533981 1034 994 873 c 0,4,5
 1057 807 1057 807 1094 722 c 1,6,7
 1137 886 1137 886 1258 969 c 0,8,9
 1347 1029 1347 1029 1429 1026 c 0,10,11
 1577 1021 1577 1021 1667 928 c 0,12,13
 1787 804 1787 804 1790 606 c 0,14,15
 1791 561 1791 561 1790 520 c 0,16,17
 1786 331 1786 331 1813 265 c 0,18,19
 1864 140 1864 140 1976 86 c 0,20,21
 2129 12 2129 12 2296 74 c 0,22,23
 2418 120 2418 120 2496 221 c 0,24,25
 2603 360 2603 360 2585 535 c 128,-1,26
 2567 710 2567 710 2434.5 825 c 128,-1,27
 2302 940 2302 940 2126 933 c 1,28,-1
 2117.5 933 l 2,29,30
 2110 933 2110 933 2099.5 943 c 128,-1,31
 2089 953 2089 953 2089 967.5 c 128,-1,32
 2089 982 2089 982 2099 992 c 128,-1,33
 2109 1002 2109 1002 2123 1003 c 0,34,35
 2326 1011 2326 1011 2480 877.5 c 128,-1,36
 2634 744 2634 744 2654.5 542 c 128,-1,37
 2675 340 2675 340 2551.5 178.5 c 128,-1,38
 2428 17 2428 17 2227 -16 c 0,39,40
 2077 -41 2077 -41 1943 24 c 128,-1,41
 1809 89 1809 89 1753 226 c 0,42,43
 1717 314 1717 314 1719 468 c 1,44,45
 1725 617 1725 617 1708 709.5 c 128,-1,46
 1691 802 1691 802 1618.5 877 c 128,-1,47
 1546 952 1546 952 1457 955 c 128,-1,48
 1368 958 1368 958 1300.5 912 c 128,-1,49
 1233 866 1233 866 1196.5 794.5 c 128,-1,50
 1160 723 1160 723 1149.5 643.5 c 128,-1,51
 1139 564 1139 564 1139 454 c 2,52,-1
 1139 32 l 2,53,54
 1139 18 1139 18 1128.5 8 c 128,-1,55
 1118 -2 1118 -2 1104 -2 c 128,-1,56
 1090 -2 1090 -2 1079.5 8 c 128,-1,57
 1069 18 1069 18 1069 32 c 2,58,-1
 1067 493 l 2,59,60
 1067 494 1067 494 1067 495 c 0,61,62
 1071 585 1071 585 1038.5 672.5 c 128,-1,63
 1006 760 1006 760 943.5 825 c 128,-1,64
 881 890 881 890 795.5 927 c 128,-1,65
 710 964 710 964 620 964 c 128,-1,66
 530 964 530 964 444.5 927.5 c 128,-1,67
 359 891 359 891 297 826.5 c 128,-1,68
 235 762 235 762 201.5 675.5 c 128,-1,69
 168 589 168 589 171.5 499.5 c 128,-1,70
 175 410 175 410 214.5 326 c 128,-1,71
 254 242 254 242 320.5 182 c 128,-1,72
 387 122 387 122 475 92 c 128,-1,73
 563 62 563 62 652 69 c 1,74,-1
 659.5 69 l 2,75,76
 665 69 665 69 677.5 61.5 c 128,-1,77
 690 54 690 54 690 39.5 c 0,78,79
 690 0.736842105263 690 0.736842105263 657 -1 c 0,80,81
 553 -9 553 -9 452 26 c 0,82,83
 244 97 244 97 150.5 296 c 128,-1,84
 57 495 57 495 136 700.5 c 128,-1,85
 215 906 215 906 417 992 c 0,0,1
EndSplineSet
EndChar

StartChar: h1
Encoding: 142 3385 92
Width: 2151
GlyphClass: 2
Flags: W
LayerCount: 2
Back
Fore
SplineSet
1204.5 883.5 m 132,-1,1
 1355 1012 1355 1012 1560 1005.5 c 132,-1,2
 1765 999 1765 999 1910 843.5 c 132,-1,3
 2055 688 2055 688 2051 476 c 4,4,5
 2048 318 2048 318 1959 187.5 c 4,6,7
 1878 69 1878 69 1724 -2 c 4,8,9
 1711 -8 1711 -8 1689 -8 c 132,-1,10
 1667 -8 1667 -8 1646.5 12.5 c 132,-1,11
 1626 33 1626 33 1626 57.5 c 132,-1,12
 1626 82 1626 82 1639 101 c 132,-1,13
 1652 120 1652 120 1671 127 c 4,14,15
 1778 171 1778 171 1843.5 266.5 c 132,-1,16
 1909 362 1909 362 1911 457 c 4,17,18
 1914 634 1914 634 1808.5 747.5 c 132,-1,19
 1703 861 1703 861 1554 866 c 132,-1,20
 1405 871 1405 871 1296 777.5 c 132,-1,21
 1187 684 1187 684 1169 542 c 132,-1,22
 1151 400 1151 400 1234.5 282.5 c 132,-1,23
 1318 165 1318 165 1458 135 c 4,24,25
 1481 130 1481 130 1497 110 c 132,-1,26
 1513 90 1513 90 1513 64 c 132,-1,27
 1513 38 1513 38 1492.5 17.5 c 132,-1,28
 1471.90022936 -3.0997706422 1471.90022936 -3.0997706422 1443 -3 c 6,29,-1
 574 0 l 2,30,31
 545 0 545 0 525 20.5 c 128,-1,32
 505 41 505 41 505 65 c 0,33,34
 505 116 505 116 546 134 c 0,35,36
 610 162 610 162 646 221.5 c 128,-1,37
 682 281 682 281 676.5 350.5 c 128,-1,38
 671 420 671 420 626 473.5 c 128,-1,39
 581 527 581 527 528 541 c 0,40,41
 429 567 429 567 352.5 524.5 c 128,-1,42
 276 482 276 482 250 398.5 c 128,-1,43
 224 315 224 315 263 236.5 c 0,44,45
 303 156 303 156 384 128 c 0,46,47
 404 121 404 121 417.5 102 c 128,-1,48
 431 83 431 83 431 63 c 128,-1,49
 431 43 431 43 422 27 c 0,50,51
 402 -8 402 -8 361 -8 c 0,52,53
 348 -8 348 -8 336 -4 c 0,54,55
 201 45 201 45 137 174 c 128,-1,56
 73 303 73 303 116 440 c 128,-1,57
 159 577 159 577 284.5 647 c 128,-1,58
 410 717 410 717 535 684 c 128,-1,59
 660 651 660 651 733.5 563.5 c 128,-1,60
 807 476 807 476 816 358.5 c 128,-1,61
 825 241 825 241 759 139 c 1,62,-1
 1174 138 l 5,63,64
 1076 237 1076 237 1047 351 c 132,-1,65
 1018 465 1018 465 1030 559 c 4,66,0
 1054 755 1054 755 1204.5 883.5 c 132,-1,1
EndSplineSet
EndChar

StartChar: avagraha
Encoding: 144 3389 93
Width: 1438
GlyphClass: 2
Flags: W
LayerCount: 2
Back
Fore
SplineSet
889.846679688 1337.26757812 m 4,0,1
 1015.9921875 1459.53027344 1015.9921875 1459.53027344 1179.91894531 1428.44726562 c 4,2,3
 1261.05175781 1413.06445312 1261.05175781 1413.06445312 1324.41503906 1360.10351562 c 132,-1,4
 1387.78027344 1307.140625 1387.78027344 1307.140625 1417.31347656 1230.02539062 c 132,-1,5
 1446.84765625 1152.91015625 1446.84765625 1152.91015625 1435.07324219 1071.171875 c 4,6,7
 1427.19726562 1010.12109375 1427.19726562 1010.12109375 1359.50683594 1010.12109375 c 4,8,9
 1336.65917969 1010.12109375 1336.65917969 1010.12109375 1316.14746094 1030.6328125 c 132,-1,10
 1295.63476562 1051.14550781 1295.63476562 1051.14550781 1295.63476562 1068.40625 c 132,-1,11
 1295.63476562 1085.66601562 1295.63476562 1085.66601562 1299.36230469 1111.24902344 c 132,-1,12
 1303.08886719 1136.83203125 1303.08886719 1136.83203125 1286.57324219 1179.95507812 c 132,-1,13
 1270.05859375 1223.07421875 1270.05859375 1223.07421875 1234.63183594 1252.68554688 c 4,14,15
 1158.63769531 1316.20410156 1158.63769531 1316.20410156 1069.02929688 1286.36621094 c 132,-1,16
 979.420898438 1256.52734375 979.420898438 1256.52734375 930.104492188 1156.24414062 c 4,17,18
 897.053710938 1089.03515625 897.053710938 1089.03515625 874.409179688 939.103515625 c 6,19,-1
 831.266601562 653.44921875 l 5,20,-1
 1035.22167969 653.44921875 l 6,21,22
 1035.70019531 653.456054688 1035.70019531 653.456054688 1050.44726562 653.456054688 c 132,-1,23
 1065.19433594 653.456054688 1065.19433594 653.456054688 1085.70703125 632.944335938 c 132,-1,24
 1106.21875 612.431640625 1106.21875 612.431640625 1106.21875 583.44921875 c 132,-1,25
 1106.21875 554.466796875 1106.21875 554.466796875 1085.70703125 533.954101562 c 132,-1,26
 1065.19433594 513.442382812 1065.19433594 513.442382812 1050.44726562 513.442382812 c 132,-1,27
 1035.70019531 513.442382812 1035.70019531 513.442382812 1035.22167969 513.44921875 c 6,28,-1
 810.122070312 513.44921875 l 5,29,-1
 729.608398438 -19.65625 l 6,30,31
 708.291015625 -160.80859375 708.291015625 -160.80859375 678.901367188 -232.947265625 c 4,32,33
 626.583984375 -361.364257812 626.583984375 -361.364257812 534.517578125 -416.119140625 c 132,-1,34
 442.451171875 -470.875 442.451171875 -470.875 347.143554688 -465.720703125 c 132,-1,35
 251.834960938 -460.56640625 251.834960938 -460.56640625 175.538085938 -403.212890625 c 132,-1,36
 99.240234375 -345.859375 99.240234375 -345.859375 67.8037109375 -255.736328125 c 132,-1,37
 36.3671875 -165.615234375 36.3671875 -165.615234375 60.4384765625 -73.25 c 4,38,39
 65.8564453125 -51.17578125 65.8564453125 -51.17578125 85.77734375 -35.552734375 c 132,-1,40
 105.698242188 -19.9296875 105.698242188 -19.9296875 131.5546875 -19.9296875 c 132,-1,41
 157.411132812 -19.9296875 157.411132812 -19.9296875 177.922851562 -40.44140625 c 132,-1,42
 198.434570312 -60.953125 198.434570312 -60.953125 198.434570312 -80.1845703125 c 132,-1,43
 198.434570312 -99.416015625 198.434570312 -99.416015625 195.913085938 -108.556640625 c 4,44,45
 182.58203125 -159.7109375 182.58203125 -159.7109375 199.993164062 -209.626953125 c 132,-1,46
 217.403320312 -259.538085938 217.403320312 -259.538085938 259.661132812 -291.3046875 c 132,-1,47
 301.91796875 -323.0703125 301.91796875 -323.0703125 354.704101562 -325.923828125 c 132,-1,48
 407.489257812 -328.779296875 407.489257812 -328.779296875 461.072265625 -296.912109375 c 132,-1,49
 514.654296875 -265.044921875 514.654296875 -265.044921875 543.501953125 -194.236328125 c 132,-1,50
 572.349609375 -123.426757812 572.349609375 -123.426757812 591.178710938 1.25 c 6,51,-1
 668.536132812 513.44921875 l 5,52,-1
 459.221679688 513.44921875 l 6,53,54
 458.743164062 513.442382812 458.743164062 513.442382812 443.99609375 513.442382812 c 132,-1,55
 429.249023438 513.442382812 429.249023438 513.442382812 408.737304688 533.954101562 c 132,-1,56
 388.224609375 554.466796875 388.224609375 554.466796875 388.224609375 583.44921875 c 132,-1,57
 388.224609375 612.431640625 388.224609375 612.431640625 408.737304688 632.944335938 c 132,-1,58
 429.249023438 653.456054688 429.249023438 653.456054688 443.99609375 653.456054688 c 132,-1,59
 458.743164062 653.456054688 458.743164062 653.456054688 459.221679688 653.44921875 c 6,60,-1
 689.678710938 653.44921875 l 5,61,-1
 735.979492188 960.01171875 l 6,62,63
 755.805664062 1091.28417969 755.805664062 1091.28417969 772.596679688 1139.31542969 c 132,-1,64
 789.38671875 1187.34570312 789.38671875 1187.34570312 814.076171875 1237.55175781 c 132,-1,65
 838.766601562 1287.7578125 838.766601562 1287.7578125 889.846679688 1337.26757812 c 4,0,1
EndSplineSet
EndChar

StartChar: a2
Encoding: 145 3390 94
Width: 977
GlyphClass: 2
Flags: W
LayerCount: 2
Back
Fore
SplineSet
220 917 m 4,0,1
 316 1007 316 1007 430 1012 c 4,2,3
 647 1020 647 1020 777 845 c 4,4,5
 886 699 886 699 877 493 c 4,6,7
 868 288 868 288 749 153 c 4,8,9
 684 79 684 79 594.5 41 c 132,-1,10
 505 3 505 3 395 15.5 c 132,-1,11
 285 28 285 28 197.5 118.5 c 132,-1,12
 110 209 110 209 100 335 c 4,13,14
 100 337 100 337 100 344.5 c 132,-1,15
 100 352 100 352 110.5 362.5 c 132,-1,16
 121 373 121 373 135 373 c 132,-1,17
 149 373 149 373 159 363.5 c 132,-1,18
 169 354 169 354 170 340 c 4,19,20
 178 240 178 240 248 167.5 c 132,-1,21
 318 95 318 95 406 85 c 4,22,23
 578 66 578 66 696 199 c 4,24,25
 799 316 799 316 807 496 c 4,26,27
 815 677 815 677 721 804 c 4,28,29
 671 871 671 871 600 908 c 132,-1,30
 529 945 529 945 437 942 c 132,-1,31
 345 939 345 939 268 866.5 c 132,-1,32
 191 794 191 794 180 689 c 4,33,34
 179 676 179 676 168.5 666.5 c 132,-1,35
 158 657 158 657 144.5 657 c 132,-1,36
 131 657 131 657 120.5 667.5 c 132,-1,37
 110 678 110 678 110 686 c 132,-1,38
 110 694 110 694 113.5 726.5 c 132,-1,39
 117 759 117 759 145.5 816.5 c 132,-1,40
 174 874 174 874 220 917 c 4,0,1
EndSplineSet
EndChar

StartChar: i1
Encoding: 146 3391 95
Width: 340
GlyphClass: 2
Flags: W
LayerCount: 2
Back
Fore
SplineSet
-404 1328 m 132,-1,1
 -296 1440 -296 1440 -140 1434 c 4,2,3
 -42 1430 -42 1430 39 1376 c 4,4,5
 195 1273 195 1273 228 1058 c 4,6,7
 237 996 237 996 238 879 c 6,8,-1
 238 675 l 6,9,10
 239 242 239 242 240 26 c 4,11,12
 240 11 240 11 229.5 1 c 132,-1,13
 219 -9 219 -9 207 -9 c 132,-1,14
 195 -9 195 -9 187 -5 c 4,15,16
 170 5 170 5 170 26 c 4,17,18
 170 217 170 217 168 674 c 6,19,-1
 168 879 l 6,20,21
 168 991 168 991 157 1063 c 132,-1,22
 146 1135 146 1135 107 1204 c 132,-1,23
 68 1273 68 1273 2 1316.5 c 132,-1,24
 -64 1360 -64 1360 -132.5 1363 c 132,-1,25
 -201 1366 -201 1366 -257 1343.5 c 132,-1,26
 -313 1321 -313 1321 -354 1279 c 4,27,28
 -440 1189 -440 1189 -430 1066 c 4,29,30
 -430 1064 -430 1064 -430 1058.5 c 132,-1,31
 -430 1053 -430 1053 -435 1045 c 4,32,33
 -445 1028 -445 1028 -458.5 1027.5 c 132,-1,34
 -472 1027 -472 1027 -478 1030 c 132,-1,35
 -484 1033 -484 1033 -489 1037 c 4,36,37
 -499 1047 -499 1047 -500 1060 c 4,38,0
 -512 1216 -512 1216 -404 1328 c 132,-1,1
EndSplineSet
EndChar

StartChar: i2
Encoding: 147 3392 96
Width: 398
GlyphClass: 2
Flags: W
LayerCount: 2
Back
Fore
SplineSet
-302 1125 m 4,0,1
 -328 1240 -328 1240 -208 1330 c 4,2,3
 -148 1374 -148 1374 -52 1379 c 132,-1,4
 44 1384 44 1384 107.5 1365.5 c 132,-1,5
 171 1347 171 1347 219.5 1298.5 c 132,-1,6
 268 1250 268 1250 283 1191.5 c 132,-1,7
 298 1133 298 1133 297 1051 c 6,8,-1
 295 30 l 5,9,-1
 295 29 l 6,10,11
 295 15 295 15 284.5 4.5 c 132,-1,12
 274 -6 274 -6 262 -6 c 132,-1,13
 250 -6 250 -6 242 -1 c 4,14,15
 225 9 225 9 225 19.5 c 4,16,-1
 225 30 l 6,17,-1
 227 1051 l 6,18,19
 227 1124 227 1124 215.5 1169 c 132,-1,20
 204 1214 204 1214 169 1250 c 4,21,22
 96 1324 96 1324 -50 1309 c 5,23,24
 10 1270 10 1270 23 1206.5 c 132,-1,25
 36 1143 36 1143 12 1093.5 c 132,-1,26
 -12 1044 -12 1044 -58.5 1018 c 132,-1,27
 -105 992 -105 992 -158 997.5 c 132,-1,28
 -211 1003 -211 1003 -250.5 1038 c 132,-1,29
 -290 1073 -290 1073 -302 1125 c 4,0,1
-75.5 1241 m 132,-1,31
 -101 1263 -101 1263 -134 1265.5 c 132,-1,32
 -167 1268 -167 1268 -195 1251 c 5,33,34
 -247 1201 -247 1201 -234 1141 c 4,35,36
 -227 1111 -227 1111 -204 1090.5 c 132,-1,37
 -181 1070 -181 1070 -150.5 1067 c 132,-1,38
 -120 1064 -120 1064 -93 1079 c 132,-1,39
 -66 1094 -66 1094 -51.5 1123 c 132,-1,40
 -37 1152 -37 1152 -43.5 1185.5 c 132,-1,30
 -50 1219 -50 1219 -75.5 1241 c 132,-1,31
EndSplineSet
EndChar

StartChar: u1
Encoding: 148 3393 97
Width: 867
GlyphClass: 2
Flags: W
LayerCount: 2
Back
Fore
SplineSet
235.969726562 981.05859375 m 4,0,1
 383.314453125 1060.83203125 383.314453125 1060.83203125 523.635742188 1011.29589844 c 132,-1,2
 663.958007812 961.759765625 663.958007812 961.759765625 725.3359375 849.305664062 c 4,3,4
 801.908203125 717.759765625 801.908203125 717.759765625 738.623046875 541.4453125 c 4,5,6
 713.0703125 470.252929688 713.0703125 470.252929688 632.623046875 351.024414062 c 132,-1,7
 552.176757812 231.796875 552.176757812 231.796875 490.84765625 143.288085938 c 132,-1,8
 429.518554688 54.7802734375 429.518554688 54.7802734375 396.268554688 5.4501953125 c 5,9,10
 469.618164062 14.2705078125 469.618164062 14.2705078125 540.604492188 -14.34765625 c 132,-1,11
 611.590820312 -42.96484375 611.590820312 -42.96484375 662.21875 -100.321289062 c 132,-1,12
 712.846679688 -157.678710938 712.846679688 -157.678710938 731.109375 -230.893554688 c 132,-1,13
 749.37109375 -304.108398438 749.37109375 -304.108398438 728.9765625 -381.501953125 c 132,-1,14
 708.58203125 -458.895507812 708.58203125 -458.895507812 654.46875 -517.935546875 c 132,-1,15
 600.354492188 -576.975585938 600.354492188 -576.975585938 526.569335938 -599.735351562 c 5,16,17
 419.932617188 -640.94921875 419.932617188 -640.94921875 298.2109375 -585.493164062 c 4,18,19
 245.668945312 -561.5546875 245.668945312 -561.5546875 204.002929688 -517.141601562 c 132,-1,20
 162.336914062 -472.729492188 162.336914062 -472.729492188 143.838867188 -421.03125 c 4,21,22
 77.5146484375 -235.673828125 77.5146484375 -235.673828125 210.966796875 -23.78515625 c 4,23,24
 268.806640625 68.0498046875 268.806640625 68.0498046875 411.252929688 275.032226562 c 132,-1,25
 553.69921875 482.014648438 553.69921875 482.014648438 583.970703125 538.033203125 c 4,26,27
 647.754882812 656.069335938 647.754882812 656.069335938 616.811523438 749.078125 c 132,-1,28
 585.868164062 842.0859375 585.868164062 842.0859375 488.528320312 874.776367188 c 4,29,30
 350.853515625 921.013671875 350.853515625 921.013671875 248.948242188 814.763671875 c 4,31,32
 213.8828125 778.202148438 213.8828125 778.202148438 199.583007812 768.797851562 c 132,-1,33
 185.283203125 759.39453125 185.283203125 759.39453125 163.236328125 762.805664062 c 132,-1,34
 141.189453125 766.216796875 141.189453125 766.216796875 126.219726562 780.384765625 c 4,35,36
 87.8671875 816.681640625 87.8671875 816.681640625 105.61328125 856.23828125 c 5,37,38
 150.994140625 935.051757812 150.994140625 935.051757812 235.969726562 981.05859375 c 4,0,1
520.01953125 -160.5703125 m 132,-1,40
 475.41015625 -130.545898438 475.41015625 -130.545898438 427.231445312 -131.842773438 c 4,41,42
 326.021484375 -134.569335938 326.021484375 -134.569335938 277.288085938 -220.360351562 c 5,43,44
 242.715820312 -311.840820312 242.715820312 -311.840820312 286.055664062 -392.48046875 c 132,-1,45
 329.395507812 -473.12109375 329.395507812 -473.12109375 417.553710938 -475.29296875 c 132,-1,46
 505.711914062 -477.46484375 505.711914062 -477.46484375 565.877929688 -406.057617188 c 132,-1,47
 626.044921875 -334.650390625 626.044921875 -334.650390625 585.731445312 -240.090820312 c 4,48,39
 564.629882812 -190.595703125 564.629882812 -190.595703125 520.01953125 -160.5703125 c 132,-1,40
EndSplineSet
EndChar

StartChar: u2
Encoding: 149 3394 98
Width: 1084
GlyphClass: 2
Flags: W
LayerCount: 2
Back
Fore
SplineSet
236 968 m 4,0,1
 402 1058 402 1058 564.5 982.5 c 132,-1,2
 727 907 727 907 757.5 753 c 132,-1,3
 788 599 788 599 707 457 c 4,4,5
 649 356 649 356 557.5 225.5 c 132,-1,6
 466 95 466 95 436 51 c 5,7,8
 577 82 577 82 714 14 c 132,-1,9
 851 -54 851 -54 921 -182 c 4,10,11
 977 -279 977 -279 983.5 -395 c 132,-1,12
 990 -511 990 -511 946.5 -619 c 132,-1,13
 903 -727 903 -727 818 -800 c 5,14,15
 736 -877 736 -877 625.5 -910 c 132,-1,16
 515 -943 515 -943 400.5 -926 c 132,-1,17
 286 -909 286 -909 195 -845 c 5,18,19
 154 -827 154 -827 155 -778 c 132,-1,20
 156 -729 156 -729 196 -715 c 132,-1,21
 236 -701 236 -701 300 -744 c 4,22,23
 327 -762 327 -762 346 -767 c 4,24,25
 469 -818 469 -818 601.5 -770 c 132,-1,26
 734 -722 734 -722 798 -605 c 5,27,28
 871 -483 871 -483 832 -335 c 4,29,30
 815 -269 815 -269 772 -211 c 132,-1,31
 729 -153 729 -153 668 -120 c 5,32,33
 719 -179 719 -179 733.5 -259 c 132,-1,34
 748 -339 748 -339 723 -416.5 c 132,-1,35
 698 -494 698 -494 639 -546 c 5,36,37
 549 -635 549 -635 413.5 -628 c 132,-1,38
 278 -621 278 -621 198 -522 c 4,39,40
 150 -467 150 -467 133 -392 c 4,41,42
 101 -248 101 -248 174 -105 c 4,43,44
 226 -6 226 -6 312 117.5 c 132,-1,45
 398 241 398 241 420 275 c 132,-1,46
 442 309 442 309 480 362 c 132,-1,47
 518 415 518 415 541 450 c 4,48,49
 662 631 662 631 613 746 c 4,50,51
 589 802 589 802 539 837 c 132,-1,52
 489 872 489 872 431 873 c 5,53,54
 311 886 311 886 211 761 c 5,55,56
 170 731 170 731 128.5 766 c 132,-1,57
 87 801 87 801 106 843 c 5,58,59
 151 922 151 922 236 968 c 4,0,1
525 -176.5 m 132,-1,61
 479 -143 479 -143 429.5 -145 c 132,-1,62
 380 -147 380 -147 344 -167 c 4,63,64
 293 -192 293 -192 273 -247.5 c 132,-1,65
 253 -303 253 -303 267.5 -360.5 c 132,-1,66
 282 -418 282 -418 319.5 -448.5 c 132,-1,67
 357 -479 357 -479 399 -486 c 132,-1,68
 441 -493 441 -493 479.5 -480.5 c 132,-1,69
 518 -468 518 -468 549 -438.5 c 132,-1,70
 580 -409 580 -409 594.5 -363.5 c 132,-1,71
 609 -318 609 -318 590 -264 c 132,-1,60
 571 -210 571 -210 525 -176.5 c 132,-1,61
EndSplineSet
EndChar

StartChar: r1
Encoding: 150 3395 99
Width: 392
GlyphClass: 2
Flags: W
LayerCount: 2
Back
Fore
SplineSet
76 999 m 128,-1,1
 110 999 110 999 128 962 c 0,2,3
 353 514 353 514 271 38 c 0,4,5
 225 -212 225 -212 54 -381 c 0,6,7
 -38 -472 -38 -472 -127.5 -507.5 c 128,-1,8
 -217 -543 -217 -543 -285.5 -555 c 128,-1,9
 -354 -567 -354 -567 -433 -555.5 c 128,-1,10
 -512 -544 -512 -544 -571 -506 c 128,-1,11
 -630 -468 -630 -468 -658.5 -411 c 128,-1,12
 -687 -354 -687 -354 -681 -289.5 c 128,-1,13
 -675 -225 -675 -225 -630 -176 c 0,14,15
 -512 -41 -512 -41 -247 -100 c 0,16,17
 -100 -133 -100 -133 25 -216 c 1,18,19
 115 -93 115 -93 144 62 c 0,20,21
 218 493 218 493 12 904 c 0,22,23
 -10 947 -10 947 16 973 c 128,-1,0
 42 999 42 999 76 999 c 128,-1,1
-64 -313 m 1,24,25
 -224 -214 -224 -214 -390 -212 c 0,26,27
 -488 -210 -488 -210 -533 -262 c 0,28,29
 -533 -263 -533 -263 -534 -263 c 0,30,31
 -557 -289 -557 -289 -547.5 -330.5 c 128,-1,32
 -538 -372 -538 -372 -506 -393 c 1,33,34
 -505 -393 -505 -393 -506 -393 c 1,35,36
 -388 -471 -388 -471 -196 -395 c 0,37,38
 -125 -365 -125 -365 -64 -313 c 1,24,25
EndSplineSet
EndChar

StartChar: e1
Encoding: 152 3398 100
Width: 1419
GlyphClass: 2
Flags: W
LayerCount: 2
Back
Fore
SplineSet
1018.5 948 m 128,-1,1
 1179 853 1179 853 1259.5 685 c 128,-1,2
 1340 517 1340 517 1313 332.5 c 128,-1,3
 1286 148 1286 148 1161 9 c 0,4,5
 1151 -3 1151 -3 1136 -3 c 128,-1,6
 1121 -3 1121 -3 1110.5 7.5 c 128,-1,7
 1100 18 1100 18 1100 32 c 128,-1,8
 1100 46 1100 46 1109 56 c 0,9,10
 1220 179 1220 179 1243.5 342.5 c 128,-1,11
 1267 506 1267 506 1196 655 c 128,-1,12
 1125 804 1125 804 983 888 c 128,-1,13
 841 972 841 972 676 962 c 0,14,15
 493 952 493 952 354 833 c 0,16,17
 209 708 209 708 179 529 c 0,18,19
 178 526 178 526 178 525 c 1,20,21
 233 616 233 616 319 656.5 c 128,-1,22
 405 697 405 697 478.5 697 c 128,-1,23
 552 697 552 697 616 672 c 128,-1,24
 680 647 680 647 730 601 c 0,25,26
 865 476 865 476 839 295 c 0,27,28
 825 191 825 191 769 126 c 0,29,30
 664 5 664 5 521 -6 c 0,31,32
 419 -13 419 -13 328 35 c 128,-1,33
 237 83 237 83 181 167 c 128,-1,34
 125 251 125 251 108 352.5 c 128,-1,35
 91 454 91 454 111 550 c 0,36,37
 153 752 153 752 309 886 c 0,38,39
 465 1021 465 1021 661.5 1032 c 128,-1,0
 858 1043 858 1043 1018.5 948 c 128,-1,1
591 607 m 0,40,41
 539 627 539 627 480 627 c 128,-1,42
 421 627 421 627 361 598.5 c 128,-1,43
 301 570 301 570 261 521 c 128,-1,44
 221 472 221 472 204.5 408 c 128,-1,45
 188 344 188 344 200 281 c 0,46,47
 205 256 205 256 245 196.5 c 128,-1,48
 285 137 285 137 360 97 c 0,49,50
 491 28 491 28 619 93 c 0,51,52
 720 144 720 144 757 252 c 0,53,54
 793 360 793 360 745 463 c 0,55,56
 697 566 697 566 591 607 c 0,40,41
EndSplineSet
EndChar

StartChar: e2
Encoding: 153 3399 101
Width: 1010
GlyphClass: 2
Flags: W
LayerCount: 2
Back
Fore
SplineSet
584.37109375 1012.56640625 m 4,0,1
 596.162109375 1012.53515625 596.162109375 1012.53515625 607.828125 1011.90039062 c 4,2,3
 662.66015625 1008.9140625 662.66015625 1008.9140625 710.95703125 992.725585938 c 4,4,5
 711.172851562 992.713867188 711.172851562 992.713867188 711.62109375 992.7109375 c 4,6,7
 724.260742188 992.111328125 724.260742188 992.111328125 733.361328125 984.322265625 c 4,8,9
 779.349609375 965.112304688 779.349609375 965.112304688 814.060546875 934.185546875 c 4,10,11
 860.208007812 893.067382812 860.208007812 893.067382812 880.35546875 838.37109375 c 4,12,13
 902.450195312 778.387695312 902.450195312 778.387695312 887.986328125 719.112304688 c 4,14,15
 874.717773438 664.743164062 874.717773438 664.743164062 834.076171875 625.615234375 c 4,16,17
 794.04296875 587.07421875 794.04296875 587.07421875 739.34375 574.947265625 c 4,18,19
 685.477539062 563.00390625 685.477539062 563.00390625 632.5390625 580.154296875 c 4,20,21
 580.418945312 597.037109375 580.418945312 597.037109375 543.037109375 637.74609375 c 4,22,23
 499.1640625 685.521484375 499.1640625 685.521484375 489.5390625 749.668945312 c 132,-1,24
 479.913085938 813.814453125 479.913085938 813.814453125 507.833984375 872.365234375 c 4,25,26
 526.913085938 912.373046875 526.913085938 912.373046875 561.17578125 941.828125 c 5,27,28
 492.6171875 937.813476562 492.6171875 937.813476562 427.568359375 910.665039062 c 132,-1,29
 362.51953125 883.516601562 362.51953125 883.516601562 311.3984375 837.529296875 c 4,30,31
 252.412109375 784.467773438 252.412109375 784.467773438 215.90234375 710.86328125 c 132,-1,32
 179.392578125 637.258789062 179.392578125 637.258789062 171.931640625 557.3359375 c 4,33,34
 164.520507812 477.956054688 164.520507812 477.956054688 185.9765625 398.5 c 132,-1,35
 207.431640625 319.04296875 207.431640625 319.04296875 253.6796875 252.900390625 c 4,36,37
 299.579101562 187.25390625 299.579101562 187.25390625 366.459960938 139.030273438 c 132,-1,38
 433.33984375 90.806640625 433.33984375 90.806640625 510.87890625 66.8896484375 c 4,39,40
 529.908203125 61.021484375 529.908203125 61.021484375 549.9453125 56.841796875 c 5,41,42
 508.98046875 97.4326171875 508.98046875 97.4326171875 493.564453125 152.606445312 c 4,43,44
 472.474609375 228.090820312 472.474609375 228.090820312 504.537109375 299.606445312 c 132,-1,45
 536.598632812 371.12109375 536.598632812 371.12109375 606.984375 405.592773438 c 4,46,47
 652.177734375 427.905273438 652.177734375 427.905273438 703.751953125 427.372070312 c 132,-1,48
 755.326171875 426.838867188 755.326171875 426.838867188 800.09375 403.235351562 c 4,49,50
 845.305664062 379.3984375 845.305664062 379.3984375 874.609375 336.64453125 c 132,-1,51
 903.913085938 293.890625 903.913085938 293.890625 909.36328125 243.171875 c 4,52,53
 917.538085938 167.091796875 917.538085938 167.091796875 873.25 99.826171875 c 4,54,55
 833.317382812 39.17578125 833.317382812 39.17578125 762.80078125 6.8984375 c 4,56,57
 644.071289062 -47.447265625 644.071289062 -47.447265625 490.248046875 0 c 4,58,59
 401.424804688 27.396484375 401.424804688 27.396484375 325.298828125 82.2900390625 c 132,-1,60
 249.173828125 137.182617188 249.173828125 137.182617188 196.310546875 212.788085938 c 4,61,62
 142.831054688 289.276367188 142.831054688 289.276367188 118.224609375 380.416015625 c 132,-1,63
 93.6181640625 471.556640625 93.6181640625 471.556640625 102.234375 563.841796875 c 4,64,65
 110.9453125 657.150390625 110.9453125 657.150390625 153.1484375 742.221679688 c 132,-1,66
 195.3515625 827.293945312 195.3515625 827.293945312 264.58203125 889.572265625 c 4,67,68
 330.059570312 948.474609375 330.059570312 948.474609375 413.391601562 980.630859375 c 132,-1,69
 496.723632812 1012.78808594 496.723632812 1012.78808594 584.37109375 1012.56640625 c 4,0,1
697.244140625 923.060546875 m 5,70,71
 659.372070312 922.440429688 659.372070312 922.440429688 627.16015625 903.484375 c 4,72,73
 589.717773438 881.448242188 589.717773438 881.448242188 571.017578125 842.234375 c 132,-1,74
 552.317382812 803.018554688 552.317382812 803.018554688 558.763671875 760.056640625 c 132,-1,75
 565.2109375 717.091796875 565.2109375 717.091796875 594.595703125 685.09375 c 4,76,77
 619.520507812 657.950195312 619.520507812 657.950195312 654.111328125 646.74609375 c 4,78,79
 688.924804688 635.467773438 688.924804688 635.467773438 724.19140625 643.287109375 c 4,80,81
 759.674804688 651.153320312 759.674804688 651.153320312 785.52734375 676.04296875 c 132,-1,82
 811.528320312 701.07421875 811.528320312 701.07421875 819.98046875 735.708984375 c 4,83,84
 829.3828125 774.233398438 829.3828125 774.233398438 814.669921875 814.174804688 c 4,85,86
 800.571289062 852.450195312 800.571289062 852.450195312 767.494140625 881.921875 c 4,87,88
 738.758789062 907.5234375 738.758789062 907.5234375 697.244140625 923.060546875 c 5,70,71
702.962890625 357.014648438 m 132,-1,90
 667.674804688 357.373046875 667.674804688 357.373046875 637.7734375 342.728515625 c 4,91,92
 590.1171875 319.388671875 590.1171875 319.388671875 568.41015625 270.970703125 c 132,-1,93
 546.703125 222.551757812 546.703125 222.551757812 560.982421875 171.4453125 c 132,-1,94
 575.26171875 120.337890625 575.26171875 120.337890625 618.921875 90.18359375 c 132,-1,95
 662.583007812 60.02734375 662.583007812 60.02734375 715.435546875 64.7685546875 c 4,96,97
 717.095703125 64.9267578125 717.095703125 64.9267578125 718.75 64.9267578125 c 4,98,99
 719.387695312 64.9267578125 719.387695312 64.9267578125 720.05859375 64.9013671875 c 4,100,101
 727.43359375 67.6923828125 727.43359375 67.6923828125 733.66796875 70.546875 c 4,102,103
 785.903320312 94.455078125 785.903320312 94.455078125 814.78515625 138.3203125 c 4,104,105
 845.25390625 184.595703125 845.25390625 184.595703125 839.763671875 235.692382812 c 4,106,107
 838.044921875 251.688476562 838.044921875 251.688476562 831.93359375 267.512695312 c 132,-1,108
 825.821289062 283.336914062 825.821289062 283.336914062 816.412109375 297.047851562 c 132,-1,109
 807.00390625 310.758789062 807.00390625 310.758789062 794.413085938 322.248046875 c 132,-1,110
 781.822265625 333.737304688 781.822265625 333.737304688 767.447265625 341.31640625 c 4,111,89
 738.350585938 356.65625 738.350585938 356.65625 702.962890625 357.014648438 c 132,-1,90
EndSplineSet
EndChar

StartChar: xx
Encoding: 158 3405 106
Width: 142
GlyphClass: 4
Flags: W
LayerCount: 2
Back
Fore
SplineSet
-228.772460938 1429.94921875 m 0,0,1
 -214.741210938 1429.50390625 -214.741210938 1429.50390625 -204.810546875 1419.25292969 c 128,-1,2
 -194.879882812 1409.00195312 -194.879882812 1409.00195312 -194.879882812 1394.96289062 c 0,3,4
 -194.879882812 1390.37109375 -194.879882812 1390.37109375 -196.065429688 1385.93164062 c 0,5,6
 -207.54296875 1340.37792969 -207.54296875 1340.37792969 -198.124023438 1291.95996094 c 128,-1,7
 -188.705078125 1243.54101562 -188.705078125 1243.54101562 -160.987304688 1205.61132812 c 128,-1,8
 -133.26953125 1167.68164062 -133.26953125 1167.68164062 -90 1144 c 128,-1,9
 -46.73046875 1120.31835938 -46.73046875 1120.31835938 0.1572265625 1117.41601562 c 0,10,11
 49.853515625 1114.33984375 49.853515625 1114.33984375 98.1962890625 1135.00488281 c 128,-1,12
 146.5390625 1155.66894531 146.5390625 1155.66894531 178.657226562 1193.71679688 c 128,-1,13
 210.775390625 1231.76464844 210.775390625 1231.76464844 223.034179688 1282.890625 c 128,-1,14
 235.29296875 1334.015625 235.29296875 1334.015625 223.920898438 1382.49023438 c 0,15,16
 222.866210938 1386.68945312 222.866210938 1386.68945312 222.866210938 1391.01855469 c 0,17,18
 222.866210938 1405.50976562 222.866210938 1405.50976562 233.122070312 1415.765625 c 128,-1,19
 243.377929688 1426.02148438 243.377929688 1426.02148438 257.870117188 1426.02148438 c 0,20,21
 269.541015625 1426.02148438 269.541015625 1426.02148438 279.561523438 1417.95117188 c 128,-1,22
 289.583007812 1409.88085938 289.583007812 1409.88085938 292.069335938 1398.4765625 c 0,23,24
 299.905273438 1365.97363281 299.905273438 1365.97363281 299.4609375 1332.26660156 c 128,-1,25
 299.015625 1298.55859375 299.015625 1298.55859375 291.444335938 1266.48632812 c 128,-1,26
 283.872070312 1234.41308594 283.872070312 1234.41308594 268.759765625 1204.22265625 c 128,-1,27
 253.647460938 1174.03222656 253.647460938 1174.03222656 232.147460938 1148.5625 c 0,28,29
 188.818359375 1097.234375 188.818359375 1097.234375 125.84765625 1070.31738281 c 128,-1,30
 62.876953125 1043.40136719 62.876953125 1043.40136719 -4.1669921875 1047.55078125 c 0,31,32
 -67.2998046875 1051.45898438 -67.2998046875 1051.45898438 -123.7421875 1082.34960938 c 128,-1,33
 -180.184570312 1113.24023438 -180.184570312 1113.24023438 -217.504882812 1164.31054688 c 128,-1,34
 -254.826171875 1215.38085938 -254.826171875 1215.38085938 -267.112304688 1278.54003906 c 128,-1,35
 -279.3984375 1341.69824219 -279.3984375 1341.69824219 -263.944335938 1403.03515625 c 0,36,37
 -261.301757812 1414.18554688 -261.301757812 1414.18554688 -251.322265625 1422.07617188 c 128,-1,38
 -241.342773438 1429.96679688 -241.342773438 1429.96679688 -229.883789062 1429.96679688 c 0,39,40
 -229.32421875 1429.96679688 -229.32421875 1429.96679688 -228.772460938 1429.94921875 c 0,0,1
EndSplineSet
EndChar

StartChar: au2
Encoding: 160 3415 108
Width: 1584
GlyphClass: 2
Flags: W
LayerCount: 2
Back
Fore
SplineSet
263 956 m 132,-1,1
 336 1003 336 1003 420.5 1011.5 c 132,-1,2
 505 1020 505 1020 583 988 c 4,3,4
 716 933 716 933 763 787 c 5,5,6
 835 930 835 930 983 983 c 4,7,8
 1123 1033 1123 1033 1256 970 c 4,9,10
 1357 922 1357 922 1418 826 c 4,11,12
 1506 687 1506 687 1478.5 523.5 c 132,-1,13
 1451 360 1451 360 1341.5 242 c 132,-1,14
 1232 124 1232 124 1074.5 60.5 c 132,-1,15
 917 -3 917 -3 741 0.5 c 132,-1,16
 565 4 565 4 408 75 c 4,17,18
 387 84 387 84 387 103 c 132,-1,19
 387 122 387 122 397 132 c 132,-1,20
 407 142 407 142 418.5 142 c 132,-1,21
 430 142 430 142 437 139 c 4,22,23
 580 74 580 74 742.5 70.5 c 132,-1,24
 905 67 905 67 1048.5 125 c 132,-1,25
 1192 183 1192 183 1288.5 287.5 c 132,-1,26
 1385 392 1385 392 1408 527 c 4,27,28
 1432 673 1432 673 1358 789 c 4,29,30
 1322 846 1322 846 1264.5 884.5 c 132,-1,31
 1207 923 1207 923 1141 932 c 132,-1,32
 1075 941 1075 941 1006 916.5 c 132,-1,33
 937 892 937 892 897 851.5 c 132,-1,34
 857 811 857 811 835 773 c 4,35,36
 791 695 791 695 787 603 c 4,37,38
 787 601 787 601 787 595 c 132,-1,39
 787 589 787 589 786.5 572.5 c 132,-1,40
 786 556 786 556 776 545.5 c 132,-1,41
 766 535 766 535 754 535 c 132,-1,42
 742 535 742 535 735 540 c 4,43,44
 718 550 718 550 717 563 c 4,45,46
 716 587 716 587 716 634 c 4,47,48
 717 765 717 765 656 845 c 4,49,50
 572 956 572 956 427 942 c 4,51,52
 360 935 360 935 301 897 c 132,-1,53
 242 859 242 859 208.5 801 c 132,-1,54
 175 743 175 743 171 672.5 c 132,-1,55
 167 602 167 602 194 541 c 4,56,57
 197 534 197 534 197.5 523 c 132,-1,58
 198 512 198 512 187.5 501.5 c 132,-1,59
 177 491 177 491 165 491 c 4,60,61
 139 491 139 491 131 513 c 4,62,63
 96 590 96 590 100.5 676.5 c 132,-1,64
 105 763 105 763 147.5 836 c 132,-1,0
 190 909 190 909 263 956 c 132,-1,1
EndSplineSet
EndChar

StartChar: datemark
Encoding: 164 3449 109
Width: 2321
GlyphClass: 2
Flags: W
LayerCount: 2
Back
Fore
SplineSet
126.5 658 m 128,-1,1
 162 763 162 763 235 839.5 c 128,-1,2
 308 916 308 916 409.5 960 c 128,-1,3
 511 1004 511 1004 623 998 c 0,4,5
 881 985 881 985 999 772 c 1,6,7
 999 773 999 773 1000 774 c 0,8,9
 1092 937 1092 937 1313 986 c 0,10,11
 1421 1010 1421 1010 1544.5 980.5 c 128,-1,12
 1668 951 1668 951 1769 867 c 128,-1,13
 1870 783 1870 783 1922 653 c 1,14,-1
 2152 649 l 2,15,16
 2181 649 2181 649 2201.5 628.5 c 128,-1,17
 2222 608 2222 608 2222 584 c 128,-1,18
 2222 560 2222 560 2213 544 c 0,19,20
 2193 509 2193 509 2152 509 c 0,21,22
 2151 509 2151 509 2150 509 c 2,23,-1
 1957 512 l 1,24,25
 1972 383 1972 383 1934 282 c 0,26,27
 1858 82 1858 82 1685 22 c 0,28,29
 1594 -10 1594 -10 1507.5 7 c 128,-1,30
 1421 24 1421 24 1356.5 76.5 c 128,-1,31
 1292 129 1292 129 1261.5 207 c 128,-1,32
 1231 285 1231 285 1244 368.5 c 128,-1,33
 1257 452 1257 452 1308 513 c 0,34,35
 1399 620 1399 620 1573 646 c 0,36,37
 1649 657 1649 657 1765 655 c 1,38,39
 1680 803 1680 803 1511 844 c 0,40,41
 1418 867 1418 867 1340 849 c 0,42,43
 1114 798 1114 798 1075 579 c 0,44,45
 1066 530 1066 530 1065 433 c 2,46,-1
 1062 63 l 1,47,-1
 1062 62 l 2,48,49
 1061 17 1061 17 1019 -1 c 0,50,51
 1006 -6 1006 -6 984.5 -6 c 128,-1,52
 963 -6 963 -6 942.5 14 c 128,-1,53
 922 34 922 34 922 63 c 2,54,-1
 924 433 l 2,55,56
 925 540 925 540 913 605.5 c 128,-1,57
 901 671 901 671 861 729 c 0,58,59
 778 850 778 850 620 858 c 0,60,61
 543 862 543 862 467.5 832 c 128,-1,62
 392 802 392 802 339 746 c 128,-1,63
 286 690 286 690 260 613 c 128,-1,64
 234 536 234 536 242 459 c 128,-1,65
 250 382 250 382 291.5 312.5 c 128,-1,66
 333 243 333 243 396.5 199 c 128,-1,67
 460 155 460 155 540 141.5 c 128,-1,68
 620 128 620 128 695 148 c 0,69,70
 704 151 704 151 723.5 150.5 c 128,-1,71
 743 150 743 150 763.5 129.5 c 128,-1,72
 784 109 784 109 784 87 c 0,73,74
 784 25 784 25 731 12 c 0,75,76
 626 -16 626 -16 516.5 3 c 128,-1,77
 407 22 407 22 317 84 c 128,-1,78
 227 146 227 146 170.5 241 c 128,-1,79
 114 336 114 336 102.5 444.5 c 128,-1,0
 91 553 91 553 126.5 658 c 128,-1,1
1815 514 m 1,80,81
 1660 517 1660 517 1598 508 c 0,82,83
 1403 480 1403 480 1382 346 c 0,84,85
 1367 248 1367 248 1448.5 182 c 128,-1,86
 1530 116 1530 116 1640 154.5 c 128,-1,87
 1750 193 1750 193 1797 317 c 0,88,89
 1832 411 1832 411 1815 514 c 1,80,81
EndSplineSet
EndChar

StartChar: ZWNJ
Encoding: 171 8204 110
Width: 321
GlyphClass: 2
Flags: W
LayerCount: 2
Back
Fore
SplineSet
66 1032 m 1,0,-1
 225 1032 l 1,1,-1
 225 43 l 1,2,-1
 66 43 l 1,3,-1
 66 1032 l 1,0,-1
EndSplineSet
EndChar

StartChar: ZWJ
Encoding: 172 8205 111
Width: 321
GlyphClass: 2
Flags: W
LayerCount: 2
Back
Fore
SplineSet
148 1012 m 1,0,-1
 14 804 l 1,1,-1
 -90 804 l 1,2,-1
 96 1076 l 1,3,-1
 -76 1324 l 1,4,-1
 33 1324 l 1,5,-1
 111 1203 l 2,6,7
 120 1189 120 1189 145 1144 c 1,8,-1
 270 1324 l 1,9,-1
 377 1324 l 1,10,-1
 199 1080 l 1,11,-1
 387 804 l 1,12,-1
 283 804 l 1,13,-1
 148 1012 l 1,0,-1
70 888 m 1,14,-1
 224 888 l 1,15,-1
 224 13 l 1,16,-1
 70 13 l 1,17,-1
 70 888 l 1,14,-1
EndSplineSet
EndChar

StartChar: rupee
Encoding: 173 8377 112
Width: 1231
GlyphClass: 2
Flags: W
LayerCount: 2
Back
Fore
SplineSet
470 1310 m 2,0,-1
 1059 1308 l 2,1,2
 1086 1308 1086 1308 1105 1288.5 c 128,-1,3
 1124 1269 1124 1269 1124 1242.5 c 128,-1,4
 1124 1216 1124 1216 1104.5 1196.5 c 128,-1,5
 1085 1177 1085 1177 1059 1178 c 0,6,7
 906 1178 906 1178 754 1179 c 1,8,9
 828 1073 828 1073 808 936 c 1,10,11
 937 936 937 936 1067 935 c 0,12,13
 1094 935 1094 935 1113 916 c 128,-1,14
 1132 897 1132 897 1132 870.5 c 128,-1,15
 1132 844 1132 844 1112.5 824.5 c 128,-1,16
 1093 805 1093 805 1067 805 c 0,17,18
 918 806 918 806 768 806 c 1,19,20
 690 643 690 643 526 537 c 0,21,22
 465 498 465 498 399 473 c 1,23,-1
 891 82 l 2,24,25
 912 65 912 65 915 38 c 128,-1,26
 918 11 918 11 901.5 -9.5 c 128,-1,27
 885 -30 885 -30 858 -33.5 c 128,-1,28
 831 -37 831 -37 810 -20 c 2,29,-1
 218 450 l 2,30,31
 199 465 199 465 194.5 490.5 c 128,-1,32
 190 516 190 516 205.5 538.5 c 128,-1,33
 221 561 221 561 248 565 c 0,34,35
 359 584 359 584 457 647.5 c 128,-1,36
 555 711 555 711 619 807 c 1,37,38
 396 808 396 808 173 808 c 0,39,40
 146 808 146 808 127 827.5 c 128,-1,41
 108 847 108 847 108 873.5 c 128,-1,42
 108 900 108 900 127 919.5 c 128,-1,43
 146 939 146 939 173 938 c 2,44,-1
 676 937 l 1,45,46
 690 1003 690 1003 669 1062 c 128,-1,47
 648 1121 648 1121 603 1147.5 c 128,-1,48
 558 1174 558 1174 523 1179 c 1,49,-1
 477 1180 l 2,50,51
 473 1180 473 1180 463.5 1178 c 128,-1,52
 454 1176 454 1176 441 1180 c 1,53,54
 303 1180 303 1180 165 1181 c 0,55,56
 138 1181 138 1181 119 1200 c 128,-1,57
 100 1219 100 1219 100 1245.5 c 128,-1,58
 100 1272 100 1272 119.5 1291.5 c 128,-1,59
 139 1311 139 1311 165 1311 c 0,60,61
 317 1310 317 1310 470 1310 c 2,0,-1
EndSplineSet
EndChar

StartChar: uni25CC
Encoding: 174 9676 113
Width: 1131
GlyphClass: 2
Flags: W
LayerCount: 2
Back
Fore
SplineSet
930 710 m 1,0,1
 866 817 866 817 794 843 c 1,2,-1
 868 944 l 1,3,4
 948 892 948 892 980 860 c 1,5,-1
 984 858 l 1,6,7
 1022 811 1022 811 1038 784 c 1,8,-1
 930 710 l 1,0,1
686 1017 m 1,9,-1
 666 897 l 1,10,11
 602 907 602 907 568 907 c 128,-1,12
 534 907 534 907 470 897 c 1,13,-1
 450 1017 l 1,14,15
 521 1033 521 1033 570 1033 c 128,-1,16
 619 1033 619 1033 686 1017 c 1,9,-1
1098 630 m 1,17,18
 1112 573 1112 573 1112 517.5 c 128,-1,19
 1112 462 1112 462 1098 405 c 1,20,-1
 972 426 l 1,21,22
 981 486 981 486 981 514.5 c 128,-1,23
 981 543 981 543 972 609 c 1,24,-1
 1098 630 l 1,17,18
1038 250 m 1,25,26
 980 170 980 170 954 142 c 1,27,-1
 952 142 l 2,28,29
 950 140 950 140 868 91 c 1,30,-1
 794 192 l 1,31,32
 866 236 866 236 888 260 c 1,33,34
 924 312 924 312 930 325 c 1,35,-1
 1038 250 l 1,25,26
348 843 m 1,36,37
 264 796 264 796 252 771 c 2,38,-1
 212 710 l 1,39,-1
 104 784 l 1,40,41
 156 860 156 860 186 888 c 0,42,43
 198 897 198 897 270 944 c 1,44,-1
 348 843 l 1,36,37
170 426 m 1,45,-1
 42 405 l 1,46,47
 30 461 30 461 30 517 c 128,-1,48
 30 573 30 573 42 630 c 1,49,-1
 170 609 l 1,50,51
 158 576 158 576 158 517.5 c 128,-1,52
 158 459 158 459 170 426 c 1,45,-1
686 18 m 1,53,54
 640 4 640 4 571 4 c 128,-1,55
 502 4 502 4 450 18 c 1,56,-1
 470 138 l 1,57,58
 535 128 535 128 568.5 128 c 128,-1,59
 602 128 602 128 666 138 c 1,60,-1
 686 18 l 1,53,54
348 192 m 1,61,-1
 270 91 l 1,62,63
 178 150 178 150 158 175 c 1,64,-1
 156 175 l 1,65,-1
 104 250 l 1,66,-1
 212 325 l 1,67,68
 262 248 262 248 278 237 c 128,-1,69
 294 226 294 226 348 192 c 1,61,-1
EndSplineSet
EndChar

StartChar: r4
Encoding: 178 -1 114
Width: 615
GlyphClass: 2
LigCaretCntFixed: 1
Flags: W
LayerCount: 2
Back
Fore
SplineSet
516 -223.5 m 128,-1,1
 515 -250 515 -250 495 -268.5 c 128,-1,2
 475 -287 475 -287 448 -286 c 0,3,4
 211 -277 211 -277 135 -100 c 0,5,6
 74 42 74 42 118 352 c 0,7,8
 135 475 135 475 181.5 709.5 c 128,-1,9
 228 944 228 944 234 976.5 c 128,-1,10
 240 1009 240 1009 262.5 1024.5 c 128,-1,11
 285 1040 285 1040 311.5 1035 c 128,-1,12
 338 1030 338 1030 353 1007 c 128,-1,13
 368 984 368 984 362 952 c 0,14,15
 270 492 270 492 247 334 c 0,16,17
 209 60 209 60 253.5 -45.5 c 128,-1,18
 298 -151 298 -151 453 -156 c 0,19,20
 480 -157 480 -157 498.5 -177 c 128,-1,0
 517 -197 517 -197 516 -223.5 c 128,-1,1
EndSplineSet
Ligature2: "'pstf' Post Base Forms in Malay+AQEA-lam lookup 11 subtable" r3 xx
Ligature2: "'pref' Pre Base Forms in Malay+AQEA-lam2 lookup 2 subtable" xx r3
LCarets2: 1 0 
EndChar

StartChar: y2
Encoding: 179 -1 115
Width: 618
GlyphClass: 2
LigCaretCntFixed: 1
Flags: W
LayerCount: 2
Back
Fore
SplineSet
141.994140625 966.4921875 m 4,0,1
 149.176757812 992.012695312 149.176757812 992.012695312 169.677734375 992.012695312 c 4,2,3
 210.690429688 992.012695312 210.690429688 992.012695312 210.690429688 957.008789062 c 4,4,5
 210.690429688 951.666992188 210.690429688 951.666992188 209.099609375 946.576171875 c 4,6,7
 136.536132812 702.072265625 136.536132812 702.072265625 234.063476562 467.815429688 c 4,8,9
 274.875 369.79296875 274.875 369.79296875 322.259765625 295.830078125 c 132,-1,10
 369.64453125 221.868164062 369.64453125 221.868164062 394.083007812 184.485351562 c 4,11,12
 482.904296875 48.6220703125 482.904296875 48.6220703125 517.624023438 -26.8115234375 c 132,-1,13
 552.342773438 -102.24609375 552.342773438 -102.24609375 557.024414062 -201.873046875 c 132,-1,14
 561.706054688 -301.499023438 561.706054688 -301.499023438 498.688476562 -398.750976562 c 132,-1,15
 435.670898438 -496.002929688 435.670898438 -496.002929688 325.284179688 -534.827148438 c 132,-1,16
 214.897460938 -573.651367188 214.897460938 -573.651367188 105.44140625 -533.052734375 c 4,17,18
 -6.720703125 -491.450195312 -6.720703125 -491.450195312 -62.560546875 -385.868164062 c 132,-1,19
 -118.400390625 -280.286132812 -118.400390625 -280.286132812 -86.2578125 -163.72265625 c 132,-1,20
 -54.11328125 -47.16015625 -54.11328125 -47.16015625 49.205078125 15.64453125 c 4,21,22
 57.7353515625 20.99609375 57.7353515625 20.99609375 70.0166015625 20.99609375 c 132,-1,23
 82.2978515625 20.99609375 82.2978515625 20.99609375 92.5537109375 10.740234375 c 132,-1,24
 102.809570312 0.4833984375 102.809570312 0.4833984375 102.809570312 -16.767578125 c 132,-1,25
 102.809570312 -34.01953125 102.809570312 -34.01953125 81.716796875 -46.67578125 c 132,-1,26
 60.6240234375 -59.3330078125 60.6240234375 -59.3330078125 39.783203125 -80.8349609375 c 4,27,28
 -2.947265625 -124.92578125 -2.947265625 -124.92578125 -23.2412109375 -198.518554688 c 132,-1,29
 -43.53515625 -272.112304688 -43.53515625 -272.112304688 0.005859375 -354.44140625 c 4,30,31
 42.671875 -435.111328125 42.671875 -435.111328125 129.1015625 -467.16796875 c 132,-1,32
 215.530273438 -499.225585938 215.530273438 -499.225585938 302.724609375 -468.55859375 c 132,-1,33
 389.918945312 -437.890625 389.918945312 -437.890625 440.32421875 -360.1015625 c 4,34,35
 530.15625 -221.465820312 530.15625 -221.465820312 446.701171875 -40.142578125 c 4,36,37
 421.051757812 15.58984375 421.051757812 15.58984375 367.15625 97.8056640625 c 132,-1,38
 313.260742188 180.020507812 313.260742188 180.020507812 303.745117188 194.733398438 c 132,-1,39
 294.229492188 209.446289062 294.229492188 209.446289062 274.575195312 240.749023438 c 132,-1,40
 254.920898438 272.051757812 254.920898438 272.051757812 244.354492188 290.61328125 c 132,-1,41
 233.7890625 309.174804688 233.7890625 309.174804688 217.62890625 338.626953125 c 132,-1,42
 201.46875 368.079101562 201.46875 368.079101562 190.975585938 390.936523438 c 4,43,44
 164.048828125 449.588867188 164.048828125 449.588867188 137.733398438 529.909179688 c 132,-1,45
 111.41796875 610.228515625 111.41796875 610.228515625 109.71875 731.12109375 c 132,-1,46
 108.01953125 852.013671875 108.01953125 852.013671875 141.994140625 966.4921875 c 4,0,1
EndSplineSet
Ligature2: "'pstf' Post Base Forms in Malay+AQEA-lam2 lookup 12 subtable" xx y1
Ligature2: "'pstf' Post Base Forms in Malay+AQEA-lam lookup 11 subtable" y1 xx
LCarets2: 1 3 
EndChar

StartChar: v2
Encoding: 182 -1 118
Width: 437
GlyphClass: 3
LigCaretCntFixed: 1
Flags: W
LayerCount: 2
Back
Fore
SplineSet
194 942 m 6,0,1
 194 943 194 943 194 957 c 132,-1,2
 194 971 194 971 214.5 992 c 132,-1,3
 235 1013 235 1013 264 1013 c 132,-1,4
 293 1013 293 1013 313.5 992.5 c 132,-1,5
 334 972 334 972 334 943 c 4,6,7
 334 942 l 6,8,-1
 338 -252 l 6,9,10
 338 -298 338 -298 295 -316 c 4,11,12
 282 -322 282 -322 268 -322 c 6,13,-1
 -232 -322 l 6,14,15
 -242 -322 l 4,16,17
 -252 -322 -252 -322 -268 -313 c 4,18,19
 -303 -293 -303 -293 -303 -258 c 132,-1,20
 -303 -223 -303 -223 -282.5 -202.5 c 132,-1,21
 -262 -182 -262 -182 -247 -182 c 4,22,-1
 -232 -182 l 6,23,-1
 198 -182 l 5,24,-1
 194 942 l 6,0,1
EndSplineSet
Ligature2: "'pstf' Post Base Forms in Malay+AQEA-lam2 lookup 12 subtable" xx v1
Ligature2: "'pstf' Post Base Forms in Malay+AQEA-lam lookup 11 subtable" v1 xx
LCarets2: 1 0 
EndChar

StartChar: k1cil
Encoding: 170 3455 119
Width: 1937
GlyphClass: 3
Flags: W
LayerCount: 2
Back
Fore
SplineSet
1447 1434 m 2,0,1
 1477 1434 1477 1434 1497 1413 c 0,2,3
 1609 1299 1609 1299 1626.5 1136.5 c 128,-1,4
 1644 974 1644 974 1525 724 c 0,5,6
 1513 700 1513 700 1500 673 c 128,-1,7
 1487 646 1487 646 1479 630 c 1,8,9
 1652 597 1652 597 1740 501 c 0,10,11
 1884 344 1884 344 1816 172 c 0,12,13
 1792 111 1792 111 1744 67 c 0,14,15
 1640 -28 1640 -28 1504 0 c 0,16,17
 1422 17 1422 17 1373 65.5 c 128,-1,18
 1324 114 1324 114 1299 162 c 1,19,20
 1240 84 1240 84 1152 37 c 128,-1,21
 1064 -10 1064 -10 963 -6 c 0,22,23
 789 0 789 0 669 140 c 1,24,25
 606 36 606 36 490 3 c 0,26,27
 421 -17 421 -17 350 -5 c 0,28,29
 232 16 232 16 159.5 112 c 128,-1,30
 87 208 87 208 103 318 c 128,-1,31
 119 428 119 428 190 498 c 0,32,33
 320 626 320 626 565 639 c 1,34,35
 593 759 593 759 657 839 c 0,36,37
 788 1003 788 1003 972 1005 c 0,38,39
 1064 1006 1064 1006 1146 965 c 0,40,41
 1298 887 1298 887 1365 716 c 1,42,43
 1413 814 1413 814 1419 828 c 0,44,45
 1500 1005 1500 1005 1487.5 1120 c 128,-1,46
 1475 1235 1475 1235 1397 1314 c 0,47,48
 1376 1335 1376 1335 1376 1364 c 128,-1,49
 1376 1393 1376 1393 1396.5 1413.5 c 128,-1,50
 1417 1434 1417 1434 1446 1434 c 2,51,-1
 1447 1434 l 2,0,1
711 642 m 1,52,-1
 1221 645 l 2,53,54
 1231 645 1231 645 1241 645 c 1,55,56
 1196 782 1196 782 1085 838.5 c 128,-1,57
 974 895 974 895 864.5 836.5 c 128,-1,58
 755 778 755 778 711 642 c 1,52,-1
696 502 m 1,59,60
 696 502 696 502 689 502 c 1,61,62
 686 360 686 360 753 260 c 0,63,64
 835 138 835 138 966 134 c 0,65,66
 1031 132 1031 132 1091 163.5 c 128,-1,67
 1151 195 1151 195 1193 253 c 0,68,69
 1268 356 1268 356 1265 505 c 1,70,-1
 1222 505 l 1,71,-1
 696 502 l 1,59,60
549 498 m 1,72,73
 376 484 376 484 296 405 c 0,74,75
 251 361 251 361 242.5 303.5 c 128,-1,76
 234 246 234 246 272 195 c 128,-1,77
 310 144 310 144 361 136 c 0,78,79
 456 119 456 119 518 174.5 c 128,-1,80
 580 230 580 230 574 313 c 0,81,82
 574 314 574 314 574 315 c 0,83,84
 548 401 548 401 549 498 c 1,72,73
1424 496 m 1,85,86
 1353 282 1353 282 1459 178 c 0,87,88
 1519 119 1519 119 1589.5 139 c 128,-1,89
 1660 159 1660 159 1685 223 c 0,90,91
 1721 314 1721 314 1647 395 c 128,-1,92
 1573 476 1573 476 1424 496 c 1,85,86
EndSplineSet
Ligature2: "'haln' Halant Forms in Malay+AQEA-lam lookup 10 subtable" k1 xx ZWJ
Ligature2: "'half' Half Forms in Malay+AQEA-lam lookup 3 subtable" k1 xx ZWJ
Ligature2: "'akhn' Akhand in Malay+AQEA-lam2 lookup 1 subtable" k1 xx ZWJ
Ligature2: "'akhn' Akhand in Malay+AQEA-lam lookup 0 subtable" k1 xx ZWJ
EndChar

